<?xml version="1.0" encoding="utf-8"?>
<!-- Generator: Adobe Illustrator 27.0.0, SVG Export Plug-In . SVG Version: 6.00 Build 0)  -->
<svg version="1.1" id="Layer_1" xmlns="http://www.w3.org/2000/svg" xmlns:xlink="http://www.w3.org/1999/xlink" x="0px" y="0px"
	 viewBox="0 0 782.8 113.1" style="enable-background:new 0 0 782.8 113.1;" xml:space="preserve">
<style type="text/css">
	.st0{fill:#FCFDFD;}
	.st1{fill:#AAAAAA;}
	.st2{clip-path:url(#SVGID_00000135655122399104664350000014197223963225178762_);fill:#939598;}
	.st3{clip-path:url(#SVGID_00000135655122399104664350000014197223963225178762_);fill:#BCBEC0;}
	.st4{clip-path:url(#SVGID_00000135655122399104664350000014197223963225178762_);}
	.st5{clip-path:url(#SVGID_00000147213627707693771370000003034827518400187554_);fill:#3B4959;}
	.st6{fill:#287FC6;}
	.st7{fill:#FED408;}
	.st8{fill:#2A80C7;}
	.st9{fill:#0884D6;}
	.st10{fill:#FEFDFA;}
</style>
<g>
	<path class="st0" d="M485.4,104.6c-9.3,0-18.6,0-27.9,0c-4.1,0-4.1,0-4.1-3.9c0-27.6,0-55.1,0-82.7c0-3.7,0.2-7.3-0.1-11
		c-0.2-2.3,0.7-2.5,2.7-2.4c9.8,0.1,19.6,0,29.4,0C485.4,38,485.4,71.3,485.4,104.6z"/>
	<path class="st1" d="M485.4,104.6c0-33.3,0-66.6,0-99.9c1,0,2,0,3,0c0,33.3,0,66.6,0,99.9C487.4,104.6,486.4,104.6,485.4,104.6z"/>
</g>
<g>
	<g>
		<defs>
			<rect id="SVGID_1_" x="0" y="0" width="451.8" height="113.1"/>
		</defs>
		<clipPath id="SVGID_00000142146869648300940190000007698649022372894100_">
			<use xlink:href="#SVGID_1_"  style="overflow:visible;"/>
		</clipPath>
		<polygon style="clip-path:url(#SVGID_00000142146869648300940190000007698649022372894100_);fill:#939598;" points="38.8,80.6 
			20.9,67.4 20.9,32.5 38.8,45.7 		"/>
		<polygon style="clip-path:url(#SVGID_00000142146869648300940190000007698649022372894100_);fill:#BCBEC0;" points="38.8,80.6 
			56.7,67.4 56.7,32.5 38.8,45.7 		"/>
		<polygon style="clip-path:url(#SVGID_00000142146869648300940190000007698649022372894100_);fill:#939598;" points="74.6,80.6 
			56.7,67.4 56.7,32.5 74.6,45.7 		"/>
		<polygon style="clip-path:url(#SVGID_00000142146869648300940190000007698649022372894100_);fill:#BCBEC0;" points="74.6,80.6 
			92.5,67.4 92.5,32.5 74.6,45.7 		"/>
		<g style="clip-path:url(#SVGID_00000142146869648300940190000007698649022372894100_);">
			<defs>
				<rect id="SVGID_00000080898863243288121380000016028996886207413178_" x="0" y="0" width="451.8" height="113.1"/>
			</defs>
			<clipPath id="SVGID_00000154417908478150908000000004750572459928276367_">
				<use xlink:href="#SVGID_00000080898863243288121380000016028996886207413178_"  style="overflow:visible;"/>
			</clipPath>
			<path style="clip-path:url(#SVGID_00000154417908478150908000000004750572459928276367_);fill:#3B4959;" d="M56.6,113.1
				C25.4,113.1,0,87.7,0,56.6C0,25.4,25.4,0,56.6,0c31.2,0,56.6,25.4,56.6,56.6C113.1,87.7,87.7,113.1,56.6,113.1 M56.6,7
				C29.2,7,7,29.2,7,56.6c0,27.3,22.2,49.6,49.6,49.6s49.6-22.2,49.6-49.6C106.2,29.2,83.9,7,56.6,7"/>
			<path style="clip-path:url(#SVGID_00000154417908478150908000000004750572459928276367_);fill:#3B4959;" d="M130,56.6
				c0-17.7,13.4-29.7,31.1-29.7c13.9,0,21.4,7.8,25.1,15.3l-12.7,6.1c-1.9-4.6-6.8-8.4-12.3-8.4c-9.4,0-16,7.1-16,16.6
				c0,9.4,6.6,16.6,16,16.6c5.5,0,10.4-3.8,12.3-8.4l12.7,6c-3.7,7.3-11.2,15.4-25.1,15.4C143.5,86.3,130,74.2,130,56.6"/>
			<path style="clip-path:url(#SVGID_00000154417908478150908000000004750572459928276367_);fill:#3B4959;" d="M192.5,62V27.8h15.1
				v33.7c0,6.8,4.1,11.7,12.1,11.7c7.9,0,12.1-4.9,12.1-11.7V27.8h15v34.1c0,14.3-8.6,24.4-27,24.4S192.5,76.1,192.5,62"/>
			<path style="clip-path:url(#SVGID_00000154417908478150908000000004750572459928276367_);fill:#3B4959;" d="M254.2,56.6
				c0-17.7,13.4-29.7,31.1-29.7c13.9,0,21.4,7.8,25.1,15.3l-12.7,6.1c-1.9-4.6-6.8-8.4-12.3-8.4c-9.4,0-16,7.1-16,16.6
				c0,9.4,6.6,16.6,16,16.6c5.5,0,10.4-3.8,12.3-8.4l12.7,6c-3.7,7.3-11.2,15.4-25.1,15.4C267.6,86.3,254.2,74.2,254.2,56.6"/>
			<polygon style="clip-path:url(#SVGID_00000154417908478150908000000004750572459928276367_);fill:#3B4959;" points="359.9,85.2 
				351.2,49.2 342.5,85.2 326.8,85.2 310.3,27.8 327,27.8 335.7,66.1 345.5,27.8 356.8,27.8 366.7,66.1 375.3,27.8 392,27.8 
				375.5,85.2 			"/>
			<path style="clip-path:url(#SVGID_00000154417908478150908000000004750572459928276367_);fill:#3B4959;" d="M396.6,85.2V27.8
				h24.1c18.1,0,31.1,10.9,31.1,28.7c0,17.8-13,28.8-31,28.8H396.6z M436.7,56.5c0-8.9-5.3-15.8-15.8-15.8h-9.4v31.6h9.3
				C430.8,72.3,436.7,65,436.7,56.5"/>
		</g>
	</g>
</g>
<g id="yiHD5I_00000163053664022544556290000014035784127286825874_">
	<g>
		<path class="st6" d="M643.7,45.4c4.4-13.5,8.8-26.8,13.2-40.2c6.1,0,12.1,0,18.3,0c2.8,12.4,5.5,24.8,8.4,37.5
			c7.1-12.7,14.1-25.1,21-37.6c6.1,0,12.2,0,18.3,0c0,13.4,0,26.8,0,40.2c-6,0-11.8,0-17.6,0c0-3.3,0-6.6,0-10.2
			c-2,3.5-3.9,6.8-5.9,10.1c-10.7,0-21.4,0-32.3,0c-0.8-3.3-1.6-6.6-2.5-10.4c-1.1,3.7-2.2,7-3.2,10.4
			C655.5,45.4,649.7,45.4,643.7,45.4z"/>
		<path class="st7" d="M762.7,22.1c-0.2,2.6-1.2,5.1-1.8,7.6c-0.7,2.8-1.5,5.7-2.3,8.9c4.4-1.9,8.4-3.6,12.5-5.4
			c0.1,0.1,0.2,0.3,0.3,0.4c-3,3.7-6,7.5-9.3,11.5c6.9,1.3,13.6,2.6,20.6,4c-7.2,2.2-14.2,3.6-21.3,5.5c2.8,3.3,5.5,6.5,8.4,9.9
			c-4.3-1.2-8.2-2.2-12.4-3.4c1,5,1.9,9.9,2.8,14.8c-0.1,0-0.2,0.1-0.3,0.1c-2.5-3.1-5-6.3-7.8-9.8c-1.7,12.4-3.4,24.3-5.1,36.3
			c-0.1,0-0.2,0-0.4,0c-0.7-11.5-1.4-23-2.1-34.6c-0.1,0-0.3-0.1-0.4-0.1c-3,3.9-6,7.8-9,11.7c-0.1,0-0.2-0.1-0.2-0.1
			c1.4-5.4,2.8-10.8,4.3-16.4c-4.4,1.9-8.5,3.7-12.7,5.5c-0.1-0.1-0.2-0.2-0.2-0.4c3-3.8,6.1-7.5,9.3-11.6
			C663,55,590.5,53.4,518,51.9c0-0.2,0-0.3,0-0.5c3,0,6,0,9.1,0c9.4-0.1,18.8-0.3,28.1-0.5c10.1-0.2,20.2-0.4,30.3-0.7
			c10.1-0.2,20.2-0.4,30.3-0.7c10.2-0.2,20.4-0.4,30.6-0.7c10-0.2,20-0.4,29.9-0.7c10.2-0.2,20.4-0.4,30.6-0.7
			c9.7-0.2,19.4-0.5,29.5-0.7c-2.7-3.2-5.3-6.3-8.2-9.7c4.3,1.2,8.3,2.2,12.4,3.3c-1-5.1-1.9-10.1-3-15.5c2.8,3.6,5.4,6.8,8.2,10.3
			c1.5-10.3,3-20.2,4.5-30.2c1.3,9.6,2.2,19.1,3,29.1C756.6,30.1,759.7,26.1,762.7,22.1C762.8,22.1,762.7,22.1,762.7,22.1z
			 M761.7,59.2c0.1,0,0.2,0.1,0.4,0.1c-0.1-0.1-0.1-0.2-0.2-0.3c-1.6-2-3.2-4-5-6.1c5-1.1,9.8-2.1,14.6-3.1c0-0.1,0-0.2,0-0.4
			c-4.3-0.9-8.6-1.9-13.1-2.8c1.5-2.2,2.9-4.4,4.3-6.5c0.1-0.1,0.1-0.1,0.2-0.2c-0.2,0-0.3,0-0.1,0.2c-0.7-0.4-1.2,0.2-1.8,0.4
			c-1.9,0.8-3.9,1.7-6,2.6c0.8-3.2,1.6-6.2,2.3-9.1c-0.1-0.1-0.3-0.1-0.4-0.2c-1.8,2.3-3.5,4.5-5.5,7c-0.4-6.2-0.8-12-1.2-17.8
			c-0.1,0-0.2,0-0.3,0c-0.9,6-1.7,12-2.6,18.1c-2.1-1.9-3.1-4.4-5.5-6.2c0.6,3.2,1.2,6.1,1.7,9.1c-2.7-0.4-5-1.5-7.7-1.7
			c1.9,2.2,3.6,4.3,5.5,6.5c-6,0.9-11.7,1.8-17.4,2.7c0,0.1,0,0.2,0,0.2c5.6,0.7,11.2,1.4,17.1,2.2c-2,2.6-3.9,4.9-5.8,7.2
			c0.1,0.1,0.2,0.2,0.2,0.3c2.4-1,4.7-2,7.4-3.2c-0.8,3.3-1.6,6.2-2.4,9.2c0.1,0.1,0.2,0.1,0.3,0.2c1.8-2.2,3.5-4.5,5.6-7.1
			c0.4,6.5,0.8,12.5,1.1,18.5c0.1,0,0.2,0,0.3,0c0.9-6.2,1.7-12.4,2.7-18.9c1.8,2.3,3.3,4.2,4.9,6.2c0.1-0.1,0.3-0.2,0.4-0.3
			c-0.5-2.9-1-5.7-1.6-8.7C757,58.1,759.3,58.6,761.7,59.2z"/>
		<path class="st6" d="M566,5.2c6.8,0,13.5,0,20.3,0c2.9,13.4,5.9,26.9,8.9,40.4c-6.3,0-12.5,0-18.9,0c-1.2-6.1-2.3-12.2-3.6-18.7
			c-3.4,6.5-6.6,12.6-9.8,18.8c-6.2,0-12.4,0-18.9,0C551.4,32,558.7,18.6,566,5.2z"/>
		<path class="st6" d="M630.8,45.4c-6.2,0-12.2,0-18.5,0c2.1-13.5,4.2-26.8,6.4-40.3c6.2,0,12.2,0,18.5,0
			C635,18.6,632.9,31.9,630.8,45.4z"/>
		<path class="st8" d="M597.9,57.9c1.3,5.9,2.6,11.7,3.9,17.8c-6.6,0-13.1,0-19.7,0c-1.1-5.8-2.2-11.7-3.4-17.8
			C585.1,57.9,591.5,57.9,597.9,57.9z"/>
		<path class="st8" d="M556.6,58c-3.1,6-6.2,11.9-9.2,17.7c-6.5,0-12.9,0-19.7,0c3.3-6,6.5-11.9,9.6-17.7
			C543.7,58,550.1,58,556.6,58z"/>
		<path class="st6" d="M628.8,57.7c-1,6.1-1.9,12-2.8,18c-6.1,0-12.2,0-18.5,0c0.9-6,1.9-11.9,2.8-18
			C616.5,57.7,622.6,57.7,628.8,57.7z"/>
		<path class="st6" d="M639.6,57.7c6.1,0,11.9,0,18,0c-1.8,6.1-3.6,12-5.5,18c-6.1,0-12.2,0-18.4,0
			C635.7,69.7,637.7,63.7,639.6,57.7z"/>
		<path class="st6" d="M722.6,75.7c-6.2,0-12.2,0-18.5,0c0.2-6,0.4-11.9,0.6-18c6,0,11.9,0,18,0C723,63.7,722.5,69.7,722.6,75.7z"/>
		<path class="st6" d="M692.2,57.8c-3.5,6.1-7,12.1-10.4,18c-2.5,0-4.9,0-7.5,0c-1.4-5.9-2.9-11.9-4.3-18
			C677.4,57.8,684.7,57.8,692.2,57.8z"/>
		<path class="st9" d="M649.8,86.5c-0.5,3.2-0.9,5.9-1.4,8.6c-0.4,2.7-0.9,5.5-1.3,8.2c-1,0.2-1.9,0.2-3,0c1.3-8,2.5-15.8,3.8-24.1
			c4.8,6,9.5,11.9,14.4,18c0.9-5.7,1.8-11.1,2.6-16.6c0.9-0.4,1.8-0.2,3-0.2c-1.2,7.9-2.5,15.7-3.8,24
			C659.3,98.5,654.7,92.7,649.8,86.5z"/>
		<path class="st9" d="M625,103.9c-7,0-11.6-5.5-10.1-12.4c1.2-5.9,6.3-10.6,12.2-11.4c8.1-1.1,13.9,5.8,11.4,13.9
			C636.8,99.7,631.1,103.9,625,103.9z M628.4,82.8c-5.2,0-9.5,3.7-10.6,9.1c-1,5.3,3,9.7,8.3,9.3c5.1-0.5,9.6-4.9,9.9-10.1
			C636.5,86.3,633.3,82.8,628.4,82.8z"/>
		<path class="st9" d="M576.8,103.9c-7.1,0-11.6-5.6-10-12.6c1.4-6.4,7.3-11.3,13.7-11.3c7,0,11.7,5.7,10.3,12.5
			C589.4,99.1,583.4,103.9,576.8,103.9z M587.9,90.4c0-4.5-3.1-7.5-7.6-7.6c-5.9,0-10.8,4.9-10.8,10.8c0,4.3,3.2,7.5,7.5,7.6
			C582.7,101.3,588,96.1,587.9,90.4z"/>
		<path class="st9" d="M557,89.7c0.5-3,1-6,1.5-9c1-0.3,1.9-0.3,3,0c-1.2,7.6-2.4,15.1-3.6,22.7c-1,0.2-1.9,0.2-3,0
			c0.6-3.6,1.1-7.1,1.6-10.8c-3.6,0-7.1,0-10.8,0c-0.6,3.6-1.2,7.2-1.8,10.8c-1,0-1.9,0-2.9,0c1.2-7.7,2.4-15.2,3.6-22.9
			c1,0,1.8,0,2.9,0c-0.5,3.1-0.9,6-1.4,9.1C549.9,89.7,553.4,89.7,557,89.7z"/>
		<path class="st9" d="M708.9,97.5c1-0.2,1.9-0.6,2.8-0.4c0.4,2.9,1.5,4.1,3.7,4.2c2.3,0.1,4.5-1.8,5-4.1c0.3-1.6-0.2-2.9-1.6-3.7
			c-1.3-0.7-2.7-1.3-4.1-2.1c-3.6-2-4.2-5.4-1.5-8.6c2.9-3.5,9.8-4,11.6,0.7c-0.6,0.7-1.5,0.9-2.3,1.4c-2.3-2.4-5-2.7-6.9-0.6
			c-1.5,1.6-1.3,3.2,0.5,4.4c0.7,0.4,1.5,0.7,2.2,1c3.9,1.7,5.4,3.5,5.2,6.3c-0.3,3.9-2.8,6.9-6.5,7.8c-4.3,1.1-7.9-1.2-8.2-5.5
			C708.9,98,708.9,97.8,708.9,97.5z"/>
		<path class="st9" d="M524.7,103.4c-1,0-1.9,0-2.9,0c1.2-7.7,2.4-15.2,3.6-22.9c2.8-0.1,5.4-0.2,8.1,0.5c2.6,0.7,3.8,2.3,3.7,5
			c-0.1,4.2-2.9,7.2-7.2,7.7c-1.1,0.1-2.3,0.2-3.6,0.3C525.7,97.1,525.2,100.3,524.7,103.4z M526.6,91c2,0.3,3.5,0.2,5-0.5
			c1.8-0.9,2.9-2.8,2.5-4.8c-0.2-1.4-1.5-2.2-3.6-2.4c-0.8-0.1-1.7-0.3-2.7,0.1C527.5,85.9,527.1,88.4,526.6,91z"/>
		<path class="st9" d="M702,99.1c-0.2,1.2-0.4,2.2-0.5,3.2c-6.6,3.7-14.5,1.1-16.2-5.3c-1.3-4.7,0.2-8.8,3.4-12.2
			c3.6-3.8,8-5.5,13.3-4.4c1,0.2,2,0.5,2.8,1.3c-0.2,1-0.3,2-0.5,3c-7.3-4-14.8-0.6-16.2,7.1c-1.2,6.5,4.2,11.1,10.5,8.9
			C699.6,100.3,700.7,99.7,702,99.1z"/>
		<path class="st9" d="M602.7,83.2c-1.9,0-3.5,0-5.2,0c-0.3-1,0.1-1.8,0.3-2.7c4.6,0,9.1,0,13.6,0c0.2,0.9,0,1.7-0.3,2.7
			c-1.7,0-3.5,0-5.3,0c-1.1,6.8-2.1,13.4-3.2,20.1c-0.9,0.3-1.8,0.2-3,0.1C600.6,96.7,601.6,90.1,602.7,83.2z"/>
		<path class="st9" d="M676.4,80.5c1,0,1.8,0,3,0c-1.2,7.7-2.4,15.2-3.6,22.8c-1,0.2-1.9,0.1-3,0C674,95.7,675.2,88.2,676.4,80.5z"
			/>
		<path class="st7" d="M762.8,22.1C762.8,22.1,762.9,22.1,762.8,22.1C762.9,22.1,762.8,22.1,762.8,22.1
			C762.7,22.1,762.8,22.1,762.8,22.1z"/>
		<path class="st10" d="M762.8,40.1c-1.4,2.1-2.8,4.2-4.3,6.5c4.4,1,8.8,1.9,13.1,2.8c0,0.1,0,0.2,0,0.4c-4.8,1-9.6,2-14.6,3.1
			c1.7,2.1,3.3,4.1,5,6.1c-0.1,0.1-0.1,0.1-0.2,0.2c-2.3-0.6-4.6-1.2-7.2-1.8c0.5,3,1.1,5.9,1.6,8.7c-0.1,0.1-0.3,0.2-0.4,0.3
			c-1.6-1.9-3.1-3.9-4.9-6.2c-0.9,6.5-1.8,12.7-2.7,18.9c-0.1,0-0.2,0-0.3,0c-0.4-6-0.7-12-1.1-18.5c-2,2.6-3.8,4.8-5.6,7.1
			c-0.1-0.1-0.2-0.1-0.3-0.2c0.8-2.9,1.5-5.9,2.4-9.2c-2.7,1.2-5.1,2.2-7.4,3.2c-0.1-0.1-0.2-0.2-0.2-0.3c1.9-2.3,3.7-4.6,5.8-7.2
			c-5.9-0.8-11.5-1.5-17.1-2.2c0-0.1,0-0.2,0-0.2c5.7-0.9,11.4-1.8,17.4-2.7c-1.9-2.2-3.6-4.3-5.5-6.5c2.7,0.1,5,1.3,7.7,1.7
			c-0.6-3-1.1-5.8-1.7-9.1c2.4,1.8,3.4,4.2,5.5,6.2C748.2,35,749.1,29,750,23c0.1,0,0.2,0,0.3,0c0.4,5.8,0.8,11.6,1.2,17.8
			c1.9-2.5,3.7-4.7,5.5-7c0.1,0.1,0.3,0.1,0.4,0.2c-0.8,2.9-1.5,5.9-2.3,9.1c2.2-1,4.1-1.8,6-2.6C761.6,40.4,762.1,39.8,762.8,40.1
			C762.8,40.1,762.8,40.1,762.8,40.1z"/>
		<path class="st10" d="M762.8,40.1c-0.2-0.2,0-0.2,0.1-0.2C762.9,40,762.8,40,762.8,40.1C762.8,40.1,762.8,40.1,762.8,40.1z"/>
		<path class="st10" d="M761.9,59c0.1,0.1,0.1,0.2,0.2,0.3c-0.1,0-0.2-0.1-0.4-0.1C761.7,59.2,761.8,59.1,761.9,59z"/>
	</g>
</g>
</svg>
