<?xml version="1.0" encoding="utf-8"?>
<!-- Generator: Adobe Illustrator 27.0.0, SVG Export Plug-In . SVG Version: 6.00 Build 0)  -->
<svg version="1.1" id="Layer_1" xmlns="http://www.w3.org/2000/svg" xmlns:xlink="http://www.w3.org/1999/xlink" x="0px" y="0px"
	 viewBox="0 0 1908.5 220" style="enable-background:new 0 0 1908.5 220;" xml:space="preserve">
<style type="text/css">
	.st0{fill:#FEFEFE;}
	.st1{fill:#252122;}
	.st2{fill:#020202;}
	.st3{fill:#D0D1D3;}
	.st4{fill:#040404;}
	.st5{fill:#090909;}
</style>
<g>
	<path class="st0" d="M4.6,181.6c2.6,4.8,7.5,7.6,10.8,11.8c2.3,2.9,3.9,2.6,6.5,0c22.2-22.3,44.5-44.6,66.9-66.7
		c2-2,2.8-4.1,2.8-6.9c-0.1-21.8,0-43.7-0.1-65.5c0-3.2,0.7-4.4,4.1-4.3c5.7,0.3,11.4,0.1,17.1,0.1c0,13.7,0,27.3,0,41.4
		c1.4-1.2,2.4-2.1,3.5-2.9c2,2.1-0.2,5,2,8.1c1.2-1.5,2-2.9,3.1-4.1c16.9-16.9,34-33.7,50.7-50.8c3-3.1,4.5-2.9,7.5,0
		c7.5,7.6,14.6,15.5,22.8,22.3c-0.7,1.2-1.4,2.5-2.2,3.7c-21.1,31.1-32.1,65.3-31.9,103c0,3,0.7,4.4,3.9,3.9c0.9-0.1,1.8,0.1,2.6,0
		c3.4-0.6,4.7,0.5,4.8,4.3c0.5,12.6,1.5,25.3,2.2,37.9c0.1,2.6,1,3.1,3.4,3.1c6.6-0.1,13.2-0.1,19.7,0c1.9,0,3.9,0.3,4.3-2.4
		c0.3-2.5-0.5-4.2-3.1-4.9c-3-0.8-6-1.2-9-1.6c-2.1-0.3-4.9-0.6-4.8-3.4c0.6-10.3,1.6-20.6,4.8-30.5c0.9-2.9,3.2-2.1,5-2
		c2.2,0.2,5-1.4,6.2,2.2c4.5,13.5,11.3,26.2,13.9,40.3c0.3,1.8,1,2.4,2.8,2.4c7-0.1,14-0.1,21.1,0c2.2,0,3.2-0.8,3.5-2.9
		c0.3-2-0.4-3.5-2.4-4c-2.1-0.5-4.3-1.1-6.4-1.3c-5.3-0.5-8.2-4.1-9.4-8.5c-2.3-8.6-3.9-17.3-5.8-26c-0.2-0.8-0.9-2.1,0.3-2.2
		c5.2-0.3,1.9-3.2,1.3-4.6c-10.1-23.2-10.6-46.8-4.2-71c0.7-2.8,1.3-3.7,4-1.5c4.4,3.6,9.6,6,14.9,8c2.9,1.1,7.2-0.5,8.7,2.4
		c1.3,2.8,0.7,6.6,0.9,9.9c0,0.7,0,1.5,0.1,2.2c0.6,5.4,1,10.9,3.7,15.6c2,3.5,2.7,7,2.6,10.8c-0.8,23.1-2.3,46.2-5.3,69.2
		c-0.4,2.6-0.2,3.9,3.1,3.8c6.6-0.3,13.2-0.1,19.7-0.1c2,0,3.4-0.3,3.6-2.7c0.2-2.2-0.4-3.7-2.7-4.2c-1.7-0.4-3.4-0.9-5.1-1.1
		c-2.2-0.2-3-1-2.7-3.3c2.5-16.7,4.8-33.5,7.3-50.6c1.2,1,1.2,2,1.4,3c3.9,18.4,7.9,36.7,11.7,55.1c0.6,3,1.8,4,4.9,3.8
		c6.3-0.3,12.6-0.2,18.9,0c2.2,0,3.6-0.4,4-2.8c0.5-2.7-1-3.7-3.2-4.2c-1.6-0.4-3.2-0.9-4.7-0.9c-4.8,0.1-6.3-2.5-6.9-7
		c-4.1-32.5-8.4-65-12.7-97.4c-0.1-1-0.4-2.1-0.1-3c4.2-10.5,8.5-21,15.3-30.3c1.5-2,2.6-2.2,4.6-0.2c12.1,11.9,24.2,23.7,36.5,35.3
		c2.9,2.7,5.4,5,3.4,9.3c-0.4,0.8-0.1,2,0,3c0.1,1.2,0.6,2.4,2.2,2.1c1.3-0.3,2.6-0.8,2.1-2.6c-0.3-1.3-0.8-2.5,0.8-3.6
		c1.5,1.3,2.8,3,4.6,3.9c3.2,1.7,3.3,4.1,2.7,7.2c-5.5,29.2-10.9,58.3-16.2,87.5c-0.2,1.1-1.9,3.3,1.1,3.7c2.2,0.3,3.6,0.1,4.1-2.9
		c2.4-14.8,5.2-29.5,7.8-44.3c3-17.2,5.5-34.5,9.3-51.5c1.1-5-0.3-7.4-3.3-10.5c-13.6-14.3-26.1-29.5-36.1-46.6
		c-4.4-7.6-8.1-15.5-10-24.1c-0.4-1.7-1.1-3.2,2.2-2.8c11.4,1.7,20.9-6.1,21.9-17.4c0.9-9.8-7.2-19.2-16.9-19.9
		c-11.9-0.8-20.3,6.7-20.8,18.4c-0.1,1.4,0,2.6-1.7,3.5c-25.5,14.1-43.5,34.3-50.9,63c-2.6-0.3-3.6-2.8-5.4-4.2
		c-2.9-2.3-4.6-6-8.5-7.2c0.8-8.4,3.2-16.5,4.6-24.8c0.4-2.2,1.9-2.1,3.5-2.2c8.3-0.5,13.9-4.8,16.8-12.4c2.7-7,0.6-15.5-5.1-20.3
		c-6.4-5.5-13.5-6.2-21.2-3c-1,0.4-1.8,2.2-3.2,0.7c2-2,1.7-3.2-1.1-4c-6.6-2.1-14.1,1.6-16.1,8.1c-2,6.7,1.4,13.3,8.3,15.4
		c-0.2-4.6,0-9,2.4-13c0.5-0.8,0.6-2.4,2.3-1.4c-3,6.5-4.4,13.2-0.8,19.9c0.7,1.3,0.2,1.6-0.9,2.2c-4.7,2.7-8.3,6.8-12.2,10.4
		c-1.4-1.3-2.9-2.5-4.2-3.8c-11.5-11.3-23-22.6-34.5-34c-3.9-5.5-3.9-5.5-8.3-1.1c-10.1,10-20.3,20-30.4,30c-1.6-1.5-1-3.6-0.8-5.3
		c0.4-3.7-1.2-4.9-4.6-4.4c0.8-3.5,0-5-4.3-4.9c-19,0.3-38,0.3-56.9,0c-4-0.1-4.7,1.2-4.7,4.9c0.2,25.5,0,50.9,0.1,76.4
		c0,2.7-0.7,4.6-2.7,6.5c-13,12.8-25.9,25.7-38.8,38.6c-7.6,7.6-15.2,15.3-23,22.8c-2.2,2.1-1.9,3.3,0.2,4.9
		C2.6,180.5,3.2,181.7,4.6,181.6z"/>
	<path class="st1" d="M251.1,85c7.3-28.7,25.4-48.9,50.9-63c1.7-1,1.6-2.1,1.7-3.5c0.5-11.8,8.9-19.2,20.8-18.4
		c9.7,0.7,17.8,10.1,16.9,19.9c-1,11.3-10.5,19.1-21.9,17.4c-3.3-0.5-2.6,1-2.2,2.8c2,8.6,5.6,16.5,10,24.1
		c10,17.1,22.5,32.3,36.1,46.6c3,3.1,4.4,5.5,3.3,10.5c-3.7,17-6.2,34.3-9.3,51.5c-2.6,14.8-5.4,29.5-7.8,44.3
		c-0.5,3-1.9,3.2-4.1,2.9c-3-0.4-1.3-2.6-1.1-3.7c5.3-29.2,10.7-58.4,16.2-87.5c0.6-3.1,0.5-5.5-2.7-7.2c-1.7-0.9-3.1-2.6-4.6-3.9
		c-1.6,1.1-1.1,2.3-0.8,3.6c0.5,1.8-0.8,2.3-2.1,2.6c-1.6,0.3-2-0.8-2.2-2.1c-0.1-1-0.4-2.2,0-3c2.1-4.3-0.5-6.6-3.4-9.3
		c-12.3-11.6-24.4-23.4-36.5-35.3c-2-2-3.1-1.8-4.6,0.2c-6.8,9.2-11.1,19.7-15.3,30.3c-0.3,0.9,0,2,0.1,3
		c4.3,32.5,8.6,64.9,12.7,97.4c0.6,4.5,2.1,7,6.9,7c1.6,0,3.2,0.6,4.7,0.9c2.2,0.5,3.7,1.6,3.2,4.2c-0.4,2.4-1.8,2.9-4,2.8
		c-6.3-0.1-12.6-0.2-18.9,0c-3.1,0.1-4.2-0.8-4.9-3.8c-3.8-18.4-7.8-36.7-11.7-55.1c-0.2-1-0.2-2-1.4-3c-2.4,17.1-4.8,33.8-7.3,50.6
		c-0.3,2.3,0.4,3.1,2.7,3.3c1.7,0.1,3.4,0.7,5.1,1.1c2.3,0.5,2.9,2,2.7,4.2c-0.2,2.4-1.5,2.7-3.6,2.7c-6.6-0.1-13.2-0.2-19.7,0.1
		c-3.2,0.1-3.4-1.1-3.1-3.8c3-23,4.5-46.1,5.3-69.2c0.1-3.9-0.6-7.4-2.6-10.8c-2.7-4.7-3.1-10.2-3.7-15.6c-0.1-0.7-0.1-1.5-0.1-2.2
		c-0.2-3.3,0.5-7.1-0.9-9.9c-1.4-3-5.7-1.3-8.7-2.4c-5.4-2-10.5-4.4-14.9-8c-2.7-2.2-3.2-1.3-4,1.5c-6.3,24.1-5.8,47.8,4.2,71
		c0.6,1.4,3.9,4.3-1.3,4.6c-1.2,0.1-0.5,1.4-0.3,2.2c1.9,8.7,3.5,17.4,5.8,26c1.2,4.4,4.1,8,9.4,8.5c2.2,0.2,4.3,0.7,6.4,1.3
		c2,0.5,2.7,1.9,2.4,4c-0.3,2.1-1.3,2.9-3.5,2.9c-7-0.1-14-0.1-21.1,0c-1.8,0-2.5-0.5-2.8-2.4c-2.6-14.1-9.4-26.8-13.9-40.3
		c-1.2-3.6-4-2-6.2-2.2c-1.8-0.1-4.1-0.9-5,2c-3.2,9.9-4.1,20.2-4.8,30.5c-0.2,2.8,2.7,3.1,4.8,3.4c3,0.4,6.1,0.8,9,1.6
		c2.6,0.7,3.5,2.4,3.1,4.9c-0.4,2.7-2.4,2.4-4.3,2.4c-6.6,0-13.2-0.1-19.7,0c-2.4,0.1-3.2-0.5-3.4-3.1c-0.6-12.6-1.7-25.3-2.2-37.9
		c-0.1-3.7-1.4-4.9-4.8-4.3c-0.9,0.1-1.8-0.1-2.6,0c-3.2,0.5-3.8-0.9-3.9-3.9c-0.3-37.7,10.7-71.9,31.9-103c0.8-1.2,1.5-2.5,2.2-3.7
		c4.1-4.9,8.2-9.9,12.3-14.8c4-3.6,7.5-7.7,12.2-10.4c1.1-0.6,1.5-1,0.9-2.2c-3.5-6.8-2.2-13.4,0.8-19.9l-0.1,0.1
		c1.6-1.7,4.3-2.4,4.4-5.3l-0.1,0.1c1.5,1.5,2.2-0.3,3.2-0.7c7.7-3.2,14.8-2.4,21.2,3c5.6,4.8,7.8,13.3,5.1,20.3
		c-2.9,7.6-8.6,11.9-16.8,12.4c-1.7,0.1-3.2-0.1-3.5,2.2c-1.3,8.3-3.7,16.4-4.6,24.8c-1,2.3-2.3,4.9-1,7c3.2,5.3,7.3,9.6,13.9,11.5
		C250.5,89.6,250.8,87.3,251.1,85z"/>
	<path class="st2" d="M917.8,204c-11.7,0-22.7-0.1-33.7,0.1c-2.8,0.1-3.4-1.6-4.3-3.4c-8.5-16.9-17.1-33.7-25.5-50.6
		c-1.2-2.5-2.7-3.3-5.3-3.2c-5.1,0.2-10.2,0.3-15.3,0c-3.2-0.2-3.8,1-3.8,3.9c0.1,16.3,0,32.7,0.2,49c0,3.4-0.9,4.4-4.3,4.3
		c-7.9-0.3-15.8-0.2-23.7,0c-2.5,0-3.5-0.4-3.5-3.3c0.1-51.5,0.1-102.9,0-154.4c0-2.8,0.9-3.3,3.5-3.3c22.5,0.1,45-0.1,67.6,0.1
		c24.9,0.3,44.5,18.8,46.8,43.8c1.4,15.6-0.8,30.2-11.2,42.7c-4.6,5.5-10.2,9.7-17,11.8c-3.6,1.1-2.8,2.4-1.6,4.8
		c9.9,18.1,19.7,36.3,29.5,54.5C916.6,201.6,917,202.5,917.8,204z M830,94.6c0,6.3,0.1,12.5-0.1,18.8c-0.1,2.5,0.7,3.2,3.2,3.1
		c9.6-0.1,19.3,0,29-0.1c13.5,0,22.5-8.5,22.6-21.3c0.2-12.6-8.5-21.3-21.8-21.6c-9.9-0.2-19.9,0-29.8-0.1c-2.6,0-3.1,0.9-3.1,3.3
		C830.1,82.7,830,88.7,830,94.6z"/>
	<path class="st2" d="M740.9,204c-11.3,0-22.3,0-33.4,0c-2,0-2.3-1.2-2.8-2.7c-2.4-7.2-4.9-14.3-7.2-21.5c-0.7-2.3-1.8-3.1-4.3-3.1
		c-18.7,0.1-37.4,0.1-56.1,0c-2.8,0-3.8,0.9-4.5,3.4c-2.2,7.1-4.8,14-7,21.1c-0.6,1.9-1.4,2.8-3.6,2.7c-10.8-0.1-21.6-0.1-33-0.1
		c2.3-6.5,4.4-12.8,6.6-19C611.7,139,628,93,644,46.9c1.1-3.1,2.5-3.9,5.5-3.8c10.7,0.2,21.3,0.1,32,0c2.1,0,3.3,0.4,4.1,2.7
		C704,97.9,722.3,150,740.6,202C740.8,202.6,740.8,203.1,740.9,204z M665.1,78c-7.7,23.3-15.1,45.6-22.6,68.4
		c11.9,0,23.4,0.1,34.9,0c3.3,0,7.7,1.5,9.5-0.8c1.1-1.5-1.3-5.8-2.3-8.8C678.2,117.6,671.9,98.4,665.1,78z"/>
	<path class="st2" d="M984,123.5c0-25.4,0.1-50.7-0.1-76.1c0-3.4,0.8-4.3,4.3-4.3c31.7,0.1,63.4,0.1,95.2,0c3.3,0,4.6,0.6,4.4,4.2
		c-0.3,7.4-0.3,14.9,0,22.3c0.1,3.5-1.1,4-4.2,4c-21.3-0.1-42.7,0-64-0.2c-3.7,0-4.6,0.9-4.5,4.6c0.3,8.3,0.2,16.6,0,24.9
		c-0.1,3.2,0.6,4.1,4,4.1c21.1-0.2,42.1,0,63.2-0.2c3.3,0,4.2,0.7,4.1,4c-0.3,7.6-0.2,15.2,0,22.7c0.1,3.1-0.9,3.9-3.9,3.9
		c-21.1-0.1-42.1,0-63.2-0.1c-3.1,0-4.3,0.5-4.2,4c0.3,9.3,0.3,18.7,0,28c-0.1,3.9,1.3,4.4,4.7,4.4c21.2-0.2,42.4,0,63.6-0.2
		c3.8,0,4.6,1.1,4.5,4.6c-0.3,7.6-0.2,15.2,0,22.7c0,2.3-0.2,3.3-3,3.3c-32.6-0.1-65.2-0.1-97.8,0c-3.3,0-3-1.6-3-3.7
		C984,174.8,984,149.1,984,123.5z"/>
	<path class="st2" d="M489.1,206.8c-47.8-0.3-80-29.5-84.4-69.6c-2.5-23,0.7-44.7,14-64.2c21.7-31.9,67.4-42.4,98.9-22.8
		c10.9,6.8,18.7,16.5,24.9,27.6c1,1.7,0.5,2.4-1.1,3.3c-7.6,4-15.2,8-22.6,12.3c-2.6,1.5-2.9-0.4-3.8-1.8c-6-10.1-14.3-17.4-26-19.7
		c-14.9-2.9-27.8,1.8-38.2,12.5c-20.3,20.8-19.3,60.1,1.7,80.1c16.1,15.3,46.1,18.7,62.4-8.7c1.4-2.4,2.2-3,4.8-1.5
		c7.1,4,14.3,7.8,21.6,11.5c1.9,1,2.2,1.7,1.1,3.6C529,193.2,509.6,206.9,489.1,206.8z"/>
	<path class="st3" d="M214.6,49.3c-4.1,4.9-8.2,9.9-12.3,14.8c-8.2-6.8-15.3-14.7-22.8-22.3c-2.9-3-4.5-3.1-7.5,0
		c-16.8,17.1-33.8,33.9-50.7,50.8c-1.1,1.1-2,2.5-3.1,4.1c-2.2-3-0.1-6-2-8.1c1.1-1.4,0.8-3,0.8-4.6c0-9.9-0.2-19.8,0.1-29.7
		c0.1-3.6-1.3-4.5-4.4-4.2c-5.7,0-11.4,0.2-17.1-0.1c-3.4-0.2-4.1,1.1-4.1,4.3c0.1,21.8,0,43.7,0.1,65.5c0,2.8-0.8,4.9-2.8,6.9
		c-22.4,22.2-44.7,44.4-66.9,66.7c-2.6,2.6-4.2,2.9-6.5,0c-3.3-4.2-8.2-7-10.8-11.8c1.1-1.2,2.1-2.4,3.2-3.6
		c19.6-19.6,39.2-39.2,58.9-58.6c2.7-2.6,3.9-5.2,3.9-9.1c-0.2-25.3-0.1-50.7-0.1-76c0-2.6,0.4-3.8,3.5-3.7
		c19.3,0.2,38.6,0.1,57.8,0.2c3.4-0.5,5,0.7,4.6,4.4c-0.2,1.7-0.8,3.7,0.8,5.3c-1.5,3-0.5,6.1-0.8,9.1c0.5,0.3,1,0.7,1.5,1
		c12.7-13,25.3-26,38-39c11.5,11.3,23,22.7,34.5,34C211.7,46.9,213.1,48.1,214.6,49.3z"/>
	<path class="st4" d="M1250.1,124.2c10.1,0,20.2,0.1,30.3-0.1c2.9,0,4,0.4,4,3.7c-0.2,16.5-0.1,32.9,0,49.4c0,2.4-0.8,4.1-2.3,5.8
		c-36.8,40.6-102.2,27.9-121.4-24.1c-11.2-30.3-9.2-60.2,9.2-87.7c25.1-37.4,82-42.3,111.8-6.1c1.9,2.3,2.3,3.3-0.4,5.3
		c-6.6,5-6.5,5.1-12.2-0.6c-25.4-25.2-67.4-21.1-88.2,8.6c-19.7,28.1-17.4,71.6,5.6,97c21.5,23.9,58.2,25.9,83.5,1.2
		c1.3-1.3,1.8-2.8,1.8-4.6c-0.1-10.6-0.1-21.3,0-31.9c0-2.9-0.8-3.6-3.6-3.6c-16.1,0.1-32.2,0-48.2,0.1c-3.1,0-3.9-0.8-3.8-3.9
		c0.1-8.6,0-8.6,8.7-8.6C1233.2,124.2,1241.7,124.2,1250.1,124.2z"/>
	<path class="st4" d="M1866.2,136.8c14.2,22.6,28,44.6,42.3,67.3c-5.1,0-9.5-0.1-13.9,0c-2.2,0.1-2.5-1.7-3.3-3
		c-12.5-20.1-25-40.3-37.4-60.5c-1.4-2.3-2.8-3.2-5.5-3.1c-8.5,0.2-17,0.2-25.4,0c-2.8-0.1-3.4,0.8-3.3,3.4c0.1,19.7,0,39.3,0.1,59
		c0,3-0.3,4.3-3.9,4.2c-8.8-0.3-8.8-0.1-8.8-8.9c0-49.1,0-98.2-0.1-147.3c0-3.7,0.6-4.9,4.7-4.8c16.5,0.3,33,0.1,49.6,0.1
		c26,0,44.2,17.3,45.3,43.3c0.5,11.6-1.2,22.6-7.9,32.5c-6.4,9.4-15.4,14.8-26.6,16.9C1870.3,136.1,1868.6,136.4,1866.2,136.8z
		 M1819.6,90.3c0,10.3,0.1,20.7-0.1,31c-0.1,3,0.9,3.6,3.7,3.6c12.4-0.1,24.8,0,37.2-0.1c3.9,0,7.8-0.5,11.6-1.9
		c14.5-5.1,22.9-20,20.9-37.3c-2.1-18.4-14.6-29.6-33.1-29.6c-11.8,0-23.7,0.2-35.5-0.1c-4.2-0.1-5,1.3-4.9,5.1
		C1819.8,70.8,1819.6,80.5,1819.6,90.3z"/>
	<path class="st5" d="M1639.1,123.1c0-25.2,0.1-50.4-0.1-75.6c0-3.4,0.8-4.4,4.3-4.4c28.2,0.2,56.4,0.2,84.6,0c3.6,0,4.4,1,4.3,4.4
		c-0.2,8.6,0,8.6-8.8,8.6c-22.5,0-45,0.1-67.5-0.1c-3,0-4.2,0.3-4.2,3.9c0.2,17.2,0.2,34.4,0,51.6c0,3.1,0.8,3.8,3.8,3.8
		c23.5-0.1,47.1,0,70.6-0.2c3.7,0,4.7,0.9,4.6,4.6c-0.3,8.3-0.1,8.3-8.6,8.3c-22.2,0-44.4,0.1-66.7-0.1c-3.1,0-3.8,0.8-3.8,3.8
		c0.2,18.7,0.2,37.3,0,56c0,3.1,0.9,3.7,3.9,3.7c24-0.1,48,0,71.9-0.2c3.5,0,4.8,0.7,4.7,4.5c-0.3,8.3-0.1,8.3-8.5,8.3
		c-26.9,0-53.8-0.1-80.7,0.1c-3.4,0-4.1-0.9-4.1-4.1C1639.1,174.4,1639.1,148.7,1639.1,123.1z"/>
	<path class="st4" d="M1506.1,187.8c6.4-17.5,12.4-33.8,18.4-50.2c11.1-30.3,22.2-60.5,33.2-90.9c1-2.8,2.3-3.9,5.3-3.6
		c3.4,0.3,6.9,0.1,10.9,0.1c-4.8,12.9-9.5,25.4-14.1,37.9c-14.9,39.7-29.8,79.5-44.5,119.2c-1.1,2.9-2.5,3.8-5.5,3.8
		c-11.7-0.2-11.7-0.1-15.8-11.1c-18.1-48.4-36.2-96.9-54.3-145.3c-1.7-4.5-1.7-4.5,3.4-4.5c9.9,0,9.9,0,13.2,9.1
		c16.1,43.9,32.3,87.8,48.4,131.7C1504.8,184.9,1505.3,185.8,1506.1,187.8z"/>
	<path class="st5" d="M1372.8,124c0,25.4-0.1,50.7,0.1,76.1c0,3.2-0.7,4.1-4,4.1c-8.8-0.2-8.8,0-8.8-8.9c0-49.1,0-98.2-0.1-147.4
		c0-3.8,0.8-5,4.8-4.8c8.1,0.3,8.1,0.1,8.1,8.3C1372.8,75.6,1372.8,99.8,1372.8,124z"/>
	<path class="st5" d="M131.7,30.8c-19.3,0-38.6,0-57.8-0.2c-3.1,0-3.5,1.1-3.5,3.7c0.1,25.3,0,50.7,0.1,76c0,3.8-1.2,6.4-3.9,9.1
		C47,138.9,27.4,158.5,7.8,178.1c-1.1,1.1-2.1,2.4-3.2,3.6c-1.4,0.1-2-1.1-2.9-1.8c-2.1-1.6-2.4-2.8-0.2-4.9
		c7.8-7.5,15.3-15.2,23-22.8c12.9-12.9,25.8-25.8,38.8-38.6c1.9-1.9,2.7-3.8,2.7-6.5c-0.1-25.5,0-51-0.1-76.4c0-3.7,0.7-4.9,4.7-4.9
		c19,0.2,38,0.3,56.9,0C131.7,25.8,132.5,27.2,131.7,30.8z"/>
	<path class="st2" d="M175.8,11.6c-12.7,13-25.3,26-38,39c-0.5-0.3-1-0.7-1.5-1c0.3-3-0.7-6.1,0.8-9.1c10.1-10,20.3-20,30.4-30
		C172,6.1,171.9,6.1,175.8,11.6z"/>
	<path class="st1" d="M228.5,16.8c-1.7-1.1-1.8,0.6-2.3,1.4c-2.4,4-2.6,8.4-2.4,13c-6.9-2.1-10.4-8.7-8.3-15.4
		c2-6.5,9.5-10.3,16.1-8.1c2.8,0.9,3.1,2.1,1.1,4c0,0,0.1-0.1,0.1-0.1C230.4,12.5,227.9,13.4,228.5,16.8L228.5,16.8z"/>
	<path class="st2" d="M112.7,50.1c3.1-0.3,4.5,0.6,4.4,4.2c-0.3,9.9-0.1,19.8-0.1,29.7c0,1.6,0.3,3.2-0.8,4.6
		c-1,0.9-2.1,1.8-3.5,2.9C112.7,77.4,112.7,63.7,112.7,50.1z"/>
	<path class="st3" d="M251.1,85c-0.3,2.3-0.6,4.6-1,7.1c-6.5-1.8-10.7-6.2-13.9-11.5c-1.3-2.1,0-4.8,1-7c3.8,1.2,5.5,5,8.5,7.2
		C247.6,82.2,248.5,84.7,251.1,85z"/>
	<path class="st0" d="M228.4,16.8c-0.5-3.4,2-4.3,4.4-5.3C232.7,14.4,230,15.2,228.4,16.8z"/>
</g>
</svg>
