<?xml version="1.0" encoding="utf-8"?>
<!-- Generator: Adobe Illustrator 27.0.0, SVG Export Plug-In . SVG Version: 6.00 Build 0)  -->
<svg version="1.1" id="Layer_1" xmlns="http://www.w3.org/2000/svg" xmlns:xlink="http://www.w3.org/1999/xlink" x="0px" y="0px"
	 viewBox="0 0 3920.6 1211.9" style="enable-background:new 0 0 3920.6 1211.9;" xml:space="preserve">
<style type="text/css">
	.st0{fill:#FECA0D;}
	.st1{fill:#FEC701;}
</style>
<g id="_x33_80q2B_00000003788181070225249290000004115729041922174654_">
	<g>
		<path class="st0" d="M1875.2,1182.2c6.1-69.5,1.5-139.1,2.6-208.7c0.7-46,0.9-92.1-0.2-138.1c-0.5-22,8-30,29.5-28.6
			c20.8,1.3,41.8-0.7,62.7,0.5c50.3,2.8,81.3,29.5,87.4,78.8c5.2,41.9,6.1,84.6-31.2,115.5c-11,9.1-9.1,18.4-5.1,29.7
			c13,36.7,25.3,73.7,38,110.5c4.5,13.1,10.5,25.9,8.6,40.4c-19.5,0-39,0-58.6,0c-4.9-51.4-27.9-97.7-41-146.7
			c-3.4-12.7-12.2-13.8-22.3-12.7c-14.5,1.5-11.6,13.2-11.6,22.3c-0.3,45.7-0.3,91.5-0.4,137.2
			C1914.3,1182.2,1894.7,1182.2,1875.2,1182.2z M1934,915.8C1934.1,915.8,1934.1,915.8,1934,915.8c0.1,13.9,0,27.8,0.1,41.7
			c0,5.7,1.4,10.8,6.9,13.9c17.9,10.1,53.6-2.6,59.6-22.5c6-20.1,8-40.8,1.2-61.5c-6.8-20.7-28.9-32.9-52.8-29
			c-24.8,4.1-11.9,23.7-14.6,36.6C1932.9,901.6,1934,908.8,1934,915.8z"/>
		<path class="st0" d="M2209.9,1182.2c-48.8-25.5-64.7-66-60.8-120c3.7-51.2,0.6-102.8,0.8-154.2c0.3-65.6,31.9-102.3,87.8-103
			c45.8-0.6,93.8,33.8,90.1,101.6c-2.8,51.3-3.8,103.1,0.3,154.2c4.4,54.4-13.6,93.8-59.6,121.4
			C2248.9,1182.2,2229.4,1182.2,2209.9,1182.2z M2202.7,991.2c0,30.6-0.6,61.2,0.2,91.8c0.7,28.6,12.6,43.9,33.1,44.7
			c22.4,0.9,38-15.6,38.4-44.6c0.8-59.8,0.8-119.7,0-179.5c-0.4-28.7-16.7-46.4-38-45c-20.6,1.3-32.8,16.8-33.5,44.8
			C2202.2,932.7,2202.7,961.9,2202.7,991.2z"/>
		<path class="st0" d="M1632.6,1182.2c0.6-108.7,1.2-217.4,1.8-326.1c0.1-9.8,0.4-19.6-0.1-29.3c-0.7-14.4,6.1-19.9,20-19.8
			c40.4,0.3,80.8,0.4,121.3,0c21.5-0.2,19.8,14.8,20.2,28.8c0.3,13.7-1.6,25.4-19.6,25.2c-19.5-0.3-39.1,0.8-58.5-0.2
			c-18.8-1-30,4.1-27,25.4c0.4,2.7-0.2,5.6,0.1,8.4c1.8,22-9,48.6,4.8,64.8c13.1,15.4,39.4,5.5,59.8,5.4
			c19.2-0.1,27.6,4.9,27.2,25.8c-0.3,18.9-4.9,29.7-25.6,27.9c-1.4-0.1-2.8-0.2-4.2,0c-19.8,3.4-48.7-11.3-57.9,8.2
			c-12,25.6-4.1,57.4-3.3,86.6c0.2,9.1,7.8,10.4,15,10.5c15.3,0.2,30.7,0.2,46,0.2c46.5,0.1,47.1,0.7,41.9,46.1
			c-0.5,4.1-1.9,8.1-2.9,12.2C1738.6,1182.2,1685.6,1182.2,1632.6,1182.2z"/>
		<path class="st0" d="M2469.3,1182.2c-20.4-21.3-48.1-37-53.4-70c-2-12.2-8.7-26.3,2-35.3c11-9.2,26.7-4.1,40.3-3.2
			c11.7,0.7,10,10.9,11,18.9c3,23.3,16.4,34.1,39.8,33.2c25.5-0.9,31.9-18.3,34.3-39.3c4.8-41.9-3.8-56.2-43.7-73.5
			c-3.8-1.7-7.4-4.2-11.3-5.3c-71.2-21-78.7-73.1-66.4-136.7c9-46.2,49-70.4,97.5-65.5c42.9,4.3,75.7,37.8,76.3,79.6
			c0.2,10.8,7,28.5-12.9,28.9c-15.2,0.3-37.6,11.9-40.7-19.2c-1.9-19.3-12.4-34-35.3-33.8c-18,0.1-27.9,9.6-33.2,26.1
			c-8.1,25.3-1.6,50.9,18.7,62.7c13.1,7.6,27.6,13.2,42.1,17.9c42.7,14,60.6,43,62.4,87.8c2,51.4-7.8,95.5-52.1,126.6
			C2519.5,1182.2,2494.4,1182.2,2469.3,1182.2z"/>
		<path class="st0" d="M1348.1,1182.2c25.3-113.9,50.6-227.9,76.2-341.8c2.9-12.7,1.4-28.7,19.5-33.1c20.9-5,33.3,1.6,38.6,24.5
			c19.7,85.3,39.2,170.7,57.4,256.4c6.6,31.1,18.7,61.4,17.4,94c-16.7,0-33.5,0-50.2,0c-3.1-14.9-6.3-29.7-9.2-44.7
			c-7.6-39.3-7.6-37.8-47.6-39.4c-24-0.9-35.8,4.9-36.9,30.9c-0.8,17.6-9.7,34.7-6.7,53.1
			C1387.2,1182.2,1367.6,1182.2,1348.1,1182.2z M1458.6,1047.4c4.8-1.1,21.4,6.2,18.5-12.1c-5.1-32.6-13-64.9-19.9-97.2
			c-0.5-2.5-2.8-6.8-3.8-6.7c-4.8,0.5-3.5,5.3-4.1,8.4c-5.6,28.4-10.7,56.9-16.6,85.2C1428.7,1043.9,1436,1050.9,1458.6,1047.4z"/>
		<path class="st0" d="M2904.4,1182.2c25.5-114,51.3-228,76.4-342.1c4.6-20.8,10.2-37.3,37.1-33.4c11,1.6,17.7,4.4,20.2,16.3
			c25.1,115.6,50.6,231.1,75.8,346.7c0.9,4-0.2,8.3-0.3,12.5c-16.7,0-33.5,0-50.2,0c-3.1-16.2-6.2-32.5-9.3-48.7
			c-6.6-34.7-6.6-34.7-42.3-34.7c-34.6,0-34.8,0-41.4,34.7c-3.1,16.1-10.5,31.7-7.4,48.8C2943.4,1182.2,2923.9,1182.2,2904.4,1182.2
			z M3020.3,1046.6c1.6-0.4,17.7,7.4,13.8-13c-5.9-31.1-12-62.3-18.4-93.3c-0.7-3.6-4.5-6.5-6.9-9.7c-1.1,3.7-2.4,7.3-3.1,11.1
			c-5.3,27.1-9.7,54.3-15.8,81.2C2985,1043.9,2992.4,1051.5,3020.3,1046.6z"/>
		<path class="st0" d="M3456.6,1182.2c-0.3-114.2-0.7-228.5-0.6-342.7c0-31.7,0.7-32,32.1-32.3c34.8-0.4,69.6,0.9,104.4-0.4
			c23.4-0.9,22.6,13,23.1,29.5c0.6,17.5-4.7,26.7-23.3,24.8c-4.1-0.4-8.4-0.4-12.5,0c-21.6,2.2-51.7-10.3-63.1,7.4
			c-14.5,22.4-4,54-4.7,81.7c-0.3,10.4,6.3,14.7,15.9,14.8c15.3,0.2,30.7,1.3,45.9,0.1c19.8-1.6,26.8,5.6,27,25.9
			c0.2,20.9-8,25.2-27.1,25.8c-62.4,1.8-62.4,2.6-62.1,65.3c0.2,45.7-3.4,41.8,43.5,42c60.1,0.3,60.1,0.2,60.5,58.3
			C3562.6,1182.2,3509.6,1182.2,3456.6,1182.2z"/>
		<path class="st0" d="M2686.8,1182.2c0-114.2-0.1-228.4,0.2-342.6c0.1-31.8,0.6-32,31.8-32.5c18.1-0.3,36.2-0.9,54.3,0.2
			c47.4,2.9,73.1,25.9,83.8,72.3c5.7,24.9,5.8,50,2.1,74.7c-7.3,50.1-30.2,71.4-81.5,79c-34.8,5.2-35.7,5.2-35,40.9
			c0.7,36-4.3,72.2,2.9,108C2725.9,1182.2,2706.3,1182.2,2686.8,1182.2z M2739.5,922.6c0,8.3-1,16.8,0.2,24.9
			c2,13.1-8.7,32.2,16.7,35c26.9,3,42.9-4.1,49.5-26.3c6.8-23,6.7-46.7-0.1-69.7c-6.5-21.7-25.2-31.3-48.7-28.3
			c-24.2,3.1-16.2,21.5-17.4,35.3C2738.8,903.1,2739.5,912.9,2739.5,922.6z"/>
		<path class="st0" d="M3239,1182.2c-42.2-30.4-53.3-72-50.1-122.6c3.5-56.9-0.4-114.3,1.2-171.4c1.4-51.9,38.2-84.5,89.9-83.1
			c47.5,1.3,83.1,38.4,83.4,86.7c0.1,11.7,0.1,25.1-15.9,22.4c-13.9-2.3-35.9,13.4-40.2-14.7c-1.3-8.2-1.4-16.4-5.8-24
			c-7.5-12.9-19.1-15.5-32.2-13.7c-12.4,1.6-19.8,9.2-21.9,21.7c-0.7,4.1-1.4,8.3-1.5,12.4c-0.1,65.5-1.1,131.1,0.2,196.5
			c0.6,29.5,26.1,43,48.4,28.1c10.6-7.1,11.9-17.8,12.6-29.3c1.9-31.7,26.4-17,41.1-18.1c19.8-1.5,15.4,15.9,14.7,27.4
			c-1.4,24.9-13.8,44.5-31.8,61.4c-7.9,7.5-20.6,8.8-25.2,20.2C3283.7,1182.2,3261.3,1182.2,3239,1182.2z"/>
		<path class="st0" d="M2511,570.2c448.9,0,897.8,0,1346.7,0c9.8,0,19.5-0.2,29.3,0c26.9,0.6,41.5,26,29.1,50.1
			c-2.9,5.6-7.5,7.7-13.3,7.8c-11.1,0.2-22.3,0.3-33.5,0.3c-904.8,0-1809.6,0-2714.4,0c-5.6,0-11.2,0.1-16.7,0
			c-29.8-0.6-42.8-20.5-32.1-48.5c3.2-8.3,9.3-9.3,16.2-9.5c11.1-0.3,22.3-0.2,33.5-0.2C1607.6,570.2,2059.3,570.2,2511,570.2z"/>
		<path class="st0" d="M2546.8,248.4c0-30.7-0.7-61.4,0.1-92.1c1.5-56.4,38.7-95.2,90.2-95.1c52,0.1,89.2,38,90.2,94.7
			c1.1,64.2,1.2,128.4-0.1,192.5c-1.1,54.8-36.9,89.4-89.5,89.5c-51.7,0.1-88.2-34.9-90.6-89.1
			C2545.6,315.4,2546.9,281.9,2546.8,248.4z M2671.5,252.6c0-30.6,0.6-61.2-0.2-91.8c-0.7-30-11.2-42.7-33.5-43
			c-22.3-0.4-34.7,13-35,41.6c-0.7,61.2-0.7,122.4,0,183.6c0.3,27.8,14,42.4,35.6,41.5c20-0.8,32-14.3,32.8-40.1
			C2672.1,313.8,2671.4,283.2,2671.5,252.6z"/>
		<path class="st1" d="M2276.1,248.9c0-33.4-1-66.8,0.2-100.1c1.9-50.2,39.8-87,87.9-87.4c48.2-0.3,87.4,36.2,88.5,86.5
			c1.6,69.5,1.7,139.1-0.2,208.6c-1.3,49.1-37.9,81.1-87.4,81.2c-49.7,0.2-85-31.7-88.8-80.3c-0.2-2.8-0.3-5.6-0.3-8.3
			C2276,315.7,2276,282.3,2276.1,248.9C2276.1,248.9,2276.1,248.9,2276.1,248.9z M2400.9,248.4c0-29.2,0.6-58.5-0.2-87.7
			c-0.8-30.8-13.6-44.5-38.1-43.2c-22.5,1.1-33.5,13.9-33.8,43.3c-0.7,59.8-0.7,119.7,0,179.5c0.4,28.3,12.9,43.3,33.8,44.6
			c22,1.4,37.2-15.4,38-44.6C2401.6,309.7,2400.9,279,2400.9,248.4z"/>
		<path class="st0" d="M2939.8,332.5c6.4-34.2-9.8-53.3-40.9-62.6c-5.3-1.6-10.2-4.4-15.3-6.6c-64.7-27.6-88.4-96.3-54.5-157.7
			c19.4-35.1,60.3-51.8,100.2-40.9c41.7,11.5,67.4,44.1,66.9,84.8c-0.1,11.1,2,24.7-14.6,24.1c-14.9-0.6-35.2,9.3-41.1-16
			c-1.9-8.1-2.4-16.9-6.3-23.9c-10.9-19.5-38.3-22-53.3-5.6c-20.9,22.8-12.6,68.5,15.6,81.9c16.3,7.7,33.9,12.6,50.3,20.2
			c28.8,13.3,46.2,35.7,48.3,67.9c1.8,29.2,4.1,58.6-6.9,86.8c-16.3,41.8-51.1,59.6-102,52.1c-38.6-5.7-71-40.6-72.9-80
			c-0.6-11.5-5-28.7,15-27.3c15,1,36.3-12.4,41.5,19.2c5.7,34.8,37.3,46.6,59.9,26.4C2943.2,363.2,2938.5,347,2939.8,332.5z"/>
		<path class="st1" d="M2007.1,248.4c0-47.4-0.5-94.9,0.2-142.3c0.3-17.5-8.8-41.4,25.2-39.6c27.1,1.4,27.2-0.1,27.4,41.4
			c0.1,30.7,1,61.4-0.2,92.1c-1,24.7,15,22.7,30.4,21.8c15.1-0.9,35.7,7.2,35.1-21.4c-0.7-34.9,0.7-69.8-0.4-104.6
			c-0.7-20.5,4.4-29.3,27.4-29.8c25.8-0.5,25.6,13.3,25.5,31.5c-0.3,101.8-0.4,203.7,0.1,305.5c0.1,20,0.1,33.8-27.6,33.8
			c-30.6,0-25-18.7-25.1-36.1c-0.2-34.9-1.8-69.9,0.4-104.6c1.9-30.3-17.3-25.1-35.2-25.8c-18.6-0.8-32.3,0.1-31,25.8
			c2,37.6-0.2,75.3,0.8,113c0.5,18.8-3.9,27.4-25.3,27.6c-22.5,0.2-28.6-7.9-28.2-29.1C2007.9,354.4,2007.1,301.4,2007.1,248.4z"/>
		<path class="st0" d="M3084.1,250.4c0-53,0.5-106-0.3-159c-0.3-19.1,5.3-28.1,26-27.5c37.6,1.1,75.2,0.8,112.8,0.2
			c21.9-0.3,23.6,12.3,23.8,29.8c0.2,18.3-6.5,24.9-24.5,24c-20.8-1.1-41.8,0.1-62.7-0.3c-13.9-0.3-20.3,5.2-19.8,19.6
			c0.8,25.1-7.1,54,3,74.2c11.4,23,42.9,8.6,65.2,9.4c22.9,0.9,23.2,12.6,23.5,29.6c0.3,17.1-3.9,27.1-23,25.2
			c-5.5-0.5-11.1-0.1-16.7-0.1c-51.9,0.4-52.2,0.4-51.8,54.5c0.5,55.4-8.1,49.3,47.9,49.9c8.4,0.1,16.7-0.1,25.1,0
			c32.7,0.6,38.1,7.6,33.7,39.5c-1.7,12.4-7.4,16.6-19,16.5c-39-0.2-78.1-1.1-117,0.4c-21,0.8-26.6-8.4-26.4-27.1
			C3084.4,356.4,3084.1,303.4,3084.1,250.4z"/>
		<path class="st0" d="M1740.6,250.6c0-34.8-1-69.7,0.2-104.4c1.7-51.9,38.8-86.8,88.5-85c48.3,1.8,84.8,41.5,84.6,91.1
			c-0.1,12.1-4.6,19.6-16.7,17.9c-13.3-1.8-31.5,9.5-38.5-11.9c-2.1-6.5-1.2-14.1-3.9-20.3c-6-14-16.8-21.5-32.9-20.4
			c-15.2,1.1-21.9,10.7-25,23.8c-1.9,8-3.4,16.4-3.4,24.6c-0.3,55.7-0.2,111.4-0.1,167.1c0,6.9,0.6,13.9,1.8,20.7
			c2.9,16.3,10.4,30.2,28.9,30.1c18.6-0.2,34-10.2,33.1-30c-1.4-29.5,17.1-25.2,35.2-25.7c16.9-0.4,21.8,7.9,21.4,23
			c-1,46.8-38.4,85.4-84.5,86.5c-53.6,1.4-86.7-28.9-88.5-82.8C1739.7,320.3,1740.6,285.4,1740.6,250.6z"/>
		<path class="st1" d="M981.7,861.7c-3.2,2.4-2.4,6.3-3.2,9.5c-6.6,27.4-20.9,49.8-42.9,67.1c-67.3,52.9-135.2,105.1-202.1,158.3
			c-45.9,36.5-112.4,20.3-136-31.7c-11.2-24.8-17.9-51-23.8-77.3c-12.2-54.7-20.3-110-26.8-165.6c-4.8-41.2-8.7-82.6-11.6-124
			c-1.2-17-0.8-34-2.5-50.9c-1-9.3,0.1-9.9,9.1-7.3c66.8,19.8,133.7,39.5,200.5,59.3c13,3.8,11.3,3.1,10.6-8.2
			c-1.4-21.4-1.6-21.3-20.5-32.1c-63.9-36.4-127.8-72.9-191.8-109.1c-5.2-2.9-6.9-6.2-6.4-11.9c2-23.8,3.6-47.7,3.2-71.7
			c-1.3-78.3-14.5-154.5-42.6-227.8c-0.3-0.9-0.4-1.9-0.9-2.7c-0.8-1.7-1.6-4.5-2.7-4.6c-3-0.3-2.7,3-3.3,4.8
			c-12.9,34.9-22.4,70.7-29.3,107.2c-10.5,55.2-14.4,111-12.8,167.2c0.3,8.8,0.3,17.7,1.3,26.4c0.7,6.9-1.6,10.7-7.7,14.1
			c-34,19-67.8,38.4-101.7,57.7c-33.3,19-66.6,38-100.1,56.8c-4.9,2.7-7.4,6.1-7.5,11.9c-0.1,6.3-1,12.5-1.9,18.8
			c-0.7,4.9,1.1,6.3,5.7,4.9c9-2.7,18.1-5.3,27.1-8c59.3-17.6,118.6-35.1,177.9-52.7c1.2-0.4,2.4-0.9,3.6-1.2
			c5.9-1.3,6.5-1.2,6.3,5.3c-0.5,18.2-1.1,36.5-2.3,54.7c-1.2,19.5-3.1,38.9-4.8,58.3c-3.2,36.7-7.6,73.2-12.6,109.6
			c-5.3,38.6-11.5,77.1-19.8,115.2c-5.7,26.4-12.2,52.7-22.7,77.7c-15,36-46.9,57.6-84.5,56.8c-19.5-0.4-36.9-6.9-52.3-18.9
			c-68.2-53.3-136.5-106.5-204.3-160.1C14.9,913.5,0.1,881,0,842.3c-0.1-18.2,4.9-35.5,13.7-51.5c84-152.3,168.1-304.5,252.1-456.8
			c54.7-99.1,109.3-198.3,164-297.5C443,12.6,463.6,0.1,490.5,0c26.9-0.1,47.7,11.9,61,35.9c38.5,69.6,76.9,139.3,115.4,209
			c58.8,106.6,117.7,213.1,176.5,319.7c38.7,70.2,77.3,140.5,116.1,210.7c7.9,14.3,16,28.5,19.7,44.7c0.7,3.2-0.5,7.1,2.6,9.6
			C981.7,840.3,981.7,851,981.7,861.7z"/>
		<path class="st0" d="M496.1,979.1c0,65.5,0,131.1,0,196.6c0,5-0.2,9.4,4.6,13.4c6,5.1,5.1,14-0.5,19.2c-5.1,4.8-13.8,4.7-18.9-0.1
			c-5.4-5.1-6.2-14.2-0.3-19.4c4.2-3.7,4.6-7.6,4.6-12.4c0-128.2,0-256.4,0-384.7c0-1.6,0.1-3.2-0.1-4.7c-0.1-1.4,0.4-3.1-1.4-3.9
			c-0.3,1.2-0.8,2.3-0.9,3.5c-1.3,16-2.6,32-3.9,48c-3,35.4-6.1,70.8-9.1,106.3c-2.1,25.4-4.1,50.8-6.2,76.2
			c-2.3,27.6-4.9,55.2-7.1,82.7c-0.3,4-2,6.1-5.1,8.3c-15.7,11-31.2,22.3-46.8,33.5c-3.8,2.7-7.1,5-7.3,10.9
			c-0.2,7.5-8.5,12.6-15.7,11.3c-7-1.3-12.4-8.4-11.5-15.1c1-7.9,8.5-14.3,16.1-12.2c5.1,1.4,8.2,0.1,11.9-2.6
			c14.3-10.3,28.6-20.6,43-30.7c3.8-2.7,5.7-5.6,6.1-10.7c3.3-41.7,7.1-83.4,10.7-125.1c2.2-26,4.1-52.1,6.3-78.1
			c2.8-33.2,5.9-66.4,8.8-99.7c2.2-25.4,4.1-50.8,6.2-76.2c2-24.5,4.1-48.9,6-73.4c0.3-4.1,1.7-5.3,5.7-5.4c4.6-0.1,4.8,2.4,5,5.9
			c3.8,48.6,7.7,97.2,11.7,145.8c3.1,37.3,6.2,74.6,9.4,111.9c4.1,48.6,8.4,97.2,12.5,145.7c1.4,16.3,2.9,32.6,3.9,48.9
			c0.3,4.6,1.8,7.4,5.6,10c14.7,10.2,29.3,20.7,43.8,31.2c3.4,2.5,6.3,3.8,11.1,2.4c7.5-2.2,14.4,3.2,15.8,10.9
			c1.5,7.6-3.3,14.8-10.7,16.3c-7.2,1.5-15.3-3.5-15.9-11.1c-0.4-5.6-3.2-8.3-7.2-11.1c-15.4-10.9-30.7-21.9-46.2-32.7
			c-3.6-2.5-5.6-5.3-5.9-9.9c-1.4-18.5-3.2-37-4.8-55.5c-3.1-36-6.1-72.1-9.1-108.2c-2.1-26-4.2-52.1-6.2-78.1
			c-2.1-27-5.1-53.9-6.3-80.9c0-1.1-0.4-2.2-0.5-3.3c-0.2,1.2-0.5,2.5-0.5,3.7c-0.2,4.7-0.4,9.4-0.4,14.2
			C496.1,853.7,496.1,916.4,496.1,979.1z"/>
	</g>
</g>
</svg>
