<?xml version="1.0" encoding="UTF-8"?>
<svg id="Layer_1" data-name="Layer 1" xmlns="http://www.w3.org/2000/svg" xmlns:xlink="http://www.w3.org/1999/xlink" version="1.1" viewBox="0 0 312.6 67.2">
  <defs>
    <style>
      .cls-1 {
        fill: url(#linear-gradient);
      }

      .cls-1, .cls-2, .cls-3 {
        stroke-width: 0px;
      }

      .cls-2 {
        fill: url(#linear-gradient-2);
      }

      .cls-3 {
        fill: #231f20;
      }
    </style>
    <linearGradient id="linear-gradient" x1="20.6" y1="73.8" x2="20.6" y2="4" gradientTransform="translate(0 70) scale(1 -1)" gradientUnits="userSpaceOnUse">
      <stop offset="0" stop-color="#6d0ff2"/>
      <stop offset="1" stop-color="#8130f2"/>
    </linearGradient>
    <linearGradient id="linear-gradient-2" x1="38.7" y1="73.8" x2="38.7" y2="4" gradientTransform="translate(0 70) scale(1 -1)" gradientUnits="userSpaceOnUse">
      <stop offset="0" stop-color="#6d0ff2"/>
      <stop offset="1" stop-color="#8130f2"/>
    </linearGradient>
  </defs>
  <g>
    <path class="cls-3" d="M94.2,51.1c-4.9,0-8.8-1-11.7-3-2.9-2-4.5-4.7-4.8-8.2h8.8c.2,1.5,1,2.6,2.3,3.4,1.3.8,3.1,1.2,5.4,1.2s3.6-.3,4.5-.9,1.4-1.4,1.4-2.5-.3-1.5-.8-1.9c-.6-.5-1.6-.8-3-1.2l-5.4-1.1c-4-.8-6.9-2.1-8.8-3.8-1.9-1.7-2.8-3.9-2.8-6.6s1.2-5.8,3.8-7.6c2.5-1.8,6-2.7,10.5-2.7s8,.9,10.6,2.7,4.1,4.2,4.3,7.4h-8.8c-.2-1.1-.8-2-1.8-2.6-1.1-.6-2.6-.9-4.5-.9s-3.1.2-3.9.8c-.9.5-1.3,1.2-1.3,2.1s.3,1.4,1.1,1.9c.7.5,1.9.9,3.5,1.2l6.1,1.2c3.4.7,5.9,2,7.7,3.9,1.7,1.9,2.6,4.2,2.6,6.8s-1.3,5.9-3.9,7.7c-2.6,1.8-6.2,2.7-10.9,2.7Z"/>
    <path class="cls-3" d="M113.1,50.4V3h9.9v47.5h-9.9ZM134.7,50.4l-14-17.5,13.6-16.1h11.4l-16,17.7.5-3.1,16.2,19.1h-11.7Z"/>
    <path class="cls-3" d="M148.7,12.3V1.6h10.6v10.7s-10.6,0-10.6,0ZM149.1,50.4V16.8h9.9v33.6h-9.9Z"/>
    <path class="cls-3" d="M166.1,50.4V3h9.9v47.5h-9.9Z"/>
    <path class="cls-3" d="M183.2,50.4V16.8h9.7v7.9h.2v25.7h-9.9ZM193.1,32.9l-.9-8c.8-2.9,2.1-5,3.9-6.5,1.8-1.5,4-2.2,6.7-2.2s1.4,0,1.9.3v9.2c-.2,0-.5-.1-.9-.2-.4,0-.9,0-1.4,0-3.2,0-5.5.6-7,1.7s-2.2,3.1-2.2,5.8Z"/>
    <path class="cls-3" d="M224,51.1c-3.7,0-7-.7-9.8-2.2-2.8-1.5-4.9-3.5-6.4-6.2-1.5-2.6-2.3-5.7-2.3-9.1s.8-6.5,2.3-9.1,3.6-4.7,6.4-6.1c2.7-1.5,5.9-2.2,9.5-2.2s6.5.7,9,2.1,4.5,3.4,5.9,5.9c1.4,2.5,2.1,5.5,2.1,8.8s0,1.3,0,1.9c0,.6-.1,1.2-.2,1.7h-29.1v-6.5h21.2l-1.7,1.2c0-2.7-.6-4.7-1.9-6-1.3-1.3-3.1-1.9-5.3-1.9s-4.6.9-6,2.6-2.1,4.4-2.1,7.9.7,6,2.1,7.7c1.4,1.7,3.6,2.5,6.4,2.5s2.9-.3,4.1-.8c1.1-.5,2-1.4,2.6-2.6h9.3c-1.1,3.2-3,5.8-5.6,7.7-2.6,1.9-6.1,2.8-10.2,2.8Z"/>
    <path class="cls-3" d="M269.6,50.4v-7.5h.7c-.4,2.5-1.8,4.5-3.9,5.9-2.2,1.5-4.8,2.2-7.8,2.2s-5.8-.7-8-2.1-4-3.4-5.2-6c-1.2-2.6-1.9-5.7-1.9-9.2s.6-6.7,1.9-9.3,3.1-4.7,5.4-6.1c2.3-1.5,5-2.2,8.1-2.2s5.8.8,7.8,2.2c2,1.5,3.2,3.5,3.5,6.1h-.7c0,0,0-21.5,0-21.5h9.9v47.5h-9.7ZM261.7,43.2c2.3,0,4.2-.8,5.7-2.5s2.2-4,2.2-7.1-.7-5.4-2.2-7.1-3.4-2.5-5.8-2.5-4.2.8-5.6,2.5c-1.5,1.7-2.2,4-2.2,7.1s.7,5.4,2.2,7c1.5,1.6,3.4,2.5,5.8,2.5Z"/>
    <path class="cls-3" d="M286.2,12.3V1.6h10.5v10.7s-10.5,0-10.5,0ZM286.5,50.4V16.8h9.9v33.6h-9.9Z"/>
  </g>
  <path class="cls-1" d="M41.3,28s0,0,0,0l-28.1,19h0v-23.4s0,0,0,0l13.8-9.3s0,0,0,0V5.2s0,0,0,0L20.6,0h0L0,16.8s0,0,0,0v33.6s0,0,0,0l20.6,16.8h0l6.6-5.4s0,0,0,0v-13.1s0,0,0,0l14.1-9.5s0,0,0,0v-11.2h0Z"/>
  <path class="cls-2" d="M38.5,0h0l-6.3,5.2s0,0,0,0v11.8s0,0,0,0l-13.8,9.3s0,0,0,0v10.8s0,0,0,0l28.1-19h0v23.8s0,0,0,0l-14.1,9.5s0,0,0,0v10.8s0,0,0,0l6.1,5h0l20.6-16.8s0,0,0,0V16.8s0,0,0,0L38.5,0Z"/>
  <g>
    <path class="cls-3" d="M302.9,7.3V2.6h-1.9v-.9h4.9v.9h-1.9v4.7h-1.2Z"/>
    <path class="cls-3" d="M306.4,7.3V1.6h1.9l1.6,5.4h-.7l1.6-5.4h1.9v5.7h-1.2V2h.2l-1.5,5.3h-1.2l-1.5-5.3h.2v5.3h-1.1Z"/>
  </g>
</svg>