<?xml version="1.0" encoding="utf-8"?>
<!-- Generator: Adobe Illustrator 27.0.0, SVG Export Plug-In . SVG Version: 6.00 Build 0)  -->
<svg version="1.1" id="Layer_1" xmlns="http://www.w3.org/2000/svg" xmlns:xlink="http://www.w3.org/1999/xlink" x="0px" y="0px"
	 viewBox="0 0 1061.6 245.6" style="enable-background:new 0 0 1061.6 245.6;" xml:space="preserve">
<style type="text/css">
	.st0{fill:#FDFDFD;}
	.st1{fill:#0273D0;}
	.st2{fill:#FC5526;}
	.st3{fill:#16294D;}
	.st4{fill:#FC9D07;}
	.st5{fill:#66CCCA;}
</style>
<g>
	<path class="st0" d="M208.1,123c0,3.2,0,6.3,0,9.5c0,35.8,0,71.7,0,107.5c0,5.4,0,5.3,5.6,5.1c5.5-0.2,11-0.1,16.5-0.1
		c3.8,0,7.7-0.2,11.5,0c3.1,0.1,4.2-1.2,3.9-4.1c-0.1-0.8,0-1.7,0-2.5c0-77,0-154,0-231c0-1.5,0-3-0.2-4.5c-0.2-1.8-1-2.9-3.2-2.9
		c-10.2,0.1-20.3,0.1-30.5,0c-2.6,0-3.7,1-3.6,3.5c0,1.2,0,2.3,0,3.5C208.1,45.7,208.1,84.4,208.1,123z M96.9,0.1
		C96.9,0,96.9,0,96.9,0.1c-30.5,0-61,0-91.4,0C4.6,0,3.8,0.1,3,0C1.1-0.2,0.2,0.7,0.2,2.6c0,10.7,0,21.3,0,32c0,2.4,1,3.3,3.3,3.2
		c1-0.1,2,0,3,0c59.6,0,119.2,0,178.9,0c1.7,0,3.3-0.1,5,0c2,0.1,3.2-0.6,3.2-2.8c-0.1-10.1,0-20.3-0.3-30.4c-0.1-4.5-0.5-4.5-5-4.5
		C157.8,0.1,127.4,0.1,96.9,0.1z M193.2,135.3c0.1,0,0.1,0,0.2,0c0-26.5,0-52.9,0-79.4c0-1.9,0-3.3-2.5-3.2c-10.7,0-21.3,0-32,0
		c-1.6,0-2.5,0.4-2.4,2.2c0.1,1.2,0,2.3,0,3.5c0,47.8,0,95.6,0,143.4c0,4.3,0.1,8.7,0,13c-0.1,2.5,0.8,3.1,3.2,3
		c10.2-0.1,20.3-0.2,30.5,0c2.9,0.1,3.4-1.3,3.3-3.6c-0.1-2.8-0.3-5.6-0.3-8.5C193.2,182.3,193.2,158.8,193.2,135.3z M104.2,174.8
		C104.2,174.8,104.2,174.8,104.2,174.8c0,21.8,0.1,43.6-0.1,65.4c0,3.4,0.9,4.7,4.3,4.8c4.4,0.2,8.9-0.3,13.4,0.2
		c5.4,0.6,11,0.1,16.5,0.2c2.7,0.1,3.6-1.2,3.4-3.7c-0.1-1.2,0-2.3,0-3.5c0-37.8,0-75.6,0-113.4c0-5.5-0.1-11,0-16.5
		c0.1-3.3-1.2-4.3-4.4-4.3c-9.2,0.2-18.3,0-27.5,0c-5.2,0-5.5,0.3-5.5,5.7C104.2,131.6,104.2,153.2,104.2,174.8z M84.3,89.7
		C84.3,89.7,84.3,89.7,84.3,89.7c17.6,0,35.3-0.1,52.9,0.1c3,0,4.1-0.6,4.1-3.8c-0.2-10-0.2-20,0-30c0-2.7-0.8-3.3-3.4-3.3
		c-35.5,0.1-70.9,0.1-106.4,0c-2.9,0-3.6,0.9-3.6,3.7c0.1,9.5,0,19,0,28.5c0,4.9,0,4.9,4.9,4.9C50,89.7,67.2,89.7,84.3,89.7z
		 M45,141.7C45,141.7,45,141.7,45,141.7c5.7,0,11.3,0,17,0c7.7,0,15.3,0.1,23-0.1c4.2-0.1,4.7-0.6,4.7-4.6c0-9.3,0-18.7,0-28
		c0-3.8-1-4.8-4.7-4.6c-14.1,0.8-28.3,0.4-42.4,0.3c-12.1-0.1-24.3,0.8-36.4-0.6c-4.8-0.6-6.8,1.8-5.9,6.6c0.5,2.7,0.5,5.3,0.6,7.9
		c0,5.6-0.1,11.3-0.6,16.9c-0.5,5.3,0.5,6.1,5.9,6.1C19,141.7,32,141.7,45,141.7z M37.7,214.2c0-8.8,0-17.7,0-26.5
		c0-4-0.7-4.6-4.6-4.5c-1.5,0.1-3,0.7-4.4,0.5c-7.8-1.1-15.6-0.4-23.4-0.4c-4.7,0-5,0.4-5,5.2c0,16.2,0,32.3,0,48.5
		c0,8.1,0,8.1,8.2,8c0.3,0,0.7,0,1,0c8.1,1,16.2-0.4,24.3,0.3c2.4,0.2,4.2-0.7,4.1-4.1C37.5,232.2,37.7,223.2,37.7,214.2z
		 M52.6,187.1c0,8.8,0,17.6,0,26.5c0,4.2,0,4.2,4.4,4.2c8.5,0,17,0,25.5,0c7,0,7.1,0,7.1-7.3c0-15.8,0-31.6,0-47.4
		c0-1.3-0.3-2.6-0.3-4c0-2.3-1-3-3.4-3c-9.8,0.1-19.6,0.2-29.4,0c-3.1,0-4,1-3.9,4C52.7,169.1,52.6,178.1,52.6,187.1z"/>
	<path class="st1" d="M208.1,123c0-38.7,0-77.3,0-116c0-1.2,0-2.3,0-3.5c0-2.5,1-3.5,3.6-3.5c10.2,0.1,20.3,0.1,30.5,0
		c2.2,0,3,1,3.2,2.9c0.2,1.5,0.2,3,0.2,4.5c0,77,0,154,0,231c0,0.8-0.1,1.7,0,2.5c0.4,3-0.7,4.3-3.9,4.1c-3.8-0.2-7.7,0-11.5,0
		c-5.5,0-11-0.1-16.5,0.1c-5.6,0.2-5.6,0.3-5.6-5.1c0-35.8,0-71.7,0-107.5C208.1,129.4,208.1,126.2,208.1,123z"/>
	<path class="st2" d="M96.9,0.1c30.5,0,61,0,91.4,0c4.5,0,4.8,0,5,4.5c0.3,10.1,0.2,20.3,0.3,30.4c0,2.2-1.1,2.9-3.2,2.8
		c-1.7-0.1-3.3,0-5,0c-59.6,0-119.2,0-178.9,0c-1,0-2-0.1-3,0c-2.3,0.2-3.4-0.8-3.3-3.2c0-10.7,0-21.3,0-32C0.2,0.7,1.1-0.2,3,0
		c0.8,0.1,1.7,0,2.5,0C35.9,0,66.4,0,96.9,0.1C96.9,0,96.9,0,96.9,0.1z"/>
	<path class="st3" d="M193.2,135.3c0,23.5,0,47,0,70.4c0,2.8,0.2,5.6,0.3,8.5c0.1,2.3-0.4,3.6-3.3,3.6c-10.2-0.2-20.3-0.1-30.5,0
		c-2.3,0-3.3-0.6-3.2-3c0.2-4.3,0-8.7,0-13c0-47.8,0-95.6,0-143.4c0-1.2,0.1-2.3,0-3.5c-0.1-1.8,0.8-2.2,2.4-2.2
		c10.7,0,21.3,0.1,32,0c2.5,0,2.5,1.3,2.5,3.2c-0.1,26.5,0,52.9,0,79.4C193.3,135.3,193.3,135.3,193.2,135.3z"/>
	<path class="st3" d="M962.8,93.9c0-17.8,0.1-35.6-0.1-53.4c0-3.3,0.8-4.3,4.1-4.2c17.5,0.2,34.9,0,52.4,0.2
		c20.6,0.2,34.5,13.2,39.3,32.2c4.3,17.4,4,34.9-0.8,52.2c-2.8,10-8,18.3-16.9,24.1c-5.8,3.8-12.3,5.8-19.2,5.9
		c-18.5,0.2-37,0.1-55.4,0.2c-2.9,0-3.5-0.9-3.5-3.7C962.9,129.5,962.8,111.7,962.8,93.9C962.8,93.9,962.8,93.9,962.8,93.9z
		 M981.2,93.6C981.2,93.6,981.2,93.6,981.2,93.6c0,12,0,24,0,35.9c0,4.3,0.1,4.3,4.5,4.3c9,0,18,0.1,27-0.1
		c15-0.3,24.6-8.4,27.3-23.2c1.9-10.2,2-20.5,0.8-30.8c-2-17.2-12.8-26.8-29.7-26.2c-8.3,0.3-16.6,0-25,0.1c-4.8,0-4.8,0-4.8,5
		C981.2,70.3,981.2,81.9,981.2,93.6z"/>
	<path class="st3" d="M725.8,92.2c-0.7-13.5,2.3-25.9,10.4-36.8c5.3-7.2,12.3-12.2,20.5-15.9c12.8-5.8,25.9-6.7,39.1-3.6
		c25.1,5.8,39.8,24.7,41.1,48.9c0.6,11.2,0.2,22.5-3.4,33.3c-6.6,19.4-20.2,30.7-40.4,33.9c-11.7,1.9-23.3,1.4-34.4-2.8
		c-19-7.1-28.4-22-31.9-41.3C725.8,102.7,725.6,97.4,725.8,92.2z M818,93c0.1-5.3,0.1-10.1-1.1-14.8c-3.2-13.4-10.9-22.5-24.8-25.6
		c-6.1-1.4-12.3-1.4-18.4-0.5c-13.4,1.8-22.8,9.2-26.6,22.3c-4,13.6-3.3,27.4,1.2,40.8c3.1,9.4,9.9,16.3,19.2,19.1
		c7.3,2.2,15.3,2.3,23.2,0.8c13.4-2.5,21.6-10.2,25.2-23.2C817.5,105.6,818.3,99.1,818,93z"/>
	<path class="st3" d="M944.9,150.9c-7.7,0-14.3-0.1-20.9,0c-2.1,0-3.1-1.4-4-2.6c-10-13-20.9-25.4-31.6-37.9c-3.9-4.6-6-9-5.6-15.2
		c0.5-8.5,0.2-8.5,8.5-8.5c5.3,0,10.7-0.1,16,0c14,0.1,18.6-8,17-21.4c-0.9-7.6-4.9-10.5-12.6-11.7c-4.3-0.7-8.6,0-12.8-0.2
		c-6.6-0.3-13.3-0.3-20-0.4c-4.9,0-4.9,0-4.9,5c0,24,0,48,0,72c0,6-0.1,12,0,18c0,2.2-0.6,2.9-2.8,2.8c-4.3-0.1-8.7-0.1-13,0
		c-1.9,0-2.8-0.5-2.6-2.5c0.1-0.8,0-1.7,0-2.5c0-35,0-70,0-105c0-4.8,0-4.9,5-4.9c14,0,28,0.2,42,0.2c4.5,0,8.9-0.3,13.4,0.4
		c13.5,2.1,22.8,10.3,25.9,23.6c2.5,10.6,1.2,20.8-4.4,30.3c-4.4,7.4-11.2,11-19.4,12.2c-3.7,0.6-7.5,0.9-12,1.4
		c6.8,8.1,13.1,15.7,19.5,23.4C931.9,135.1,938.1,142.6,944.9,150.9z"/>
	<path class="st3" d="M582,104.2c13,15.7,25.5,30.9,38.7,46.8c-7.6,0-14.2,0-20.8,0c-1.5,0-2.4-0.8-3.3-1.9
		c-12.1-14.4-24.2-28.8-36.3-43.2c-0.9-1-1.5-2.1-1.5-3.6c0.1-4.2,0.1-8.3,0-12.5c-0.1-2.4,1.1-3.1,3.4-3.1c6.5,0.1,13,0.1,19.5,0
		c2,0,4,0,6-0.4c8.1-1.4,11.5-5.1,12.4-13.2c0.1-0.5,0.1-1,0.1-1.5c0.7-10.1-2-18.4-16.4-18.3c-10.3,0.1-20.6,0.4-31-0.2
		c-2.1-0.1-3.1,0.7-3,2.9c0.1,2.5,0,5,0,7.5c0,27.7,0,55.3,0,83c0,4.9,0.2,4.3-4.2,4.4c-3.7,0-7.3-0.2-11,0.1
		c-2.8,0.2-3.3-0.9-3.3-3.4c0.1-13.3,0.1-26.7,0.1-40c0-22.5,0-45-0.1-67.5c0-2.9,0.4-3.9,3.8-3.9c16.8,0.2,33.7,0.1,50.5,0.1
		c3.5,0,7.3-0.3,10.3,1.4c6.3,3.6,13.9,5.2,17.8,12.5c4.2,7.8,5.8,15.9,4.8,24.5c-0.6,5-2,9.7-4.3,14.2c-4.4,8.5-11.7,12.9-21.1,14
		C589.8,103.4,586.3,103.7,582,104.2z"/>
	<path class="st4" d="M104.2,174.8c0-21.6,0-43.3,0-64.9c0-5.4,0.3-5.7,5.5-5.7c9.2,0,18.3,0.1,27.5,0c3.2-0.1,4.5,0.9,4.4,4.3
		c-0.2,5.5,0,11,0,16.5c0,37.8,0,75.6,0,113.4c0,1.2-0.1,2.3,0,3.5c0.2,2.5-0.7,3.7-3.4,3.7c-5.5-0.1-11,0.4-16.5-0.2
		c-4.5-0.5-8.9,0-13.4-0.2c-3.4-0.1-4.3-1.4-4.3-4.8C104.3,218.5,104.2,196.7,104.2,174.8C104.2,174.8,104.2,174.8,104.2,174.8z"/>
	<path class="st3" d="M396.9,93.2c0,17.5,0,35,0,52.5c0,5.2,0,5.2-5.3,5.2c-3.2,0-6.3-0.2-9.5,0c-2.9,0.2-3.6-0.8-3.6-3.6
		c0.2-12.8,0.1-25.6,0.1-38.5c0-4.9,0-5-4.8-5c-15.3,0-30.6,0-46,0c-4.8,0-4.8,0-4.8,5c0,12.8-0.1,25.7,0.1,38.5
		c0,2.8-0.6,3.9-3.5,3.7c-4.2-0.2-8.3-0.1-12.5-0.1c-1.7,0-2.5-0.6-2.3-2.3c0.1-0.7,0-1.3,0-2c0-35.3,0-70.6,0-105.9
		c0-4.6,0-4.6,4.6-4.7c3.3,0,6.7,0.1,10-0.1c2.8-0.2,3.7,0.8,3.7,3.7c-0.2,12-0.2,24,0,36c0,3.6-1.7,8.2,0.9,10.5
		c2.3,2.1,6.7,0.6,10.2,0.6c13.2,0.1,26.3,0,39.5,0c4.9,0,4.9,0,4.9-4.8c0-13.8,0-27.6,0-41.5c0-4.4,0.1-4.5,4.3-4.5
		c3.5,0,7,0.2,10.5-0.1c3-0.2,3.6,1.1,3.6,3.8c-0.1,11.3-0.1,22.7-0.1,34C396.9,80.2,396.9,86.7,396.9,93.2z"/>
	<path class="st3" d="M517.9,150.9c-5.4,0-10.7-0.1-16,0c-2.1,0.1-2.8-1-3.4-2.8c-2.8-7.6-6-15-8.8-22.6c-1-2.8-2.4-3.8-5.4-3.7
		c-13.8,0.2-27.6,0.2-41.5,0c-3,0-4.4,0.9-5.3,3.8c-2.7,7.8-5.7,15.4-8.7,23.1c-0.5,1.2-0.9,2.3-2.7,2.3c-5.6-0.1-11.3,0-17.4,0
		c4-10.8,7.9-21.2,11.8-31.6c9.8-26.2,19.6-52.4,29.3-78.7c1.3-3.6,3.2-4.9,6.9-4.6c4.3,0.3,8.7,0.6,13,0.2c3.7-0.3,4.8,1.5,5.9,4.4
		c4.6,12.5,9.3,24.9,14.2,37.2c9.1,23.2,18.4,46.4,27.6,69.5C517.7,148.3,518.2,149.2,517.9,150.9z M480.5,104.7
		c0.5-1.2,0.2-1.9-0.1-2.7c-3.3-8.5-6.6-17-9.9-25.5c-2-5.3-4.1-10.5-6.2-15.7c-0.3-0.8-0.6-2-1.9-1.9c-1,0.1-1.1,0.9-1.3,1.8
		c-3.6,12.1-8.4,23.7-12.7,35.6c-0.7,2-1.6,4-2.3,6c-0.4,1.4-0.3,2.6,1.7,2.6C458.7,104.7,469.7,104.7,480.5,104.7z"/>
	<path class="st3" d="M84.3,89.7c-17.1,0-34.3,0-51.4,0c-4.9,0-4.9,0-4.9-4.9c0-9.5,0.1-19,0-28.5c0-2.8,0.7-3.7,3.6-3.7
		c35.5,0.1,70.9,0.1,106.4,0c2.6,0,3.5,0.7,3.4,3.3c-0.1,10-0.1,20,0,30c0.1,3.2-1.1,3.8-4.1,3.8C119.6,89.6,102,89.7,84.3,89.7
		C84.3,89.7,84.3,89.7,84.3,89.7z"/>
	<path class="st3" d="M642.4,93.5c0-17.5,0-35,0-52.5c0-5,0-4.8,4.9-4.8c17.8,0.1,35.6,0.1,53.5,0.1c4,0,8-0.1,11.9-0.3
		c2.9-0.1,4.3,0.8,4.1,4c-0.2,3.1-0.3,6.3,0,9.5c0.3,3.5-1.1,4.2-4.3,4.2c-15.5-0.1-31-0.1-46.5-0.1c-6.1,0-5.2-0.1-5.2,5
		c0,7.8,0,15.7,0,23.5c0,4.6,0,4.7,4.5,4.7c12,0,24,0,36,0c4.9,0,4.7-1,4.7,4.9c0,3-0.2,6,0.1,9c0.2,2.7-0.9,3.3-3.4,3.3
		c-12.5-0.1-25-0.1-37.5,0c-4.3,0-4.4,0-4.4,4.3c0,13-0.1,26,0.1,39c0,3.1-0.8,4.1-3.9,3.9c-3.6-0.3-7.3-0.2-11,0
		c-2.8,0.2-3.8-0.7-3.7-3.6c0.2-6.8,0.1-13.7,0-20.5C642.4,115.8,642.4,104.6,642.4,93.5z"/>
	<path class="st5" d="M45,141.7c-13,0-26,0-39,0c-5.3,0-6.4-0.8-5.9-6.1c0.5-5.6,0.7-11.3,0.6-16.9c0-2.6,0-5.3-0.6-7.9
		c-1-4.8,1-7.2,5.9-6.6c12.1,1.4,24.3,0.5,36.4,0.6c14.1,0.1,28.3,0.5,42.4-0.3c3.7-0.2,4.7,0.8,4.7,4.6c0.1,9.3,0.1,18.7,0,28
		c0,4-0.5,4.5-4.7,4.6c-7.7,0.1-15.3,0.1-23,0.1C56.3,141.7,50.7,141.7,45,141.7C45,141.7,45,141.7,45,141.7z"/>
	<path class="st4" d="M37.7,214.2c0,9-0.2,18,0.1,27c0.1,3.3-1.7,4.3-4.1,4.1c-8.1-0.7-16.2,0.7-24.3-0.3c-0.3,0-0.7,0-1,0
		c-8.2,0.1-8.2,0.1-8.2-8c0-16.2,0-32.3,0-48.5c0-4.8,0.3-5.2,5-5.2c7.8,0,15.6-0.7,23.4,0.4c1.4,0.2,2.9-0.4,4.4-0.5
		c3.9-0.2,4.6,0.4,4.6,4.5C37.7,196.5,37.7,205.4,37.7,214.2z"/>
	<path class="st3" d="M52.6,187.1c0-9,0.1-18-0.1-27c-0.1-3,0.9-4.1,3.9-4c9.8,0.2,19.6,0.1,29.4,0c2.4,0,3.4,0.7,3.4,3
		c0,1.3,0.3,2.6,0.3,4c0,15.8,0,31.6,0,47.4c0,7.3-0.1,7.3-7.1,7.3c-8.5,0-17,0-25.5,0c-4.4,0-4.4,0-4.4-4.2
		C52.6,204.7,52.6,195.9,52.6,187.1z"/>
	<path class="st3" d="M524.7,198.5c-4,4-6.4,9.3-10.2,13.7c-3.7-4.4-6.2-9.3-10.8-13c0,6.2-0.1,12.4,0.1,18.6c0.1,3-1.5,3.2-3.8,3.1
		c-1.5-0.1-2.1-0.8-2.1-2.2c0-9.7,0-19.3,0-29c0-1.1,0.2-2.1,1.5-2.1c2.1,0,4.5-0.7,5.6,2c1.3,3.1,4,5.2,5.6,8
		c0.4,0.7,0.9,1.4,1.4,2c2.5,3.3,2.6,3.3,5.2-0.3c2.3-3.2,4.7-6.4,6.8-9.7c1.2-1.9,2.7-2.1,4.6-2.1c2.2-0.1,2.3,1,2.3,2.7
		c-0.1,9.3-0.1,18.6,0,28c0,1.9-0.6,2.7-2.5,2.6c-1.9-0.1-3.2-0.1-3.1-2.6c0.2-5.8,0.1-11.6,0.1-17.5
		C525.6,200.1,525.9,199.5,524.7,198.5z"/>
	<path class="st3" d="M471.8,198.3c-4.4,4.4-7.2,9.1-10.3,13.6c-3.9-4.2-6-9.6-10.5-13.6c-1.3,2.2-0.8,4.2-0.8,6.1
		c-0.1,4.3,0,8.7,0,13c0,1.9,0.2,3.6-2.7,3.5c-2.9-0.1-2.6-1.9-2.6-3.7c0-8.7,0-17.3,0-26c0-1.2-0.8-3,1-3.4c2-0.4,4.3-0.9,5.9,1.4
		c1.8,2.6,3.6,5.2,5.4,7.8c1.3,1.9,2.7,3.8,4.1,5.9c3.1-3,4.9-6.6,7.3-9.7c1-1.3,1.9-2.7,2.9-4.1c1.4-2.2,3.6-1.6,5.4-1.3
		c1.8,0.4,1,2.2,1,3.4c0.1,8.8,0,17.7,0.1,26.5c0,2.3-0.5,3.3-3,3.2c-2.7,0-2.3-1.7-2.3-3.4C472.7,211.4,472.8,205.3,471.8,198.3z"
		/>
	<path class="st3" d="M615.8,210.2c0-5.4,0-10.4,0-15.5c0-1.7,0.1-3.3,0-5c-0.1-2.3,1.4-2.1,2.9-2.2c1.7-0.1,2.4,0.5,2.3,2.3
		c-0.1,5.2-0.1,10.3-0.1,15.5c0,3.8,0.1,7.7,0,11.5c0,1.3,0.9,3.4-1,3.9c-2.1,0.6-4.1,0.4-5.6-1.8c-3.7-5.3-7.8-10.3-11.6-15.6
		c-1.3-1.7-2.6-3.3-4.4-4.7c-1.4,2.5-1.1,4.8-1.1,7c0,3.7,0,7.3,0,11c0,2,0.9,4.4-2.8,4.4c-3.6,0-2.5-2.4-2.5-4.1
		c-0.1-8.3-0.1-16.6,0-24.9c0-1.4-1.2-3.7,1.3-4.1c2-0.3,4.1-0.6,5.7,1.7c4.1,5.8,8.5,11.5,12.9,17.1
		C612.7,207.8,613.3,209.5,615.8,210.2z"/>
	<path class="st3" d="M412.2,220.9c-11.2,0.9-17.2-8.8-17.3-16.5c-0.1-9.8,7.5-17.4,17.3-17.5c9.8,0,17.6,7.6,17.1,17.5
		C428.9,212.4,423.1,222.1,412.2,220.9z M412.2,216c6.5,0,11.5-5.1,11.6-11.8c0.1-6.6-5.1-11.8-11.5-11.9c-6.6,0-11.4,5-11.5,11.8
		C400.8,210.9,405.7,216,412.2,216z"/>
	<path class="st3" d="M817.5,220.9c-10.6,0.6-17-7.4-17.1-17.1c-0.2-9.4,8.1-17.4,17.4-16.8c10.7,0.6,16.9,7.3,17.1,17
		C835,213.2,828,221.8,817.5,220.9z M817.7,216c6.6,0,11.3-5,11.3-11.9c-0.1-6.7-5.3-12.1-11.5-11.9c-6.3,0.2-11.6,5.7-11.5,12.1
		C806.1,210.9,811.3,216,817.7,216z"/>
	<path class="st3" d="M980.4,194.9c-4.4-2-8.9-3.7-13.8-2.1c-6.4,2-9.9,9.1-7.5,15.6c2.2,6.2,9.5,9.6,15.5,7.3
		c2.5-0.9,1.6-2.9,1.8-4.6c0.2-2.1-0.9-2.6-2.7-2.5c-0.8,0.1-1.7,0-2.5-0.1c-1.6-0.3-1.4-1.5-1.4-2.7c-0.1-1.4,0.5-2,1.9-2.2
		c9.4-1.3,10.2-0.7,10.2,8.9c0,6.5-1.3,8-8.1,8.2c-5.1,0.2-10.3,0.4-14.7-3.1c-6-4.8-8.1-13.4-5-20.7c2.9-6.6,11-11,18.5-9.9
		c1.1,0.2,2.3,0.4,3.4,0.7C980.8,188.9,981,189.3,980.4,194.9z"/>
	<path class="st3" d="M575.9,199.6c0,3,0.1,6,0,9c-0.1,3.1-0.9,5.9-2.9,8.3c-0.5,0.6-1.1,1.3-1.7,1.8c-1.7,1.3-14.1,2.2-16.3,1.2
		c-4.8-2.2-6.5-6.6-6.8-11.4c-0.4-6.1,0-12.3-0.2-18.5c-0.1-2.6,1.5-2.4,3.2-2.4c1.9-0.1,2.7,0.4,2.7,2.5c-0.1,6-0.1,12,0.1,18
		c0.2,4.9,3.6,8.5,7.7,8.7c4.2,0.2,7.4-2.2,8.3-6.6c1.3-6.4,0.2-12.9,0.6-19.4c0.1-1.4-0.6-3.2,1.8-3.3c2.2-0.1,3.9-0.1,3.6,3
		C575.7,193.6,575.9,196.6,575.9,199.6C575.9,199.6,575.9,199.6,575.9,199.6z"/>
	<path class="st3" d="M919,204c0-4.5,0.1-9,0-13.5c0-2.1,0.7-3,2.9-3c4.8,0.1,9.7,0.1,14.5,0c1.8,0,2.8,0.3,2.7,2.5
		c-0.1,1.9-0.6,2.8-2.6,2.7c-3-0.1-6,0.1-9,0c-3.4-0.1-2.5,2.3-2.6,4.1c0,1.9-0.8,4.3,2.6,4.1c1.8-0.1,3.7-0.1,5.5,0
		c1.8,0.1,4.2-0.8,4.1,2.6c-0.1,3.2-2.2,2.2-3.8,2.3c-1.8,0.1-3.7,0.1-5.5,0c-2.2-0.2-2.8,0.9-2.9,2.9c-0.4,7-0.5,7,6.4,7
		c1.8,0,3.7,0,5.5,0c1.7-0.1,2.8,0.3,2.9,2.4c0.1,2.4-1.1,2.8-3.1,2.7c-4.5-0.1-9-0.2-13.5,0c-3,0.1-4.2-0.7-4-3.9
		C919.2,212.7,919,208.3,919,204z"/>
	<path class="st3" d="M997.8,204c0-4.5,0.1-9,0-13.5c-0.1-2,0.3-3.1,2.6-3c4.8,0.2,9.7,0.1,14.5,0c1.8,0,2.7,0.4,2.8,2.5
		c0.1,2.4-1.1,2.8-3.1,2.7c-2.8-0.1-5.7,0.1-8.5,0c-3.2-0.2-2.9,1.9-2.8,3.9c0.1,2.1-0.7,4.6,3,4.3c2.3-0.2,4.7,0,7-0.1
		c1.9,0,2.7,0.8,2.6,2.7c-0.1,1.8-1,2.3-2.6,2.2c-2.5,0-5,0-7.5,0c-1.6,0-2.5,0.7-2.5,2.3c0,1.2,0.2,2.4,0,3.5
		c-0.6,3.5,1.1,4.4,4.2,4.1c2.5-0.2,5,0.1,7.5-0.1c2.5-0.2,2.5,0.8,2.6,3c0,1.6,0,2.1-1.5,2.1c-5.3,0-10.7-0.1-16,0
		c-2.2,0-2.4-1.1-2.3-2.8C997.8,213.4,997.8,208.7,997.8,204z"/>
	<path class="st3" d="M379.5,213.8c1.5,4.9,0.5,6.3-5,7c-3.4,0.4-7,0.6-10.4-0.3c-6.9-2-11.3-7.8-11.8-15.6
		c-0.4-6.6,3.6-13.4,9.8-16c3.9-1.7,7.9-2.3,12.2-1.3c5.1,1.3,5.1,1.1,4.8,6.9c-7-3-13.9-4.1-19.1,3.1c-3.1,4.3-2.5,10.6,0.8,14.4
		C364.8,216.6,370.8,217.2,379.5,213.8z"/>
	<path class="st3" d="M786.7,214c0.7,5.4,0.7,5.8-4.2,6.5c-9.2,1.4-16.7,0.3-21.2-8.8c-3.2-6.4-1.7-14.6,3-19.5
		c4.8-5,13.4-6.6,19.8-4.1c3.7,1.4,1,3.8,1.9,6.2c-4.9-1.9-9.1-3.1-13.5-1.3c-2.2,0.9-4,2.4-5.3,4.4c-2.7,4.1-2.5,10.2,0.4,14.1
		C771.5,216.5,777.4,217.3,786.7,214z"/>
	<path class="st3" d="M697,188c4.5-1.4,7.3-0.2,9.4,3.7c1.6,3,3.9,5.7,6.2,9c2.3-3.3,4.5-6,6.2-9c2-3.5,4.4-5.2,8.8-3.8
		c-2.1,4.1-4.9,7.8-7.7,11.2c-3.5,4.3-5.1,8.8-4.4,14.2c0.2,1.5-0.1,3,0,4.5c0.3,2.5-1,3-3.2,3.1c-2.5,0-2.8-1.3-2.5-3.1
		c1.4-8.9-1.7-16.2-7.5-22.6C700.3,193.1,698.9,190.6,697,188z"/>
	<path class="st3" d="M669.8,206.8c0-3.7-0.1-7.3,0-11c0.1-2.3-0.6-3.4-3.1-3.1c-1.6,0.2-3.3-0.1-5,0.1c-2.3,0.2-2.8-1.1-3-3
		c-0.2-2.4,1.4-2.2,2.9-2.2c7.3,0,14.6,0,21.9,0c1.8,0,3.2,0,3.1,2.6c-0.1,2.4-1.4,2.6-3.3,2.6c-2.6,0.1-6.1-1.3-7.5,0.8
		c-1.3,1.8-0.6,5.1-0.7,7.7c-0.1,5.5-0.1,11,0,16.5c0.1,2.3-0.5,3.3-3,3.3c-2.6,0-2.5-1.4-2.5-3.2
		C669.8,214.1,669.8,210.5,669.8,206.8z"/>
	<path class="st3" d="M849.5,205c0-4.8,0.1-9.6,0-14.5c-0.1-2.4,0.8-3.1,3.2-3c2.5,0,2.5,1.3,2.5,3.1c-0.1,7.2,0,14.3-0.1,21.5
		c0,2.3,0.3,3.5,3.1,3.8c3.3,0.4,6.3,1.4,9.6-0.1c1.4-0.6,2.6,0.1,2.6,1.9c0,1.6,0.2,3.1-2.1,3c-5.5,0-11-0.1-16.5,0
		c-1.9,0-2.2-0.9-2.2-2.5c0.1-4.5,0-9,0-13.4C849.6,205,849.5,205,849.5,205z"/>
	<path class="st3" d="M884.2,203.9c0-4.3,0.1-8.7,0-13c-0.1-2.6,0.8-3.5,3.4-3.5c2.7,0,2.4,1.5,2.4,3.2c-0.2,7,0.4,13.9-0.3,20.9
		c-0.2,2.6,0.3,4.4,3.6,4.2c3-0.2,6,0,9-0.1c2-0.1,3.1,0.2,3.1,2.7c0,2.1-1,2.5-2.8,2.5c-5.2-0.1-10.3-0.1-15.5,0
		c-2.2,0-2.9-0.9-2.9-3C884.2,213.3,884.2,208.6,884.2,203.9z"/>
	<path class="st3" d="M638.6,203.8c0-4.6,0.1-9.3-0.1-13.9c-0.1-2.3,1.1-2.3,2.8-2.3c1.6,0,2.8,0,2.8,2.3c-0.1,9.5-0.1,18.9,0,28.4
		c0,2.4-1.1,2.6-3,2.6c-2,0.1-2.6-0.7-2.5-2.6C638.6,213.4,638.6,208.6,638.6,203.8z"/>
</g>
</svg>
