<svg id="Layer_1" data-name="Layer 1" xmlns="http://www.w3.org/2000/svg" viewBox="0 0 154.84 147.68"><defs><style>.cls-1{fill:#fff;}.cls-2{fill:#84c299;}.cls-3{fill:#5bcae9;}.cls-4{fill:#206177;}</style></defs><title>certificate-logo</title><path class="cls-1" d="M7.52,56.69h.25a.26.26,0,0,0-.2.1C7.52,56.79,7.52,56.74,7.52,56.69Z"/><g id="Layer_2" data-name="Layer 2"><g id="Layer_1-2" data-name="Layer 1-2"><circle class="cls-2" cx="79.64" cy="73.84" r="73.21"/><polyline class="cls-3" points="62.02 80.69 78.97 97.64 97.51 73.33 84.61 57.11 61.01 80.69"/><path class="cls-4" d="M104.51,35.08a12.92,12.92,0,0,1,18.2,18.22"/><polygon class="cls-4" points="51.26 114.67 39.01 117.97 42.28 105.71 51.26 114.67"/><path class="cls-4" d="M116.42,94.9,99,77.52,116.4,60.17a3.56,3.56,0,0,0,0-5l-.15-.17h0l-6.68-6.76h0l-6.95-7h0a3.56,3.56,0,0,0-5,0L80.29,58.77l-5.41-5.39A21.07,21.07,0,0,0,49.32,30.24l7.84,7.83h0l-1,15.08-15.07,1h0l-7.82-7.82a21.11,21.11,0,0,0,23.2,25.46l5.4,5.38L46.76,92.27a3.47,3.47,0,0,0,4.15,5.52l2.16,2.15a3.49,3.49,0,0,0,.51,4.31,3.54,3.54,0,0,0,4.2.54l2.16,2.15a3.46,3.46,0,0,0,5.51,4.13L80.52,96,97.9,113.38a12.25,12.25,0,0,0,17.23,0l1.14-1.14a12.26,12.26,0,0,0,.16-17.33Zm-3.83,14.6a7.88,7.88,0,1,1,0-11.14h0a7.85,7.85,0,0,1,0,11.11Z"/></g></g></svg>