<svg id="Layer_1" data-name="Layer 1" xmlns="http://www.w3.org/2000/svg" viewBox="0 0 276.65 114.06"><defs><style>.cls-1{fill:#231f20;}</style></defs><title>certfiicate-of-completion-text-mobile</title><path class="cls-1" d="M33.2,77.89a11.81,11.81,0,0,0-6.74.06,12.58,12.58,0,0,0-5,2.56,10.39,10.39,0,0,0-2.78,3.84A11.69,11.69,0,0,0,17.8,89a16.75,16.75,0,0,0,.78,4.82,19.39,19.39,0,0,0,2.18,4.74A12.37,12.37,0,0,0,24,102a10.43,10.43,0,0,0,4.27,1.74,12,12,0,0,0,5.3-.4,10.76,10.76,0,0,0,3.62-1.71A9.13,9.13,0,0,0,39.59,99a8.91,8.91,0,0,0,1.19-3.33,11.73,11.73,0,0,0-.06-3.78l4.45-1.09A14.5,14.5,0,0,1,43.1,101c-1.86,2.78-4.82,4.7-8.93,5.85a17.51,17.51,0,0,1-6.89.66,13.79,13.79,0,0,1-5.68-1.93,15.31,15.31,0,0,1-4.4-4.15,21.12,21.12,0,0,1-3-5.91,19.12,19.12,0,0,1-1-6.57,14.91,14.91,0,0,1,1.47-6.08,14.53,14.53,0,0,1,4.08-5,18.58,18.58,0,0,1,6.74-3.32,20,20,0,0,1,5.38-.77,14.61,14.61,0,0,1,4.86.78,11.37,11.37,0,0,1,4,2.36,10.88,10.88,0,0,1,2.7,4c-1.52.36-3,.74-4.57,1.12A7.72,7.72,0,0,0,33.2,77.89Z"/><path class="cls-1" d="M48.55,85.6A10.33,10.33,0,0,1,50,81.33,10.82,10.82,0,0,1,53.27,78a15.13,15.13,0,0,1,10.51-2.06A10.82,10.82,0,0,1,68,77.79,10.33,10.33,0,0,1,71,81.19a14.23,14.23,0,0,1,1.54,4.58,14.39,14.39,0,0,1,0,4.81A10.79,10.79,0,0,1,71,94.73a10.5,10.5,0,0,1-3.17,3.16,14.88,14.88,0,0,1-9.92,1.94,10.54,10.54,0,0,1-4.16-1.71,11.12,11.12,0,0,1-3.05-3.24,14.5,14.5,0,0,1-1.8-4.46A14.18,14.18,0,0,1,48.55,85.6ZM54.46,93a7.63,7.63,0,0,0,2.17,2.33,7,7,0,0,0,2.72,1.15,7.52,7.52,0,0,0,3,0,7.73,7.73,0,0,0,2.78-1.13,7.14,7.14,0,0,0,2.08-2.09,7.88,7.88,0,0,0,1.13-3,11,11,0,0,0-.06-3.78A10.72,10.72,0,0,0,67,82.92a7.73,7.73,0,0,0-2.14-2.41,7,7,0,0,0-2.79-1.22,8.24,8.24,0,0,0-6,1.18A7.14,7.14,0,0,0,54,82.65a7.8,7.8,0,0,0-1.07,3,10.54,10.54,0,0,0,.2,3.79A10.88,10.88,0,0,0,54.46,93Z"/><path class="cls-1" d="M79.45,73c.16,1.12.32,2.24.47,3.37l.1,0a9.35,9.35,0,0,1,7.64-5,9.87,9.87,0,0,1,4.37.4,5.14,5.14,0,0,1,3,2.75,8.39,8.39,0,0,1,3.06-3.23,10,10,0,0,1,4.51-1.42,13.78,13.78,0,0,1,3.5.11,7.16,7.16,0,0,1,2.73,1,5.28,5.28,0,0,1,1.85,2,7.19,7.19,0,0,1,.8,3l1,16.94c-1.31.08-2.63.16-3.94.26L107.49,78a10.08,10.08,0,0,0-.33-2,4,4,0,0,0-.85-1.58,3.61,3.61,0,0,0-1.57-1,6.16,6.16,0,0,0-2.49-.2,6.78,6.78,0,0,0-4.68,2,5.53,5.53,0,0,0-1.32,4.45L97.69,94.1l-3.93.41Q92.92,87,92.09,79.43a9.18,9.18,0,0,0-.45-2,4.13,4.13,0,0,0-.93-1.54,3.46,3.46,0,0,0-1.56-.9,6.09,6.09,0,0,0-2.35-.1,6.51,6.51,0,0,0-4.87,2.94,6.22,6.22,0,0,0-.9,2.09,5.07,5.07,0,0,0-.12,1.71q1,7.14,2,14.28c-1.3.18-2.61.37-3.91.57Q77.27,85,75.54,73.56C76.84,73.36,78.14,73.17,79.45,73Z"/><path class="cls-1" d="M121.75,69.3c0,1,.07,2.09.11,3.13H122a6,6,0,0,1,3.16-2.89,12.73,12.73,0,0,1,4.86-1,12,12,0,0,1,5.16,1,10.05,10.05,0,0,1,3.62,2.68,11.19,11.19,0,0,1,2.12,3.9,14.62,14.62,0,0,1,.65,4.67,15.6,15.6,0,0,1-.76,4.64,11,11,0,0,1-2.12,3.8,9.69,9.69,0,0,1-3.46,2.56,11.77,11.77,0,0,1-4.8,1,13,13,0,0,1-2-.14,12.08,12.08,0,0,1-2.17-.54,8.86,8.86,0,0,1-2.06-1,6.32,6.32,0,0,1-1.66-1.68h-.09q.19,5.94.4,11.9c-1.29,0-2.57.09-3.85.15q-.72-16-1.42-31.94Zm15,8a8,8,0,0,0-1.4-2.76,6.65,6.65,0,0,0-2.44-1.91,7.68,7.68,0,0,0-3.5-.68,7.51,7.51,0,0,0-3.55.82,6.79,6.79,0,0,0-2.34,2.06,7.91,7.91,0,0,0-1.24,2.84,12.7,12.7,0,0,0,.24,6.46A8.05,8.05,0,0,0,124,86.88a6.78,6.78,0,0,0,2.42,1.88,7.81,7.81,0,0,0,3.53.68,7.1,7.1,0,0,0,3.43-.8,6.38,6.38,0,0,0,2.23-2,8.5,8.5,0,0,0,1.24-2.86,14,14,0,0,0,.39-3.31A10.91,10.91,0,0,0,136.77,77.29Z"/><path class="cls-1" d="M151.42,60.58q-.63,16-1.27,31.94l-4-.14q.48-16,.94-31.95C148.57,60.47,150,60.52,151.42,60.58Z"/><path class="cls-1" d="M173.37,92.68A11.47,11.47,0,0,1,166.43,94a13,13,0,0,1-4.91-1.28,10.06,10.06,0,0,1-3.4-2.73,10.71,10.71,0,0,1-2-4,17.67,17.67,0,0,1-.57-4.92,12.81,12.81,0,0,1,1.12-4.78,11.19,11.19,0,0,1,2.68-3.66,10.92,10.92,0,0,1,3.94-2.25,12.18,12.18,0,0,1,4.87-.53,11,11,0,0,1,5.5,1.78,10.33,10.33,0,0,1,3.24,3.59,12,12,0,0,1,1.37,4.48,17.26,17.26,0,0,1-.09,4.45q-9.18-1-18.41-1.62a8.71,8.71,0,0,0,.2,2.9,6.49,6.49,0,0,0,1.2,2.51,6.94,6.94,0,0,0,2.27,1.84,8.83,8.83,0,0,0,3.36.9,7.31,7.31,0,0,0,4.24-.75,5.44,5.44,0,0,0,2.46-3.17l4,.41A9.3,9.3,0,0,1,173.37,92.68Zm.52-14.89a6.39,6.39,0,0,0-1.3-2.21A7.06,7.06,0,0,0,170.48,74a7.44,7.44,0,0,0-2.81-.76,7.8,7.8,0,0,0-2.94.28,6.74,6.74,0,0,0-2.32,1.25,6.38,6.38,0,0,0-1.59,2,7.28,7.28,0,0,0-.79,2.48q7.13.47,14.26,1.18A7.42,7.42,0,0,0,173.89,77.79Z"/><path class="cls-1" d="M194.77,73.55c-.16,1.11-.33,2.22-.5,3.32-1.66-.25-3.33-.49-5-.72q-1,7.13-2,14.24a4,4,0,0,0,0,1.08,1.15,1.15,0,0,0,.35.68,2.08,2.08,0,0,0,.87.42,14.23,14.23,0,0,0,1.5.28l1.81.27c-.16,1.11-.33,2.21-.5,3.32l-3-.44a15.26,15.26,0,0,1-2.58-.56,4.06,4.06,0,0,1-1.66-1,3.29,3.29,0,0,1-.8-1.64,8.47,8.47,0,0,1,0-2.62l1.86-14.61-4.28-.52.39-3.34,4.31.53.88-6.88c1.41.18,2.83.36,4.24.56q-.48,3.43-.95,6.87Z"/><path class="cls-1" d="M200.28,70.2l.75-4.59c1.42.23,2.83.47,4.24.72-.27,1.52-.53,3-.8,4.58ZM203.75,75q-2,11.42-4,22.81l-3.9-.66q1.86-11.43,3.74-22.85Z"/><path class="cls-1" d="M208.32,82.79a10.24,10.24,0,0,1,3-3.34,10.84,10.84,0,0,1,4.33-1.75,13.8,13.8,0,0,1,5.43.19,13.65,13.65,0,0,1,5,2.12,11,11,0,0,1,3.17,3.4,10.34,10.34,0,0,1,1.36,4.31A15,15,0,0,1,228.36,97a11,11,0,0,1-3.13,3.16,10.79,10.79,0,0,1-4.18,1.63,14.93,14.93,0,0,1-9.88-2.18A10.72,10.72,0,0,1,208,96.32a11.06,11.06,0,0,1-1.5-4.19,14.7,14.7,0,0,1,.13-4.8A14.21,14.21,0,0,1,208.32,82.79Zm2.45,9.15a8,8,0,0,0,1.06,3,7.06,7.06,0,0,0,2,2.14,7.62,7.62,0,0,0,2.75,1.19,7.78,7.78,0,0,0,3,.08,7.06,7.06,0,0,0,2.75-1.09A7.84,7.84,0,0,0,224.6,95a11.8,11.8,0,0,0,1.74-7.27,7.83,7.83,0,0,0-1-3.07,7,7,0,0,0-2.08-2.22,8,8,0,0,0-2.87-1.25,8.06,8.06,0,0,0-3.13-.08,7.26,7.26,0,0,0-2.82,1.15,7.83,7.83,0,0,0-2.19,2.37,10.53,10.53,0,0,0-1.33,3.54A11.19,11.19,0,0,0,210.77,91.94Z"/><path class="cls-1" d="M241.76,83.59c-.33,1.17-.65,2.35-1,3.53l.09,0c2.43-2.24,5.51-2.83,9.18-1.73a12.07,12.07,0,0,1,3.86,1.84A6.94,6.94,0,0,1,256,89.75a6.26,6.26,0,0,1,.57,3,12.83,12.83,0,0,1-.66,3.39l-4.7,14.48-3.81-1.22,4.69-14.95a4.35,4.35,0,0,0-.3-3.66,5.4,5.4,0,0,0-3.28-2.3,9.16,9.16,0,0,0-3.35-.43,6.15,6.15,0,0,0-2.67.82,6.39,6.39,0,0,0-2,1.84,8.78,8.78,0,0,0-1.22,2.66q-1.76,6.3-3.5,12.59l-3.84-1,6-22.37Q239.84,83,241.76,83.59Z"/><path class="cls-1" d="M22.66,23.27a11.32,11.32,0,0,0-6.57.05,12,12,0,0,0-4.86,2.53,10.13,10.13,0,0,0-2.67,3.82,11.73,11.73,0,0,0-.79,4.58,17.13,17.13,0,0,0,.8,4.82,19.93,19.93,0,0,0,2.17,4.74A12.58,12.58,0,0,0,14,47.27,10.09,10.09,0,0,0,18.14,49a11.5,11.5,0,0,0,5.19-.39,10.36,10.36,0,0,0,3.53-1.7,9,9,0,0,0,2.31-2.62A8.87,8.87,0,0,0,30.29,41a11.72,11.72,0,0,0-.11-3.77l4.34-1.1a14.61,14.61,0,0,1-1.89,10.18C30.84,49.07,28,51,23.94,52.14a16.73,16.73,0,0,1-6.74.64,13.52,13.52,0,0,1-5.58-2,15.28,15.28,0,0,1-4.34-4.16,21.7,21.7,0,0,1-2.94-5.92,19.72,19.72,0,0,1-1-6.57A15,15,0,0,1,4.7,28.13a14.19,14.19,0,0,1,3.93-5,17.69,17.69,0,0,1,6.53-3.29,18.91,18.91,0,0,1,5.23-.76,14.45,14.45,0,0,1,4.74.78,11,11,0,0,1,6.58,6.32l-4.44,1.13A7.74,7.74,0,0,0,22.66,23.27Z"/><path class="cls-1" d="M58.1,41.73A11.13,11.13,0,0,1,52,45a12.67,12.67,0,0,1-5,.17,10.1,10.1,0,0,1-4-1.67,10.74,10.74,0,0,1-3-3.26,17.74,17.74,0,0,1-1.93-4.56,13.07,13.07,0,0,1-.29-4.9,11.2,11.2,0,0,1,1.48-4.26,10.67,10.67,0,0,1,3.06-3.26,11.71,11.71,0,0,1,4.4-1.87,10.6,10.6,0,0,1,5.67.15A10.3,10.3,0,0,1,56.46,24,12.35,12.35,0,0,1,59,27.93a17.77,17.77,0,0,1,1.2,4.29q-8.91,1.64-17.74,3.66a8.92,8.92,0,0,0,1,2.73A6.52,6.52,0,0,0,48,41.8a8.3,8.3,0,0,0,3.42-.09,7,7,0,0,0,3.76-1.91,5.5,5.5,0,0,0,1.41-3.75c1.27-.25,2.55-.49,3.83-.72A9.35,9.35,0,0,1,58.1,41.73ZM54.33,27.32a6.54,6.54,0,0,0-1.85-1.75,7,7,0,0,0-2.43-.93,7.06,7.06,0,0,0-2.85.07,7.25,7.25,0,0,0-2.68,1.1,6.5,6.5,0,0,0-1.82,1.84A6.58,6.58,0,0,0,41.77,30a7.32,7.32,0,0,0,0,2.6Q48.57,31,55.44,29.71A7.36,7.36,0,0,0,54.33,27.32Z"/><path class="cls-1" d="M65.74,18.35c.27,1.6.53,3.21.8,4.81h.09a10.19,10.19,0,0,1,2.93-4.69,9.57,9.57,0,0,1,5.23-2.05l.57,4a11.77,11.77,0,0,0-4,1.23,6.39,6.39,0,0,0-2.44,2.24,7.24,7.24,0,0,0-1,3.13,14.88,14.88,0,0,0,.17,4l1.68,10.16-3.82.65q-2-11.4-4-22.81Z"/><path class="cls-1" d="M88.46,15.21c.12,1.12.24,2.23.37,3.34-1.63.18-3.25.37-4.88.57q.89,7.14,1.75,14.27a4.26,4.26,0,0,0,.25,1,1.1,1.1,0,0,0,.51.57,2,2,0,0,0,.92.18,13.71,13.71,0,0,0,1.49-.11l1.78-.2c.12,1.12.24,2.23.37,3.34l-2.94.34a14.88,14.88,0,0,1-2.58.11,3.93,3.93,0,0,1-1.81-.52,3.11,3.11,0,0,1-1.17-1.38,8.52,8.52,0,0,1-.66-2.53q-1-7.3-1.93-14.6c-1.39.18-2.77.37-4.16.57-.16-1.11-.31-2.22-.47-3.33,1.39-.2,2.79-.39,4.19-.57-.3-2.3-.61-4.59-.91-6.88,1.37-.19,2.74-.36,4.12-.53l.84,6.89Z"/><path class="cls-1" d="M92.77,10.57c-.16-1.54-.31-3.09-.47-4.63l4.15-.4.42,4.64C95.5,10.3,94.14,10.43,92.77,10.57Zm4.48,3.76q1.05,11.52,2.09,23.05l-3.85.37-2.31-23Z"/><path class="cls-1" d="M101.35,17.34c-.09-1.11-.18-2.23-.28-3.34l4.17-.33c-.08-1.14-.17-2.29-.25-3.43a5.16,5.16,0,0,1,1.47-4.39,8,8,0,0,1,5.11-1.78,12.32,12.32,0,0,1,1.35,0,8.35,8.35,0,0,1,1.36.2c0,1.11.11,2.21.16,3.31a5.31,5.31,0,0,0-1.17-.18,9.24,9.24,0,0,0-1.17,0,4.18,4.18,0,0,0-2.3.68,2.24,2.24,0,0,0-.69,2.1c.06,1.07.13,2.15.2,3.22l4.79-.28c.06,1.12.11,2.24.17,3.36-1.58.08-3.17.17-4.75.27q.62,9.87,1.24,19.75l-3.85.26q-.72-9.87-1.43-19.74Z"/><path class="cls-1" d="M117.8,8.78c-.06-1.55-.13-3.1-.2-4.65L121.76,4c0,1.55.1,3.1.16,4.65Zm4.26,4q.38,11.57.77,23.13c-1.29,0-2.57.09-3.86.15l-1-23.13Z"/><path class="cls-1" d="M143.14,16.62a6.31,6.31,0,0,0-4.08-1.25,7.75,7.75,0,0,0-3.66.76,6.32,6.32,0,0,0-2.34,2,8.11,8.11,0,0,0-1.22,2.9,15.18,15.18,0,0,0-.34,3.39,12.57,12.57,0,0,0,.43,3.13,8.58,8.58,0,0,0,1.25,2.7,6.31,6.31,0,0,0,2.17,1.89,6.67,6.67,0,0,0,3.16.71A6.57,6.57,0,0,0,143,31.44a6.76,6.76,0,0,0,2.08-4.13l4,.11A10.75,10.75,0,0,1,145.69,34a10.58,10.58,0,0,1-7.15,2.24,12.74,12.74,0,0,1-4.75-.85A9.43,9.43,0,0,1,130.3,33a10.57,10.57,0,0,1-2.18-3.7,15.43,15.43,0,0,1-.82-4.75,16.07,16.07,0,0,1,.6-4.87,10.76,10.76,0,0,1,2.09-4A9.89,9.89,0,0,1,133.62,13a12.36,12.36,0,0,1,5.13-1,15.53,15.53,0,0,1,3.95.51A9.53,9.53,0,0,1,145.93,14a8,8,0,0,1,2.26,2.54,8.83,8.83,0,0,1,1,3.59l-4.15-.1A5.6,5.6,0,0,0,143.14,16.62Z"/><path class="cls-1" d="M174,37.3a5.66,5.66,0,0,1-2.81.34,3.41,3.41,0,0,1-2.31-1,3.55,3.55,0,0,1-.68-2.77,9.41,9.41,0,0,1-3.9,2.43,12.76,12.76,0,0,1-4.61.55,12.55,12.55,0,0,1-3-.52,7,7,0,0,1-2.42-1.23A5.37,5.37,0,0,1,152.66,33a6.47,6.47,0,0,1-.5-3,6.67,6.67,0,0,1,.81-3.2,5.9,5.9,0,0,1,1.92-2,8.53,8.53,0,0,1,2.67-1.06c1-.22,2-.39,3.06-.52s2.15-.24,3.14-.28a19.06,19.06,0,0,0,2.63-.27,4.49,4.49,0,0,0,1.84-.72,2,2,0,0,0,.78-1.58,3.61,3.61,0,0,0-.34-2.05,3.28,3.28,0,0,0-1.2-1.25,5.22,5.22,0,0,0-1.72-.66,14,14,0,0,0-1.92-.26,8.8,8.8,0,0,0-4.33.67,3.83,3.83,0,0,0-2,3.37l-4-.18a7.68,7.68,0,0,1,1.1-3.58A6.72,6.72,0,0,1,157,14.21a9.66,9.66,0,0,1,3.34-1.16,17.91,17.91,0,0,1,4-.17,24.54,24.54,0,0,1,3.32.45,9,9,0,0,1,2.92,1.14,5.45,5.45,0,0,1,2,2.11A5.84,5.84,0,0,1,173,19.9q-.49,5.91-1,11.84a9,9,0,0,0,0,2c.07.43.41.66,1,.72a5.23,5.23,0,0,0,1.2-.07ZM168.62,25a5.29,5.29,0,0,1-2,.63c-.82.11-1.67.18-2.57.23s-1.79.11-2.69.19a9.73,9.73,0,0,0-2.45.51,4.36,4.36,0,0,0-1.81,1.18,3.5,3.5,0,0,0-.78,2.21,3.08,3.08,0,0,0,.32,1.6,3.19,3.19,0,0,0,1,1.1,4.26,4.26,0,0,0,1.41.65,8.47,8.47,0,0,0,1.72.28,9.84,9.84,0,0,0,3.33-.31,7.33,7.33,0,0,0,2.33-1.13,5.14,5.14,0,0,0,1.41-1.6,4.21,4.21,0,0,0,.54-1.68C168.43,27.52,168.53,26.23,168.62,25Z"/><path class="cls-1" d="M190.4,15.88,190,19.21c-1.62-.2-3.25-.4-4.88-.58q-.79,7.14-1.61,14.28a3.85,3.85,0,0,0,0,1.08,1.08,1.08,0,0,0,.36.68,2,2,0,0,0,.85.39,13.25,13.25,0,0,0,1.47.24l1.78.22c-.14,1.11-.28,2.22-.41,3.33l-2.94-.36a14.2,14.2,0,0,1-2.53-.49,3.81,3.81,0,0,1-1.64-.92,3.12,3.12,0,0,1-.82-1.62,8.75,8.75,0,0,1-.05-2.61q.76-7.34,1.52-14.66l-4.18-.41c.11-1.11.21-2.23.32-3.34l4.2.41.72-6.9c1.37.14,2.75.29,4.12.45l-.78,6.89C187.12,15.48,188.76,15.67,190.4,15.88Z"/><path class="cls-1" d="M208.51,40.51a11.14,11.14,0,0,1-6.9.84,12.71,12.71,0,0,1-4.7-1.63,10,10,0,0,1-3.11-3,10.87,10.87,0,0,1-1.6-4.11,17.91,17.91,0,0,1-.16-4.94A13.25,13.25,0,0,1,193.51,23a11.08,11.08,0,0,1,2.9-3.45,10.64,10.64,0,0,1,4-1.95,11.68,11.68,0,0,1,4.77-.18,10.66,10.66,0,0,1,5.23,2.16,10.23,10.23,0,0,1,2.87,3.81,12.29,12.29,0,0,1,1,4.55,17.46,17.46,0,0,1-.42,4.43Q205,30.73,196,29.46a8.9,8.9,0,0,0,0,2.91A6.51,6.51,0,0,0,199.05,37a8.51,8.51,0,0,0,3.22,1.14,7.05,7.05,0,0,0,4.19-.44,5.46,5.46,0,0,0,2.65-3l3.84.69A9.41,9.41,0,0,1,208.51,40.51Zm1.62-14.81A6.51,6.51,0,0,0,209,23.4a6.89,6.89,0,0,0-1.94-1.73,7.13,7.13,0,0,0-2.68-1,7.47,7.47,0,0,0-2.88.07,6.58,6.58,0,0,0-2.35,1.08,6.34,6.34,0,0,0-1.71,1.86,7.49,7.49,0,0,0-1,2.41q6.92,1,13.81,2.2A7.48,7.48,0,0,0,210.13,25.7Z"/><path class="cls-1" d="M231.41,30a10.42,10.42,0,0,1,3.09-3.24,10.54,10.54,0,0,1,4.29-1.63,14.49,14.49,0,0,1,10.14,2.58,10.66,10.66,0,0,1,3,3.48,10.38,10.38,0,0,1,1.18,4.32,15.33,15.33,0,0,1-2.59,9.16,11.22,11.22,0,0,1-3.17,3.09,10.61,10.61,0,0,1-4.16,1.51,14.23,14.23,0,0,1-9.61-2.44,10.53,10.53,0,0,1-2.94-3.32,11.07,11.07,0,0,1-1.31-4.23,14.9,14.9,0,0,1,.32-4.8A14.45,14.45,0,0,1,231.41,30Zm2,9.21a8,8,0,0,0,.92,3,7,7,0,0,0,1.92,2.2,7.4,7.4,0,0,0,2.65,1.27,7.31,7.31,0,0,0,2.94.15,7,7,0,0,0,2.73-1,7.8,7.8,0,0,0,2.26-2.22,11.18,11.18,0,0,0,1.55-3.45,10.76,10.76,0,0,0,.41-3.76,7.77,7.77,0,0,0-.86-3.09A7.14,7.14,0,0,0,246,30a7.82,7.82,0,0,0-2.76-1.31,7.69,7.69,0,0,0-3-.17,6.89,6.89,0,0,0-2.8,1.07,7.94,7.94,0,0,0-2.24,2.3,11,11,0,0,0-1.43,3.5A11.15,11.15,0,0,0,233.45,39.2Z"/><path class="cls-1" d="M257,33l.93-3.22c1.35.39,2.7.78,4,1.19l1-3.3a5.16,5.16,0,0,1,2.95-3.58,8.14,8.14,0,0,1,5.46.18,13.21,13.21,0,0,1,1.28.5,8.42,8.42,0,0,1,1.21.68l-1,3.15a5.33,5.33,0,0,0-1.05-.6c-.39-.17-.76-.31-1.1-.42a4.3,4.3,0,0,0-2.42-.2c-.64.17-1.1.75-1.41,1.72s-.64,2.05-1,3.07c1.54.49,3.08,1,4.62,1.47-.34,1.07-.69,2.13-1,3.2-1.53-.5-3.06-1-4.59-1.46L259,54.29c-1.24-.39-2.49-.77-3.73-1.14L261,34.2C259.65,33.79,258.31,33.4,257,33Z"/></svg>