<?xml version="1.0" encoding="utf-8"?>
<!-- Generator: Adobe Illustrator 27.0.0, SVG Export Plug-In . SVG Version: 6.00 Build 0)  -->
<svg version="1.1" id="Layer_1" xmlns="http://www.w3.org/2000/svg" xmlns:xlink="http://www.w3.org/1999/xlink" x="0px" y="0px"
	 viewBox="0 0 1874.6 222.3" style="enable-background:new 0 0 1874.6 222.3;" xml:space="preserve">
<style type="text/css">
	.st0{fill:#FDFDFD;}
	.st1{fill:#040404;}
	.st2{fill:#484B50;}
	.st3{fill:#4A4D51;}
	.st4{fill:#ADADAD;}
</style>
<g>
	<path class="st0" d="M386,111.1c0-35.1,0-70.2,0-105.3c0-1.2,0-2.3,0-3.5c0-1.4-0.5-2.2-2-2.2c-1.8-0.1-2.3,0.8-2.3,2.4
		c0,0.7,0,1.5,0,2.2c0,71.1,0,142.2,0,213.3c0,0.9,0,1.7,0,2.6c0,1.3,0.8,1.8,2,1.8c1.4,0,2.2-0.5,2.3-2c0-1.2,0-2.3,0-3.5
		C386,181.6,386,146.3,386,111.1z"/>
	<path class="st1" d="M50.4,141.5c4.8-16.7,11-32.8,17-49c3.4-9.2,7-18.5,10.3-27.8c0.8-2.2,1.8-3,4-2.9c4.4,0.2,10-1.4,12.8,0.7
		c2.9,2.2,1.4,8.1,1.7,12.4c1.9,27.6,3.5,55.2,5.3,82.7c0.2,2.4-0.4,3.2-3,3.3c-9.5,0.2-9.6,0.3-10.2-9.5
		c-1.6-24.8-3.3-49.6-3.6-74.6c-1.4,0.6-1.3,2.1-1.7,3.2c-8.3,26-18.4,51.4-27.5,77.1c-1.7,4.8-5.3,2.1-8,2.8
		c-2.5,0.6-3.4-0.8-4.2-3.1c-8.2-24.8-17.6-49.2-24.6-74.4c-0.2-0.7-0.1-1.8-1.5-2c-1.5,1-0.7,2.6-0.7,3.9
		c-0.9,24.6-2.6,49.1-4.2,73.6c-0.2,2.7-1.1,2.9-3.4,2.9c-9.5,0.1-9.4,0.2-8.7-9.2c2-27.6,3.9-55.2,5.7-82.7C6.5,62,6.4,62,13.6,62
		c9.6,0,9.6,0,12.8,8.9C34.6,94.2,43.7,117.4,50.4,141.5z"/>
	<path class="st1" d="M193.8,111.2c0-15,0.1-30-0.1-45c0-3.1,0.4-4.2,3.9-4.1c15.4,0.2,30.7,0.2,46.1,0c3.2,0,4.3,0.6,4.2,4
		c-0.3,7,0,7-7.3,7c-10.1,0-20.2,0.1-30.3-0.1c-2.9-0.1-3.6,0.9-3.6,3.7c0.2,8,0.2,16,0,24.1c-0.1,3.1,1.1,3.5,3.7,3.4
		c10.5-0.1,21.1,0.1,31.6-0.1c2.9,0,3.7,0.7,3.6,3.6c-0.1,7,0,7-7.1,7c-9.4,0-18.7,0.1-28.1-0.1c-2.6,0-3.8,0.3-3.7,3.4
		c0.2,9.6,0.2,19.2,0,28.9c-0.1,3.1,1.1,3.5,3.8,3.5c12-0.1,24,0.1,36-0.1c3,0,3.6,0.9,3.5,3.6c-0.1,7.1,0,7.1-7,7.1
		c-14.9,0-29.9-0.1-44.8,0.1c-3.5,0-4.7-0.5-4.6-4.4C193.9,141.5,193.8,126.4,193.8,111.2z"/>
	<path class="st1" d="M120.9,111.2c0-15.2,0.1-30.3-0.1-45.5c0-2.7,0.4-3.7,3.5-3.7c15.7,0.2,31.3,0.1,47,0c2.8,0,3.8,0.6,3.7,3.5
		c-0.1,7.5,0,7.5-7.3,7.5c-10.1,0-20.2,0.1-30.3,0c-2.4,0-3.7,0.2-3.6,3.2c0.2,8.3,0.2,16.6,0,24.9c-0.1,2.7,1,3,3.3,3
		c10.7-0.1,21.4,0.1,32-0.1c2.9,0,3.6,0.7,3.6,3.6c-0.1,7,0,7-7.1,7c-9.1,0-18.2,0.3-27.2-0.1c-4.1-0.2-4.7,1.2-4.6,4.8
		c0.3,8.7,0.3,17.5,0,26.2c-0.1,3.7,0.6,5,4.7,4.9c11.7-0.3,23.4,0,35.1-0.2c3,0,3.6,0.9,3.5,3.7c-0.1,7.1,0,7.1-7,7.1
		c-14.9,0-29.9-0.1-44.8,0.1c-3.5,0-4.7-0.6-4.6-4.4C121.1,141.5,120.9,126.4,120.9,111.2z"/>
	<path class="st1" d="M266.7,111.9c0-15.2,0.1-30.3-0.1-45.5c0-2.4,0.4-3.6,3.1-3.8c12.1-1.3,24.2-2.6,36.2,0.3
		c13.1,3.1,20.5,11.2,22,23.9c1.6,13.4-4.4,25.1-16,30.9c-9,4.5-18.8,5.5-28.6,4.4c-3.6-0.4-3.7,0.7-3.7,3.5
		c0.1,10.6,0,21.3,0.1,31.9c0,2.8-0.7,3.7-3.6,3.6c-9.5-0.1-9.5,0.1-9.5-9.4C266.7,138.4,266.7,125.1,266.7,111.9z M279.7,91.6
		c0,5.5,0,11,0,16.6c0,1.4-0.3,2.7,2,3.1c7.6,1.2,15.1,1.1,22.3-2.1c7.7-3.5,11.8-11.5,10.9-20.5c-0.9-8.4-5.7-13.8-14.2-16.1
		c-6-1.6-12.2-0.9-18.3-0.6c-1.9,0.1-2.7,1-2.7,3.1C279.8,80.6,279.7,86.1,279.7,91.6z"/>
	<path class="st2" d="M498.7,41.2c-5.6,9.6-11.3,19.2-16.9,28.8c-2.5,4.3-5,8.5-7.5,12.8c-2.6,4.4-5.3,4.4-7.9,0.1
		c-7.6-12.8-15.1-25.6-22.6-38.4c-0.7-1.2-1.5-2.4-2.4-3.9c-1.1,1.3-0.6,2.6-0.6,3.8c0,15.4-0.1,30.9,0.1,46.3
		c0,3.3-0.8,4.3-4.1,4.2c-3.1-0.1-4.3-0.6-4.2-4.1c0.2-21.6,0.1-43.1,0.2-64.7c0-1.4-1.3-4,1.6-4.2c2.4-0.1,5-1,6.8,2.2
		c8.2,14.4,16.7,28.7,25.1,43c1.3,2.2,2.7,4.4,4.4,7.4c1.7-2.9,3.1-5.2,4.4-7.5c8.2-14.1,16.4-28.2,24.6-42.3c0.9-1.5,1.5-2.9,3.8-3
		c3.5-0.1,5,0.3,5,4.6c-0.3,21.4-0.2,42.8-0.1,64.3c0,3-0.4,4.5-3.9,4.3c-3.1-0.2-4.6-0.5-4.6-4.2c0.2-16.5,0.1-32.9,0.1-49.4
		C499.4,41.4,499.1,41.3,498.7,41.2z"/>
	<path class="st2" d="M1190.7,207.6c6.9,5.7,14.9,7.6,23.6,7.2c10.4-0.6,15.3-5.1,16.7-15.4c0.3-2.4,0.7-4.8,0.1-7.3
		c-16.1,10.8-32.7,10.2-42.1-1.5c-8.9-11-8-27.4,2.1-37c10.6-10,27.4-9.4,40.4,1.9c0-1.9,0.2-3.5,0-5c-0.4-3.3,0.6-4.6,4.2-4.4
		c3,0.1,3.9,0.8,3.9,3.9c-0.2,15.3,0,30.6-0.1,45.9c-0.2,17.5-9.1,26.1-26.7,26.3c-7.1,0.1-14-1-20.4-4.2
		C1185.3,214.5,1185.2,213.9,1190.7,207.6z M1211.4,192.5c11.6,0,20-7.9,20.1-19.1c0.1-11.3-8.3-19.4-20.2-19.4
		c-11.7,0-19.8,7.9-19.7,19.3C1191.7,184.6,1199.8,192.5,1211.4,192.5z"/>
	<path class="st2" d="M1367.8,154.5c11.5-11.4,30.7-10.7,38.8,2c5-6.6,11.7-9.7,19.8-10.1c14.1-0.7,23.3,7.5,23.6,21.5
		c0.2,10.2-0.1,20.4,0.1,30.6c0.1,4.1-2.5,3-4.7,3.1c-2.3,0.2-4.2,0.2-4.1-3.3c0.2-9.5,0.1-19,0.1-28.4c-0.1-9.5-4.8-15.4-12.7-16
		c-10.2-0.8-17.4,4.1-19,13.4c-1.7,9.8-0.4,19.8-0.7,29.7c-0.1,4.3-2.9,6.1-7,4.6c-1.8-0.7-1.2-2.2-1.2-3.3c-0.1-8.5,0-16.9,0-25.4
		c0-1.7-0.1-3.5-0.3-5.2c-1.4-9.5-6-13.7-14.9-13.7c-9.3,0-16,5.4-17,14.2c-1.1,9.7-0.5,19.5-0.4,29.3c0,3.6-1.2,4.2-4.5,4.3
		c-3.4,0.1-4.1-1-4-4.2c0.2-15.7,0.2-31.5,0-47.2c0-3.2,0.6-4.3,4-4.2c3.2,0.1,4.6,0.8,4.1,4.1
		C1367.6,151.4,1367.8,152.5,1367.8,154.5z"/>
	<path class="st2" d="M1132.7,100.8c7.3,6,15.6,7.9,24.7,7.2c9.8-0.8,14.4-5.2,15.7-15c0.3-2.4,0.4-4.9,0.7-8.8
		c-6.8,7.2-14.5,9.6-23.1,9c-8.8-0.6-16-4.1-21.1-11.6c-7.3-10.9-5.5-26.4,4.1-35.1c10.6-9.6,26.6-8.9,40,2.2c0-1.7,0.2-3.1,0-4.5
		c-0.7-4,1-4.9,4.8-4.8c2.8,0.1,3.4,1,3.3,3.6c-0.1,15.6,0.1,31.2-0.1,46.8c-0.2,17-9.3,25.6-26.3,25.7c-7.1,0.1-14-0.9-20.4-4
		C1127.4,107.9,1127.3,107.6,1132.7,100.8z M1153.2,85.8c12,0.1,20.3-7.9,20.4-19.3c0-11.2-8.3-19.2-19.9-19.3
		c-11.9,0-19.9,7.6-20,19C1133.6,77.6,1141.7,85.7,1153.2,85.8z"/>
	<path class="st2" d="M1436.1,48.8c0-2.1,0.2-3.5,0-5c-0.5-3.4,0.7-4.5,4.2-4.4c3.1,0.1,3.9,0.9,3.9,4c-0.2,15.3,0,30.6-0.1,45.9
		c-0.2,17.5-9.2,26.1-26.7,26.3c-7.1,0.1-14-1-20.4-4.2c-7.1-3.5-7.2-4.2-1.8-10.4c7.3,5.9,15.8,7.9,25,7c9.6-1,14-5.2,15.3-14.8
		c0.3-2.4,0.4-4.9,0.7-8.9c-7,7.3-14.8,9.7-23.5,9.1c-9-0.7-16.3-4.5-21.2-12.2c-7-11.1-4.7-26.7,5.1-35
		C1407.6,36.8,1423.4,37.8,1436.1,48.8z M1416,85.8c11.6,0,20-7.9,20.1-19.1c0.1-11.3-8.3-19.4-20.2-19.4
		c-11.7,0-19.8,7.9-19.7,19.3C1396.2,77.9,1404.4,85.8,1416,85.8z"/>
	<path class="st2" d="M1865.9,84.9c-13.6,13.1-33.3,9-41.4-0.3c-9.3-10.7-8.7-27.5,1-37.4c8-8.1,28.1-12.2,40.4,1.4
		c0.9-1.4,0.4-2.8,0.4-4.2c0.1-4.6,2.3-6.2,6.7-4.8c1.1,0.3,1.3,1,1.3,1.9c-0.5,18.6,1.4,37.3-1,55.9c-1.3,9.7-7.7,15.5-17.3,17.3
		c-11.1,2.1-21.8,1-31.7-5c-3.3-2-2.9-6.7,0.6-8.4c1.2-0.6,1.5,0.4,2.1,0.9c6.6,4.7,14,6.3,22,5.9c10.5-0.5,15.4-5,16.8-15.3
		C1866.1,90.3,1866.5,87.9,1865.9,84.9z M1846,85.8c11.9,0,20.3-8,20.3-19.3c0-11.2-8.4-19.2-20-19.2c-11.8,0-19.9,7.7-19.9,19.1
		C1826.3,77.7,1834.5,85.7,1846,85.8z"/>
	<path class="st2" d="M539.8,193.5c-14.8,11.5-30.8,11.3-41-0.2c-9.4-10.6-8.9-29.1,0.9-39.2c7.9-8.2,26.3-12.5,39.1,0.3
		c1.4-0.8,0.7-2.1,0.7-3.1c0.1-8,0.2-16,0-24c-0.1-3.7,2.2-3,4.3-3c2.1,0,4.3-0.7,4.3,3c-0.1,23.7-0.1,47.5,0,71.2
		c0,3.6-2.1,3-4.3,3.1c-2.3,0-4.6,0.3-4.1-3.2C540,197,539.8,195.4,539.8,193.5z M520,154c-11.3,0-19.4,8.4-19.4,20.2
		c0,12.2,7.9,20.5,19.6,20.4c11.3,0,19.4-8.5,19.5-20.2C539.8,162.4,531.6,154,520,154z"/>
	<path class="st2" d="M1256.9,58.3c0-10.8,0.1-21.6-0.1-32.4c0-2.9,0.6-4,3.8-4c14.3,0.2,28.7,0.2,43,0c3.5,0,3.6,1.4,3.7,4.1
		c0,2.7-0.5,3.8-3.5,3.7c-11.6-0.2-23.1,0-34.7-0.1c-2.7,0-3.5,0.6-3.4,3.4c0.2,6,0.2,12,0,17.9c-0.1,2.8,0.8,3.4,3.5,3.3
		c9.9-0.1,19.9,0.1,29.8-0.1c3.1-0.1,3.8,0.9,3.9,3.9c0,3.3-1.2,3.8-4.1,3.7c-9.8-0.2-19.6,0-29.4-0.1c-2.8,0-3.8,0.7-3.7,3.6
		c0.2,6.3,0.2,12.5,0,18.8c-0.1,3.1,1.1,3.5,3.8,3.5c12-0.1,24,0.1,36-0.1c3.1,0,3.6,1,3.5,3.7c-0.1,2.5-0.2,3.9-3.4,3.9
		c-15.1-0.2-30.1-0.1-45.2,0c-2.7,0-3.5-0.8-3.4-3.5C1257,80.5,1256.9,69.4,1256.9,58.3z"/>
	<path class="st2" d="M431.6,165.1c0-10.8,0.1-21.6-0.1-32.4c0-2.8,0.5-4.1,3.7-4c14.3,0.2,28.7,0.2,43,0c3.4,0,3.6,1.4,3.7,4.1
		c0.1,3.2-1,3.8-4,3.8c-11.4-0.2-22.8,0-34.2-0.1c-2.6,0-3.6,0.5-3.5,3.3c0.2,6,0.2,12,0,17.9c-0.1,2.7,0.7,3.4,3.4,3.4
		c10.1-0.2,20.2,0.1,30.3-0.2c3.3-0.1,3.4,1.4,3.4,3.8c0.1,2.7-0.5,3.8-3.5,3.8c-9.9-0.2-19.9,0-29.8-0.1c-2.8,0-3.8,0.6-3.7,3.6
		c0.2,6.3,0.2,12.5,0,18.8c-0.1,3,1,3.6,3.7,3.5c12-0.1,24,0,36-0.1c3,0,3.7,0.9,3.6,3.7c-0.1,2.4-0.1,4-3.4,3.9
		c-15.1-0.2-30.1-0.1-45.2,0c-2.7,0-3.5-0.7-3.5-3.4C431.7,187.2,431.6,176.2,431.6,165.1z"/>
	<path class="st2" d="M1014.6,165.3c0-10.8,0.1-21.6-0.1-32.3c0-3.1,0.5-4.4,4-4.2c10.4,0.4,20.8-0.6,31.1,0.9
		c9.2,1.3,16.8,5.4,20.4,14.4c3.4,8.8,3,17.6-3,25.2c-5.7,7.4-14.1,9.5-23,9.7c-5.7,0.1-11.4,0.2-17.1,0c-3-0.1-3.7,0.9-3.6,3.7
		c0.2,5.1-0.2,10.2,0.1,15.3c0.3,3.7-1.6,3.9-4.4,3.9c-2.6-0.1-4.7,0.3-4.6-3.7C1014.8,187.1,1014.6,176.2,1014.6,165.3z
		 M1023.4,154.1c0,4.9,0,9.9,0,14.8c0,1.7,0.3,2.7,2.4,2.6c6.7-0.1,13.4,0.2,20.1-0.2c10.2-0.6,16.8-6.8,17.2-15.7
		c0.5-10.6-4.4-17.2-15.3-18.7c-7.5-1-15.1-0.4-22.7-0.5c-2.2,0-1.7,1.6-1.7,2.8C1023.4,144.2,1023.4,149.1,1023.4,154.1z"/>
	<path class="st3" d="M1649.9,70.5c-6.3,0-12.6,0.2-18.9-0.1c-3.9-0.2-4,1.6-3.2,4.4c3.9,12.9,22.1,17.7,33.4,8.5
		c3.1-2.5,4.2-1.3,6.1,0.8c1.4,1.6,1.6,2.8-0.2,4.3c-9.4,8-20.2,9-31.3,5c-10.9-3.9-16.7-12.4-17.3-24c-0.6-11.9,3.6-21.5,14.7-27
		c18.3-9.1,38.9,4,39,24.4c0,2.8-0.7,3.9-3.6,3.8C1662.4,70.3,1656.1,70.5,1649.9,70.5z M1645.1,64c5.3,0,10.5-0.1,15.8,0
		c2.2,0,3.2-0.4,2.7-2.9c-1.4-7.7-9.1-13.9-17.8-13.9c-8.9,0-16.8,6-18.2,13.9c-0.5,2.5,0.5,2.9,2.7,2.9
		C1635.2,63.9,1640.1,64,1645.1,64z"/>
	<path class="st3" d="M1587.2,70.5c-6.3,0-12.6,0.2-18.9-0.1c-3.3-0.1-3.8,1.3-3,3.9c2.3,7.2,7.2,11.6,14.5,13.1
		c7.3,1.5,14.4,0.6,20.1-4.8c2.3-2.2,3.2-0.6,4.4,0.8c1.3,1.5,3,2.6,0.7,4.9c-7.3,7.2-22.1,9.3-32.9,4.5c-11.2-5-16.7-15.3-15.7-29
		c0.8-11,8.3-20.1,19-23.2c17.9-5.1,34.8,7.9,34.6,26.4c0,2.8-0.9,3.5-3.5,3.4C1600.1,70.4,1593.6,70.5,1587.2,70.5z M1582.7,64
		c5.4,0,10.8-0.1,16.2,0c2.3,0.1,2.6-0.9,2.3-2.9c-1.3-7.7-9.1-13.9-17.8-13.9c-8.9,0-16.7,6-18.3,13.9c-0.5,2.5,0.4,3,2.7,2.9
		C1572.8,63.9,1577.8,64,1582.7,64z"/>
	<path class="st3" d="M562.6,88.5c-7.8,7.5-16.6,8.2-25.8,5.9c-8.6-2.2-12.8-8.7-12.1-17.3c0.7-7.2,6.2-12.2,14.5-13.3
		c6.6-0.9,13.1-0.8,19.7-0.6c3.3,0.1,3.9-1,3.6-4c-0.6-6.9-4.9-11.4-12.2-11.9c-6.6-0.5-12.8,0.9-18.3,4.7c-1.4,0.9-2.7,2.3-3.6-0.2
		c-0.7-1.9-4.2-3.6-0.5-6.1c6.5-4.4,13.8-6.2,21.6-5.9c14.6,0.5,21.6,7.7,21.7,22.2c0.1,9.6-0.1,19.2,0.1,28.9
		c0,2.7-0.1,4.5-3.6,4.2c-2.8-0.2-5.5,0.2-4.7-4C563,90.5,562.8,89.9,562.6,88.5z M562.6,73.9c-0.7-1.2,1.4-4.2-1.6-4.3
		c-7.4-0.2-14.9-0.8-22.2,1.2c-3.5,0.9-5.4,3.5-5.8,6.9c-0.4,3.4,1,6.2,3.9,8.2c1.6,1.1,3.4,1.6,5.3,2
		C552.9,90.1,562.6,83.6,562.6,73.9z"/>
	<path class="st3" d="M728.6,195.1c-7.9,7.6-16.7,8.3-25.8,6c-8.4-2.1-12.7-8.4-12.1-16.8c0.5-7.5,6-12.6,14.5-13.8
		c6.7-0.9,13.4-0.8,20.1-0.6c2.9,0.1,3.4-0.9,3.2-3.5c-0.4-7.3-5-12-12.6-12.4c-6.6-0.4-12.8,1.1-18.2,4.9c-1.4,1-2.6,1.6-3.3-0.4
		c-0.6-1.8-4.2-3.4-0.9-5.8c3.9-2.9,8.4-4.7,13.2-5.6c3.1-0.5,6.4-0.7,9.6-0.6c13.6,0.5,20.6,7.6,20.8,21.2
		c0.2,10.1-0.1,20.1,0.1,30.2c0,2.8-0.6,4.1-3.6,3.8c-2.4-0.2-5.3,0.7-4.8-3.5C729,197.6,728.8,196.9,728.6,195.1z M718.4,176.2
		c-3.7,0-8.6-0.1-13.5,1.2c-3.5,0.9-5.5,3.3-6,6.8c-0.5,3.4,0.8,6.3,3.7,8.3c7.6,5.4,21,2,25.1-6.3c1.5-2.9,1.4-6.3,0.5-8.9
		c-0.9-2.4-4.2-0.7-6.3-1C721.2,176.1,720.4,176.2,718.4,176.2z"/>
	<path class="st3" d="M796.1,88.5c-8.1,7.7-17.1,8.3-26.4,5.8c-8.3-2.2-12.3-8.8-11.5-17.3c0.7-7,6.2-12,14.2-13.1
		c6.8-1,13.7-0.8,20.6-0.7c2.6,0,3.2-0.8,3.1-3.3c-0.3-7.4-4.8-12.2-12.3-12.7c-6.6-0.5-12.8,0.9-18.3,4.8c-1.5,1.1-2.8,1.9-3.6-0.4
		c-0.7-1.8-4.1-3.5-0.7-5.7c10.5-6.7,21.7-8.5,33.3-3.5c8.1,3.5,9.9,11,10.1,18.9c0.2,10.1,0,20.1,0.1,30.2c0,2.5-0.5,4-3.3,3.5
		c-2.1-0.3-5.4,1.3-5-3.2C796.5,91,796.3,90.1,796.1,88.5z M787.4,69.5c-5,0.1-9.9-0.1-14.8,1.2c-3.5,0.9-5.5,3.3-6.1,6.7
		c-0.5,3.4,0.7,6.3,3.6,8.4c7.6,5.5,21.5,1.9,25.3-6.6c1.3-2.9,1.4-6.3,0.2-8.9c-0.8-1.9-4-0.5-6.1-0.8
		C788.9,69.4,788.1,69.5,787.4,69.5z"/>
	<path class="st3" d="M1332.6,195.3c-7.7,7.3-16.3,8.1-25.4,6c-8.7-2.1-13.1-8.4-12.5-17c0.5-7.5,6-12.6,14.6-13.7
		c6.7-0.9,13.4-0.7,20.1-0.6c2.4,0,3.3-0.5,3.2-3.1c-0.3-7.4-4.7-12.2-12.2-12.8c-6.6-0.5-12.8,0.9-18.3,4.7c-1.4,1-2.7,2.2-3.6-0.3
		c-0.8-1.9-4.2-3.7-0.5-6.1c9.8-6.2,20.4-7.9,31.4-4.1c9.1,3.1,11.6,10.9,11.7,19.6c0.2,9.9,0,19.8,0.1,29.7c0,2.7-0.2,4.4-3.7,4.2
		c-2.8-0.2-5.4,0.1-4.7-4C1333,197.2,1332.8,196.6,1332.6,195.3z M1323.6,176.2c-5,0-9.9-0.1-14.8,1.2c-3.5,1-5.4,3.4-5.9,6.9
		c-0.4,3.3,0.8,6,3.5,8c7.6,5.8,21.9,2.1,25.6-6.7c1.2-2.8,1.2-6,0.2-8.5c-0.9-2.2-3.9-0.6-6-0.9
		C1325.4,176.1,1324.5,176.2,1323.6,176.2z"/>
	<path class="st2" d="M1147.2,202.1c-16.6,0-28.2-11.4-28.1-27.9c0-16.2,11.6-27.8,27.9-27.8c16.3-0.1,28.5,12,28.3,28
		C1175,190.5,1163.3,202.1,1147.2,202.1z M1147,154c-11.4,0-19.4,8.3-19.5,20.2c0,12.2,7.9,20.5,19.5,20.5
		c11.4,0,19.4-8.3,19.5-20.2C1166.7,162.4,1158.6,154,1147,154z"/>
	<path class="st2" d="M847.3,202.1c-16.2,0-27.7-11.6-27.7-27.9c0-16.2,11.6-27.8,27.9-27.8c16.3-0.1,28.5,12,28.3,28
		C875.7,190.7,863.9,202.1,847.3,202.1z M847.7,154c-11.5,0-19.5,8.2-19.6,20c-0.1,12.2,7.8,20.6,19.4,20.6
		c11.6,0.1,19.7-8.4,19.7-20.5C867.2,162.3,859.1,154,847.7,154z"/>
	<path class="st3" d="M964.7,87.5c-7.8,8-16.6,9.2-26.1,7c-8.6-2-13.8-7.6-15.1-16.2c-1.8-12.1-0.7-24.4-0.7-36.7
		c0-3.9,3.5-1.7,5.4-2.1c2-0.5,3.2,0.1,3.2,2.7c-0.1,9.5-0.1,18.9-0.1,28.4c0,11.1,5,16.9,14.7,17.2c11,0.3,18.2-6.1,18.6-17
		c0.3-9.2,0.3-18.4,0.1-27.5c-0.1-3.6,1.3-4,4.3-4c2.9,0,4.5,0.2,4.4,3.9c-0.2,15.9-0.2,31.8,0,47.7c0,2.9-0.5,4.2-3.8,4.1
		c-3-0.1-5.3-0.2-4.6-4.1C965.2,90.1,964.9,89.3,964.7,87.5z"/>
	<path class="st3" d="M700.5,87.5c-7.7,8-16.5,9.3-26,7.1c-8.6-2-14.4-8.2-15.5-16.9c-1.5-11.9-0.5-23.9-0.7-35.8
		c0-4.2,3.4-1.9,5.3-2.3c2.2-0.5,3.4,0.2,3.4,2.9c-0.2,9.5-0.1,18.9-0.1,28.4c0,10.8,5,16.6,14.5,17c10.8,0.4,18.3-5.9,18.7-16.3
		c0.4-9.3,0.4-18.7,0.1-28c-0.1-3.8,1.5-4.1,4.6-4.2c3.3-0.1,4.2,0.9,4.2,4.2c-0.2,15.7-0.2,31.5,0,47.2c0,3.1-0.6,4.3-4,4.3
		c-3.5,0-4.9-1-4.3-4.4C700.9,90,700.7,89.2,700.5,87.5z"/>
	<path class="st3" d="M609.2,194.2c-7.3,7.7-15.7,9.2-24.7,7.5c-10.5-2-16.6-9.1-17-20.2c-0.4-10.8,0-21.5-0.2-32.3
		c0-3.8,2.6-2.7,4.5-2.8c2-0.1,4-0.6,4,2.8c-0.2,9.5-0.1,18.9-0.1,28.4c0,11.1,5,16.9,14.8,17.2c11,0.3,18.2-6.1,18.6-16.9
		c0.3-9,0.3-18.1,0.1-27.1c-0.1-3.3,0.6-4.6,4.3-4.5c3.3,0.1,4.5,0.7,4.5,4.3c-0.2,15.7-0.2,31.4,0,47.2c0,3.3-0.9,4.2-4.1,4.2
		c-3.1,0-4.8-0.6-4.2-4.1C609.6,196.9,609.3,196,609.2,194.2z"/>
	<path class="st2" d="M1762,48.3c6.4-6.8,13.7-9.1,21.9-8.5c12.9,0.9,20.4,8.4,20.8,21.3c0.3,10.3,0,20.7,0.2,31
		c0.1,3.9-2.5,2.8-4.4,2.8c-2,0-4.5,0.9-4.4-2.9c0.2-9.5,0.1-18.9,0.1-28.4c0-9.8-4.9-15.8-13.3-16.3c-11.2-0.8-19.1,4.9-20.2,14.8
		c-1,9.4-0.2,18.9-0.5,28.4c0,1.5,1,3.7-1,4.2c-2,0.6-4.3,0.3-6.5,0.1c-1-0.1-0.8-1.4-0.8-2.2c0-16.8,0.1-33.5-0.1-50.3
		c0-3.5,2.2-2.6,4.1-2.7c1.9,0,4.4-0.7,4,2.7C1761.8,44,1762,45.7,1762,48.3z"/>
	<path class="st2" d="M1499.5,48.3c6.6-7.1,14.1-9.2,22.5-8.5c12.2,1,19.6,8.3,20.2,20.6c0.5,10.6,0.1,21.3,0.2,31.9
		c0.1,3.6-2.4,2.6-4.2,2.6c-1.9-0.1-4.6,1.3-4.6-2.7c0.1-9.6,0.1-19.2,0-28.9c0-9.7-5-15.6-13.5-16.1c-11-0.6-18.8,4.9-19.9,14.6
		c-1.1,9.6-0.4,19.2-0.4,28.8c0,3.4-0.9,4.4-4.4,4.5c-3.8,0.1-4.1-1.5-4.1-4.6c0.1-15.7,0.1-31.5,0-47.2c0-3.1,0.8-3.9,3.9-3.9
		c3,0.1,4.8,0.4,4.2,4C1499.3,44.7,1499.5,46,1499.5,48.3z"/>
	<path class="st2" d="M1331.8,48.3c6.6-7,14.1-9.2,22.5-8.4c12.6,1.1,19.9,8.6,20.3,21.4c0.3,10.2,0,20.4,0.2,30.6
		c0.1,3.6-2,3.2-4.1,3.1c-2.1-0.1-4.8,1-4.7-3.1c0.2-9.5,0.1-18.9,0.1-28.4c0-9.7-5-15.7-13.4-16.2c-11-0.7-18.9,4.8-20,14.5
		c-1.1,9.7-0.2,19.5-0.5,29.3c0,1.3,0.9,3.4-1.1,3.7c-2.1,0.4-4.4,0.3-6.5-0.1c-1.2-0.2-0.7-1.8-0.7-2.7c0-16.5,0.1-32.9-0.1-49.4
		c0-3.3,1.7-3.1,3.8-3c2,0.1,4.7-0.9,4.3,2.9C1331.6,44,1331.8,45.6,1331.8,48.3z"/>
	<path class="st2" d="M1068.4,48.3c6.4-6.8,13.7-9,22-8.5c12.7,0.9,20.3,8.3,20.7,20.9c0.4,10.5,0,21,0.2,31.5
		c0.1,4-2.6,2.6-4.5,2.7c-2.1,0.1-4.4,0.7-4.3-3c0.2-9.5,0.1-18.9,0.1-28.4c0-9.8-5-15.7-13.4-16.2c-11-0.7-18.9,4.8-20,14.5
		c-1.1,9.7-0.4,19.5-0.4,29.3c0,3.4-1.1,4.1-4.3,4.1c-3,0-4.3-0.4-4.3-4c0.2-15.7,0.2-31.5,0-47.2c0-3.2,0.5-4.5,4.2-4.5
		c3.5,0,4.3,1.3,3.9,4.3C1068.3,44.9,1068.4,46,1068.4,48.3z"/>
	<path class="st2" d="M597.8,48.3c6.5-6.9,13.8-9.1,22.1-8.5c12.4,0.9,20.1,8.2,20.6,20.6c0.5,10.6,0.1,21.3,0.2,31.9
		c0.1,3.6-2.4,2.6-4.2,2.6c-1.9-0.1-4.6,1.3-4.6-2.6c0.1-9.6,0.1-19.2,0-28.9c0-9.7-5-15.7-13.5-16.1c-11-0.6-18.9,4.9-19.9,14.6
		c-1.1,9.7-0.4,19.5-0.3,29.3c0,3.6-1.4,3.9-4.4,4c-3.2,0.1-4.2-0.7-4.2-4.1c0.2-15.9,0.2-31.8,0-47.6c0-3,0.8-4,3.9-3.9
		c3,0.1,4.9,0.4,4.3,4C597.6,44.6,597.8,46,597.8,48.3z"/>
	<path class="st2" d="M897.2,155.1c6.6-7,13.9-9.1,22.2-8.5c12.3,0.9,19.9,8,20.5,20.2c0.6,10.8,0.1,21.6,0.3,32.3
		c0,4-2.9,2.3-4.7,2.5c-1.9,0.2-4.1,0.7-4.1-2.7c0.2-9.5,0.1-18.9,0.1-28.4c0-10.1-5-16-13.6-16.5c-11.3-0.6-18.9,5.1-19.9,15.1
		c-1,9.6-0.4,19.2-0.3,28.8c0,3.7-1.6,3.8-4.5,3.9c-2.8,0-4.1-0.3-4.1-3.7c0.2-16,0.2-32.1,0-48.1c0-3.2,1-3.8,4-3.8
		c3.1,0,4.7,0.6,4.2,4C897,151.4,897.2,152.7,897.2,155.1z"/>
	<path class="st3" d="M738.1,71.2c0,6.6-0.2,13.1,0.1,19.7c0.1,3.3-0.7,4.4-4.1,4.1c-2.8-0.2-4.8,0.1-4.7-4
		c0.3-12.8-0.1-25.6,0.2-38.5c0.1-4.4-1-6.2-5.4-5.3c-3.7,0.7-4.6-1-4.5-4.5c0.1-2.9,1.3-3.6,3.7-3.2c4.8,0.8,6.2-0.8,6.4-5.9
		c0.6-13.4,13.9-20.2,25.6-13.8c3.3,1.8,1.8,3.5,1.1,5.7c-0.9,2.6-2.1,2.1-4.1,1.1c-3.9-1.8-8-2.1-11.6,0.6
		c-3.6,2.7-2.6,6.8-2.7,10.5c-0.1,2.1,1.5,1.8,2.7,1.8c3.7,0,7.3,0.2,11,0c3.3-0.2,3.1,1.8,3,3.9c-0.1,2,0.6,4.4-2.8,3.9
		c-0.7-0.1-1.5-0.1-2.2,0c-3.7,0.2-8.9-1.7-10.9,0.8c-1.9,2.3-0.6,7.2-0.7,11C738.1,63.1,738.1,67.2,738.1,71.2z"/>
	<path class="st3" d="M844.1,95.4c-10.5,0-20.1-6.2-24.3-16.9c-4.4-11.1-1.5-24.2,6.8-31.7c8.2-7.4,22.5-9.3,32.4-4.3
		c2.2,1.1,4.3,2.6,6,4.4c3.7,3.8,3.5,4.2-0.9,7.2c-1.7,1.2-2.5,0.9-3.8-0.6c-5.9-6.4-14.3-8-22.4-4.5c-7.7,3.3-12,11-11.4,20.3
		c0.6,9.1,5.7,16.2,13.9,18.1c7.5,1.7,14.5,0.9,20-5.4c3-3.4,4.5,0.6,6.4,1.5c2.5,1.2,0.3,2.7-0.5,3.7
		C860.9,93.3,853.9,95.6,844.1,95.4z"/>
	<path class="st3" d="M631.8,173.9c0.2-24.4,25.2-32.7,41.7-24.4c2.1,1.1,3.9,2.5,5.6,4.2c3.4,3.6,2.5,6.4-2.4,7.9
		c-1.8,0.5-1.9-1-2.6-1.7c-7-7.4-19-8.1-27-1.4c-8,6.7-9.2,20.7-2.4,29.3c5.8,7.3,18.4,9.2,26.2,3.8c1.2-0.8,2.3-1.8,3.2-2.9
		c1.2-1.7,2.3-1.6,4-0.6c4.3,2.7,4.5,3.4,0.8,7.2c-6.9,7-20.4,9.1-30.7,4.7C637.6,195.5,631.7,186,631.8,173.9z"/>
	<path class="st4" d="M386,111.1c0,35.3,0,70.5,0,105.8c0,1.2,0,2.3,0,3.5c0,1.5-0.9,2-2.3,2c-1.2,0-1.9-0.5-2-1.8
		c0-0.9,0-1.7,0-2.6c0-71.1,0-142.2,0-213.3c0-0.7,0-1.5,0-2.2c-0.1-1.6,0.5-2.5,2.3-2.4c1.5,0.1,2,0.8,2,2.2c0,1.2,0,2.3,0,3.5
		C386,40.8,386,75.9,386,111.1z"/>
	<path class="st3" d="M891.8,65.2c0,4.2,0,8.5,0,12.7c0,8.7,6.2,12.6,14.2,8.8c1.9-0.9,3.2-1.7,4.3,1c0.9,2.2,2.1,3.9-1,5.6
		c-11.6,6.6-24.9,0.2-25.8-12.9c-0.6-9-0.3-18.1-0.3-27.1c0-6,0-6.2-5.9-6c-3.1,0.1-3.9-0.8-3.9-3.9c-0.1-3.5,1.2-4.5,4.3-3.9
		c4.7,0.8,6-1.1,5.7-5.6c-0.2-2.1-2.1-5.7,3.1-5.9c4.2-0.1,5.9,0.7,5.6,5.4c-0.5,6.1-0.1,6.1,6.1,6.1c2.2,0,4.4,0.2,6.6,0
		c3.2-0.4,3.8,1.1,3.9,4c0.1,3.1-0.8,3.9-3.9,3.9c-4.2-0.1-9.7-1.9-12.1,0.8c-2,2.4-0.6,7.8-0.6,11.8
		C891.8,61.7,891.8,63.5,891.8,65.2z"/>
	<path class="st3" d="M765.3,171.9c0,4.2,0,8.5,0,12.7c0,8.7,6.1,12.6,14.1,8.8c1.9-0.9,3.2-1.7,4.3,0.9c0.9,2.2,2.1,3.9-0.9,5.7
		c-11.6,6.6-24.9,0.3-25.8-12.9c-0.6-9.3-0.6-18.6-0.2-28c0.2-4.7-1.4-5.9-5.6-5.2c-3.4,0.6-4.4-0.8-4.4-4.2c0-3.5,1.7-3.9,4.3-3.5
		c4.6,0.8,6-1.1,5.7-5.6c-0.2-2.1-2.2-5.7,3-5.9c4.2-0.1,6.4,0.7,5.5,5.3c-0.2,1.1,0.1,2.3-0.1,3.5c-0.2,2.1,0.7,2.8,2.7,2.7
		c3.7-0.1,7.3,0.1,11-0.1c3.4-0.2,2.9,1.9,2.9,4c0,2,0.5,4.1-2.9,3.9c-3.6-0.3-7.3,0-11-0.1c-2.1-0.1-2.8,0.6-2.7,2.7
		C765.4,161.7,765.3,166.8,765.3,171.9z"/>
	<path class="st2" d="M1693.5,48.5c4.7-5.7,10.1-8.3,16.4-8.5c1.3-0.1,4-1.4,3.7,1.8c-0.3,2.3,2,5.7-2.8,6.3
		c-11.9,1.5-16.7,6.9-16.9,18.9c-0.2,8.1-0.2,16.3,0,24.4c0.1,3.5-1.6,3.7-4.2,3.6c-2.5-0.1-4.3,0.2-4.3-3.5
		c0.2-16.3,0.2-32.6,0-48.9c0-3.6,1.9-3.1,4.1-3.2c2.3,0,4.5-0.3,4,3.2C1693.3,44.2,1693.5,45.8,1693.5,48.5z"/>
	<path class="st2" d="M1000.8,48.6c4.8-5.9,10.3-8.3,16.6-8.7c1.4-0.1,3.9-1.1,3.5,2c-0.3,2.3,1.8,6-3,6.1c-2.1,0-4.1,0.2-6,0.9
		c-6.4,2.5-9.7,7.3-10.4,13.9c-1,9.4-0.4,18.9-0.3,28.3c0,3.7-1.6,3.9-4.5,3.9c-2.8,0-4.1-0.3-4.1-3.7c0.2-16,0.2-32,0-48
		c0-3,0.7-4,3.8-3.9c2.9,0.1,4.9,0.3,4.3,3.9C1000.6,44.6,1000.8,45.9,1000.8,48.6z"/>
	<path class="st2" d="M1266.8,155.3c5-6.1,10.6-8.4,17.2-8.7c1.6-0.1,3.5-0.3,3,2.2c-0.4,2,1.9,5.3-2.3,5.9
		c-1.6,0.2-3.2,0.1-4.8,0.4c-6.7,1.4-11.6,7.1-12.3,14.6c-0.9,9.3-0.4,18.6-0.3,27.9c0.1,3.8-1.5,4.1-4.6,4.2c-3.5,0.2-4-1.2-4-4.3
		c0.1-15.7,0.1-31.4,0-47.1c0-3,0.4-4.3,3.9-4.3c3.6,0,4.6,1.2,4.2,4.5C1266.7,151.7,1266.8,152.9,1266.8,155.3z"/>
	<path class="st2" d="M1092.1,155.3c4.8-5.9,10.3-8.3,16.6-8.7c1.5-0.1,4-1,3.5,2c-0.3,2.2,1.9,5.4-2.6,6.1
		c-12.7,1.9-17.1,7.1-17.2,20.1c0,7.9-0.2,15.7,0.1,23.6c0.1,3.8-2,3.4-4.4,3.4c-2.2,0-4.1,0.4-4.1-3.2c0.2-16.4,0.2-32.9,0-49.3
		c0-3.3,1.7-3.1,3.8-3c2,0.1,4.7-0.9,4.3,2.9C1091.9,150.8,1092.1,152.4,1092.1,155.3z"/>
	<path class="st2" d="M805.2,174.1c0,8-0.2,16,0.1,24c0.2,4.2-2.4,3.3-4.8,3.5c-2.9,0.3-3.7-0.8-3.6-3.6c0.1-16,0.2-32.1,0-48.1
		c0-3.2,1.1-3.8,4-3.8c2.9,0.1,4.6,0.2,4.4,3.9C805.1,158.1,805.2,166.1,805.2,174.1z"/>
	<path class="st2" d="M1734.1,67.3c0,8-0.2,16,0.1,24c0.1,3.5-1.7,3.6-4.3,3.6c-2.6,0-4.2,0-4.2-3.6c0.2-16.2,0.2-32.4,0-48.5
		c0-3.3,1.5-3.5,3.9-3.3c2.3,0.1,4.6-0.5,4.5,3.3C1734,51,1734.1,59.1,1734.1,67.3z"/>
	<path class="st2" d="M1472.5,67.4c0,8-0.2,16,0.1,24c0.2,4.2-2.4,3.3-4.8,3.5c-2.9,0.3-3.7-0.8-3.6-3.6c0.1-16,0.2-32.1,0-48.1
		c0-3.2,1.1-3.8,4-3.8c2.9,0.1,4.6,0.2,4.4,3.9C1472.3,51.3,1472.5,59.4,1472.5,67.4z"/>
	<path class="st2" d="M1041.4,67.4c0,8-0.2,16,0.1,24c0.2,4.2-2.4,3.3-4.8,3.5c-2.9,0.3-3.7-0.8-3.6-3.6c0.1-16,0.2-32.1,0-48.1
		c0-3.2,1.1-3.8,4-3.8c2.9,0.1,4.6,0.2,4.4,3.9C1041.2,51.3,1041.4,59.4,1041.4,67.4z"/>
	<path class="st3" d="M801.2,136.1c-3.2,0-5.9-2.5-6-5.6c-0.1-3.1,2.6-5.8,5.7-5.9c3.5-0.1,6.3,2.5,6.1,5.9
		C806.9,134,804.8,135.9,801.2,136.1z"/>
	<path class="st3" d="M1037.8,17.8c3.4,0.3,5.6,2.8,5.4,6.1c-0.2,3.4-3,5.7-6.6,5.4c-3.2-0.3-5.6-3.2-5.2-6.3
		C1031.8,20,1034.7,17.6,1037.8,17.8z"/>
	<path class="st3" d="M1729.9,17.8c3.3-0.1,5.9,2.3,6,5.6c0.1,3.5-2.4,6-6,6c-3.2,0-5.8-2.6-5.9-5.7
		C1724.1,20.5,1726.8,17.9,1729.9,17.8z"/>
	<path class="st3" d="M1474.3,23.6c0,3.3-2.3,5.7-5.7,5.8c-3.4,0.1-6.2-2.6-6.1-5.9c0.1-3.1,2.8-5.7,6-5.6
		C1471.8,17.9,1474.3,20.3,1474.3,23.6z"/>
</g>
</svg>
