<svg id="Layer_1" data-name="Layer 1" xmlns="http://www.w3.org/2000/svg" viewBox="0 0 517.31 76.39"><defs><style>.cls-1{fill:#231f20;}</style></defs><title>certificate-of-completion-text</title><path class="cls-1" d="M21.94,41.55a10.9,10.9,0,0,0-6.43.15,11.56,11.56,0,0,0-4.71,2.57A10,10,0,0,0,8.24,48.1a11.8,11.8,0,0,0-.73,4.57,17.79,17.79,0,0,0,.83,4.81,20.13,20.13,0,0,0,2.2,4.73,12.27,12.27,0,0,0,3.23,3.44A10.13,10.13,0,0,0,18,67.35a11.5,11.5,0,0,0,5.2-.47,10.32,10.32,0,0,0,3.52-1.79,8.73,8.73,0,0,0,3.3-6,12,12,0,0,0-.21-3.76c1.42-.41,2.85-.83,4.28-1.23a14.4,14.4,0,0,1-1.57,10.23c-1.72,2.84-4.6,4.85-8.64,6.08a16.84,16.84,0,0,1-6.8.76,13.54,13.54,0,0,1-5.63-1.9A15.15,15.15,0,0,1,7.1,65.08a21.7,21.7,0,0,1-2.94-5.92,20.24,20.24,0,0,1-1-6.57,15.33,15.33,0,0,1,1.3-6,14.13,14.13,0,0,1,3.77-5,17.3,17.3,0,0,1,6.31-3.32,18.41,18.41,0,0,1,5.09-.83,13.87,13.87,0,0,1,4.66.68A11.09,11.09,0,0,1,31,44.24L26.61,45.5A7.78,7.78,0,0,0,21.94,41.55Z"/><path class="cls-1" d="M58,58.54a11.2,11.2,0,0,1-6,3.6,12.79,12.79,0,0,1-5,.43,10,10,0,0,1-4.08-1.48A10.5,10.5,0,0,1,39.74,58a17.47,17.47,0,0,1-2.1-4.48,13.17,13.17,0,0,1-.49-4.88,11.37,11.37,0,0,1,1.28-4.31A10.79,10.79,0,0,1,41.3,40.9a11.51,11.51,0,0,1,4.24-2.07,10.49,10.49,0,0,1,5.59-.14A10.32,10.32,0,0,1,55.29,41a12.45,12.45,0,0,1,2.79,3.72,17.89,17.89,0,0,1,1.46,4.21Q50.77,51.12,42,53.51a8.7,8.7,0,0,0,1.12,2.69,6.47,6.47,0,0,0,4.67,3,8.42,8.42,0,0,0,3.43-.26,7,7,0,0,0,3.69-2.13A5.37,5.37,0,0,0,56.14,53l3.8-1A9.29,9.29,0,0,1,58,58.54ZM53.38,44.37a6.49,6.49,0,0,0-1.94-1.65,7,7,0,0,0-5.26-.58,7.24,7.24,0,0,0-2.59,1.23,6.47,6.47,0,0,0-2.53,4.3,7.35,7.35,0,0,0,.08,2.6q6.74-1.85,13.49-3.58A7.55,7.55,0,0,0,53.38,44.37Z"/><path class="cls-1" d="M64.05,34.7c.39,1.58.77,3.16,1.15,4.74l.09,0a10.36,10.36,0,0,1,2.53-4.88,9.38,9.38,0,0,1,5-2.45L73.7,36a11.53,11.53,0,0,0-3.86,1.54A6.5,6.5,0,0,0,67.6,40a7.55,7.55,0,0,0-.78,3.2,15.33,15.33,0,0,0,.47,4q1.21,5,2.42,10c-1.28.31-2.55.61-3.82.93L60.36,35.6Z"/><path class="cls-1" d="M86.12,29.69c.23,1.1.46,2.19.7,3.29l-4.76,1q1.55,7,3.08,14a3.64,3.64,0,0,0,.34,1,1.09,1.09,0,0,0,.56.52,2,2,0,0,0,.95.09,14.23,14.23,0,0,0,1.48-.25l1.76-.38c.24,1.1.47,2.19.7,3.29L88,53a14.67,14.67,0,0,1-2.58.35A3.84,3.84,0,0,1,83.55,53a3.18,3.18,0,0,1-1.31-1.27,8.74,8.74,0,0,1-.88-2.46q-1.6-7.19-3.22-14.38l-4,.92-.75-3.27,4.07-.93c-.51-2.25-1-4.51-1.52-6.77l4-.88c.5,2.26,1,4.52,1.49,6.78Z"/><path class="cls-1" d="M89.87,24.65c-.32-1.52-.63-3-1-4.56l4-.81c.31,1.52.62,3,.92,4.56Zm4.79,3.28q2.28,11.34,4.57,22.69l-3.83.78Q93,40.06,90.71,28.73Z"/><path class="cls-1" d="M99,30.48l-.65-3.3,4-.78c-.22-1.13-.44-2.26-.65-3.39a5.19,5.19,0,0,1,.91-4.52,7.68,7.68,0,0,1,4.73-2.37,11,11,0,0,1,1.32-.15,7.3,7.3,0,0,1,1.34,0c.19,1.09.39,2.18.59,3.26a5.65,5.65,0,0,0-1.17,0,9,9,0,0,0-1.14.13,4.1,4.1,0,0,0-2.15.95,2.27,2.27,0,0,0-.42,2.17c.2,1.06.39,2.11.59,3.17l4.66-.86c.2,1.1.4,2.21.59,3.31L107,29l3.63,19.45-3.84.73q-1.87-9.72-3.73-19.43C101.71,30,100.36,30.21,99,30.48Z"/><path class="cls-1" d="M114.08,20l-.81-4.59,4-.69c.27,1.53.53,3.06.79,4.59C116.73,19.55,115.4,19.78,114.08,20Zm4.68,3.41q2,11.42,3.91,22.82l-3.85.67-4-22.8Z"/><path class="cls-1" d="M139.94,24.16a6.21,6.21,0,0,0-4.18-.61,7.76,7.76,0,0,0-3.47,1.3,6.35,6.35,0,0,0-2,2.35,8.42,8.42,0,0,0-.78,3.05,15,15,0,0,0,.17,3.4,12.43,12.43,0,0,0,.88,3,8.31,8.31,0,0,0,1.64,2.48,6.22,6.22,0,0,0,2.44,1.55,6.72,6.72,0,0,0,3.26.22,6,6,0,0,0,5.68-6.53l4-.56a10.67,10.67,0,0,1-2.36,7,10.63,10.63,0,0,1-6.78,3.34,12.76,12.76,0,0,1-4.88-.11,9.45,9.45,0,0,1-3.84-1.83,10.55,10.55,0,0,1-2.7-3.35,15.27,15.27,0,0,1-1.48-4.59,16.26,16.26,0,0,1-.1-4.91,10.94,10.94,0,0,1,1.48-4.23A9.76,9.76,0,0,1,130.08,22a12.39,12.39,0,0,1,4.85-1.72,15.83,15.83,0,0,1,3.93-.11,9.71,9.71,0,0,1,3.38,1,8,8,0,0,1,2.61,2.14,8.88,8.88,0,0,1,1.61,3.37l-4.08.57A5.71,5.71,0,0,0,139.94,24.16Z"/><path class="cls-1" d="M173.94,39.06a5.77,5.77,0,0,1-2.72.88,3.45,3.45,0,0,1-2.49-.56,3.56,3.56,0,0,1-1.19-2.59,9.59,9.59,0,0,1-3.42,3.12,12.83,12.83,0,0,1-4.48,1.38,12.63,12.63,0,0,1-3.07,0,7.22,7.22,0,0,1-2.63-.78A5.58,5.58,0,0,1,152,38.77a6.73,6.73,0,0,1-1-2.87,6.77,6.77,0,0,1,.26-3.29,6,6,0,0,1,1.56-2.26,8.67,8.67,0,0,1,2.44-1.51c.93-.39,1.9-.73,2.9-1s2.06-.62,3-.84a18.25,18.25,0,0,0,2.52-.75,4.44,4.44,0,0,0,1.67-1.05,2,2,0,0,0,.46-1.7,3.6,3.6,0,0,0-.72-1.95,3.31,3.31,0,0,0-1.39-1,5.64,5.64,0,0,0-1.79-.33,13.35,13.35,0,0,0-1.91.1,8.77,8.77,0,0,0-4.09,1.42,3.87,3.87,0,0,0-1.38,3.68l-4,.51a8,8,0,0,1,.46-3.72A6.75,6.75,0,0,1,153,19.5a9.51,9.51,0,0,1,3-1.72,17.8,17.8,0,0,1,3.82-.88,24.25,24.25,0,0,1,3.29-.16,8.79,8.79,0,0,1,3,.57A5.52,5.52,0,0,1,168.5,19a6,6,0,0,1,1.15,3.16L170.94,34a9.09,9.09,0,0,0,.37,1.94c.15.4.54.57,1.15.5a5,5,0,0,0,1.17-.3C173.73,37.1,173.84,38.08,173.94,39.06ZM166.3,28a5.21,5.21,0,0,1-1.85,1c-.79.25-1.61.49-2.48.69s-1.73.44-2.61.68a10,10,0,0,0-2.32.94,4.39,4.39,0,0,0-1.57,1.48,3.49,3.49,0,0,0-.38,2.32,2.94,2.94,0,0,0,.6,1.51,3.1,3.1,0,0,0,1.13.91,4.26,4.26,0,0,0,1.52.4,8.71,8.71,0,0,0,1.76,0,9.64,9.64,0,0,0,3.23-.91,7.12,7.12,0,0,0,2.1-1.55,5.14,5.14,0,0,0,1.09-1.83,4.26,4.26,0,0,0,.22-1.75C166.59,30.53,166.44,29.24,166.3,28Z"/><path class="cls-1" d="M185.6,14.75l.3,3.35-4.82.44,1.35,14.31a4.52,4.52,0,0,0,.22,1.06,1.13,1.13,0,0,0,.49.58,2,2,0,0,0,.93.21,14.9,14.9,0,0,0,1.49-.07l1.79-.17.3,3.35-3,.27a14.4,14.4,0,0,1-2.6,0,3.76,3.76,0,0,1-1.81-.57,3.11,3.11,0,0,1-1.13-1.41,8.75,8.75,0,0,1-.58-2.56q-.74-7.32-1.46-14.65c-1.37.13-2.75.27-4.12.42-.11-1.12-.23-2.23-.35-3.34l4.14-.43-.69-6.9q2-.21,4-.39l.66,6.91C182.37,15,184,14.9,185.6,14.75Z"/><path class="cls-1" d="M208.59,34.74A11.1,11.1,0,0,1,202,37.15a12.47,12.47,0,0,1-5-.53,9.57,9.57,0,0,1-3.7-2.22,10.54,10.54,0,0,1-2.46-3.66A18,18,0,0,1,189.68,26a13.26,13.26,0,0,1,.43-4.89,11.26,11.26,0,0,1,2-4,10.82,10.82,0,0,1,3.42-2.79,11.52,11.52,0,0,1,4.52-1.23A9.82,9.82,0,0,1,209.2,17a12.45,12.45,0,0,1,2,4.19,17.56,17.56,0,0,1,.65,4.4q-9,.53-17.93,1.24a8.94,8.94,0,0,0,.6,2.85,6.65,6.65,0,0,0,1.52,2.3,6.79,6.79,0,0,0,2.48,1.5,8.48,8.48,0,0,0,3.39.38,6.91,6.91,0,0,0,4-1.4,5.39,5.39,0,0,0,1.88-3.53l3.88-.23A9.23,9.23,0,0,1,208.59,34.74ZM206.71,20a6.43,6.43,0,0,0-1.59-2,6.88,6.88,0,0,0-2.24-1.24,7.05,7.05,0,0,0-2.78-.32,7,7,0,0,0-2.75.72,6.33,6.33,0,0,0-2,1.56,7,7,0,0,0-1.24,2.19,7.6,7.6,0,0,0-.4,2.57q6.9-.55,13.82-1A7.58,7.58,0,0,0,206.71,20Z"/><path class="cls-1" d="M228.08,18.9a10.33,10.33,0,0,1,5.74-6.63A14.09,14.09,0,0,1,244,12a10.39,10.39,0,0,1,6,6.34,14.71,14.71,0,0,1,.8,4.76,14.91,14.91,0,0,1-.69,4.75A10.85,10.85,0,0,1,248,31.73a10.31,10.31,0,0,1-3.56,2.61,14.15,14.15,0,0,1-9.93.24,10.15,10.15,0,0,1-3.71-2.43,10.85,10.85,0,0,1-2.35-3.74,14.67,14.67,0,0,1-.92-4.72A14.69,14.69,0,0,1,228.08,18.9Zm4.32,8.36a7.91,7.91,0,0,0,1.68,2.68,7.07,7.07,0,0,0,2.43,1.61,7.48,7.48,0,0,0,5.75-.15,6.93,6.93,0,0,0,2.34-1.72,7.85,7.85,0,0,0,1.55-2.76,11.45,11.45,0,0,0,.52-3.75,11.23,11.23,0,0,0-.65-3.73,7.79,7.79,0,0,0-1.66-2.72,6.7,6.7,0,0,0-2.45-1.66,7.47,7.47,0,0,0-2.94-.51,7.38,7.38,0,0,0-2.92.66A6.74,6.74,0,0,0,233.68,17a7.94,7.94,0,0,0-1.52,2.8,10.88,10.88,0,0,0-.46,3.76A11.35,11.35,0,0,0,232.4,27.26Z"/><path class="cls-1" d="M253,14.86l0-3.36,4.1,0c0-1.15,0-2.3,0-3.45a5.26,5.26,0,0,1,1.73-4.28,7.65,7.65,0,0,1,5.07-1.44,9.23,9.23,0,0,1,1.31.1,6.54,6.54,0,0,1,1.31.28l0,3.31a5.35,5.35,0,0,0-1.13-.26c-.42,0-.79-.07-1.14-.07a4,4,0,0,0-2.28.53,2.28,2.28,0,0,0-.81,2.05c0,1.08,0,2.15,0,3.23l4.71,0c0,1.12,0,2.24,0,3.36l-4.7,0q0,9.89,0,19.79h-3.89l-.06-19.79Z"/><path class="cls-1" d="M303.72,8.35a10.82,10.82,0,0,0-6.05-2,11.41,11.41,0,0,0-5.24.85A9.91,9.91,0,0,0,288.77,10,12,12,0,0,0,286.58,14a17.43,17.43,0,0,0-.81,4.81,20,20,0,0,0,.48,5.19,12.43,12.43,0,0,0,1.87,4.32,9.93,9.93,0,0,0,3.38,3,11.22,11.22,0,0,0,5,1.29,9.94,9.94,0,0,0,3.87-.51,8.52,8.52,0,0,0,3-1.77,8.7,8.7,0,0,0,2.08-2.82,11.87,11.87,0,0,0,1.05-3.62l4.41.27a14.52,14.52,0,0,1-4.86,9.12c-2.55,2.1-5.9,3-10.08,2.85a16.56,16.56,0,0,1-6.59-1.55A13.28,13.28,0,0,1,284.78,31a15.06,15.06,0,0,1-2.68-5.37,21.83,21.83,0,0,1-.78-6.56,20.18,20.18,0,0,1,1.21-6.53,15.29,15.29,0,0,1,3.21-5.26,13.84,13.84,0,0,1,5.15-3.42,16.77,16.77,0,0,1,7-1,18,18,0,0,1,5,.92A13.6,13.6,0,0,1,307,5.89a11.12,11.12,0,0,1,2.89,3.42,11.27,11.27,0,0,1,1.32,4.59l-4.46-.27A7.86,7.86,0,0,0,303.72,8.35Z"/><path class="cls-1" d="M315.48,20.21A10.74,10.74,0,0,1,318,16.52a10.54,10.54,0,0,1,3.9-2.29,14.11,14.11,0,0,1,10.18.83A10.31,10.31,0,0,1,337.4,22a14.51,14.51,0,0,1,.29,4.82,15,15,0,0,1-1.18,4.66,10.8,10.8,0,0,1-2.57,3.6,10.12,10.12,0,0,1-3.82,2.22,14,14,0,0,1-9.9-.81,10.2,10.2,0,0,1-3.44-2.8,10.87,10.87,0,0,1-1.94-4,14.4,14.4,0,0,1-.42-4.78A14.61,14.61,0,0,1,315.48,20.21ZM318.9,29a7.94,7.94,0,0,0,1.39,2.84,7,7,0,0,0,2.24,1.86,7.34,7.34,0,0,0,2.82.8,7.18,7.18,0,0,0,2.92-.34,7,7,0,0,0,2.51-1.47,7.59,7.59,0,0,0,1.83-2.58,11,11,0,0,0,.91-3.67,11,11,0,0,0-.24-3.77,8,8,0,0,0-1.37-2.89,6.78,6.78,0,0,0-2.26-1.9,7.49,7.49,0,0,0-2.88-.83,7.59,7.59,0,0,0-3,.35,6.92,6.92,0,0,0-2.54,1.51,8.06,8.06,0,0,0-1.82,2.63,11.24,11.24,0,0,0-.85,3.69A11.11,11.11,0,0,0,318.9,29Z"/><path class="cls-1" d="M347.25,16.12l-.36,3.38h.1a8.87,8.87,0,0,1,8.25-3,9.12,9.12,0,0,1,4,1.37,5,5,0,0,1,2.2,3.33A8.28,8.28,0,0,1,365,18.69a9.46,9.46,0,0,1,4.51-.45,13.43,13.43,0,0,1,3.25.82,7.13,7.13,0,0,1,2.37,1.53,5.43,5.43,0,0,1,1.34,2.29,7.24,7.24,0,0,1,.15,3.12q-1.2,8.4-2.41,16.8l-3.86-.54,2.07-15a10,10,0,0,0,.09-2,3.9,3.9,0,0,0-.47-1.72,3.53,3.53,0,0,0-1.27-1.28,6,6,0,0,0-2.31-.71,6.39,6.39,0,0,0-4.82,1,5.61,5.61,0,0,0-2.21,4.05q-.9,7.16-1.79,14.31l-3.87-.47q.9-7.55,1.81-15.08a9.63,9.63,0,0,0,0-2.07,4.14,4.14,0,0,0-.53-1.7,3.36,3.36,0,0,0-1.25-1.23,5.69,5.69,0,0,0-2.18-.64,6.1,6.1,0,0,0-3,.34,6.46,6.46,0,0,0-2.18,1.38,6.34,6.34,0,0,0-1.33,1.81,5.57,5.57,0,0,0-.53,1.64Q345.81,32,345,39.16l-3.88-.4,2.34-23Z"/><path class="cls-1" d="M387.58,21.39l-.48,3.1.09,0a5.82,5.82,0,0,1,3.52-2.28,12,12,0,0,1,4.76-.11,11.18,11.18,0,0,1,4.71,1.79,9.85,9.85,0,0,1,3,3.22,11.52,11.52,0,0,1,1.38,4.18,15,15,0,0,1-.13,4.71,15.82,15.82,0,0,1-1.48,4.46,11,11,0,0,1-2.68,3.42,9.74,9.74,0,0,1-3.8,2,11.48,11.48,0,0,1-4.85.14,12.25,12.25,0,0,1-1.9-.5,11.29,11.29,0,0,1-2-.91,8.69,8.69,0,0,1-1.81-1.4,6.34,6.34,0,0,1-1.3-2h-.09q-.92,5.88-1.84,11.76l-3.82-.58,4.77-31.61Zm12.86,10.45a8.3,8.3,0,0,0-.88-2.95,6.49,6.49,0,0,0-2-2.29,7.46,7.46,0,0,0-3.21-1.26,7,7,0,0,0-3.52.2,6.59,6.59,0,0,0-2.58,1.6,8,8,0,0,0-1.71,2.57,12.32,12.32,0,0,0-.88,3.08,12.7,12.7,0,0,0-.1,3.31,8.22,8.22,0,0,0,.88,3,6.61,6.61,0,0,0,2,2.29,7.48,7.48,0,0,0,3.29,1.29,7,7,0,0,0,3.48-.19,6.3,6.3,0,0,0,2.5-1.62,8.67,8.67,0,0,0,1.68-2.62,14.22,14.22,0,0,0,.93-3.2A11.31,11.31,0,0,0,400.44,31.84Z"/><path class="cls-1" d="M417,17.53q-3,15.7-6,31.4l-3.85-.72q2.92-15.72,5.83-31.43C414.31,17,415.64,17.28,417,17.53Z"/><path class="cls-1" d="M433.78,52.1a11.19,11.19,0,0,1-7,.51,12.64,12.64,0,0,1-4.67-1.89,9.89,9.89,0,0,1-3-3.16,10.73,10.73,0,0,1-1.36-4.19,18.06,18.06,0,0,1,.15-4.95,13.25,13.25,0,0,1,1.76-4.58,11.18,11.18,0,0,1,3.07-3.27,10.7,10.7,0,0,1,4.07-1.73,11.7,11.7,0,0,1,4.71.06,9.87,9.87,0,0,1,7.71,6.3,12.34,12.34,0,0,1,.81,4.59,17.6,17.6,0,0,1-.59,4.41q-8.81-2-17.66-3.77a9,9,0,0,0-.21,2.9,6.55,6.55,0,0,0,.84,2.64,6.7,6.7,0,0,0,2,2.12,8.61,8.61,0,0,0,3.18,1.31,7.1,7.1,0,0,0,4.24-.24,5.39,5.39,0,0,0,2.79-2.88l3.81.85A9.27,9.27,0,0,1,433.78,52.1ZM436,37.38a6.55,6.55,0,0,0-1-2.35,7,7,0,0,0-1.83-1.81,7.72,7.72,0,0,0-5.45-1.15,6.45,6.45,0,0,0-2.39,1,6.69,6.69,0,0,0-1.8,1.76,7.63,7.63,0,0,0-1.1,2.36Q429.3,38.5,436.1,40A7.48,7.48,0,0,0,436,37.38Z"/><path class="cls-1" d="M456.55,35.14c-.26,1.08-.53,2.17-.79,3.26q-2.37-.59-4.74-1.14-1.65,7-3.31,14a4,4,0,0,0-.14,1.08,1.12,1.12,0,0,0,.28.71,2.08,2.08,0,0,0,.81.49,13.81,13.81,0,0,0,1.45.42l1.76.42c-.26,1.09-.53,2.18-.79,3.27l-2.92-.71a13.8,13.8,0,0,1-2.49-.8A3.85,3.85,0,0,1,444.13,55a3.17,3.17,0,0,1-.62-1.71,8.69,8.69,0,0,1,.27-2.6l3.33-14.35-4.05-.93c.25-1.09.5-2.18.74-3.27,1.36.3,2.72.62,4.07.93.52-2.25,1.05-4.51,1.57-6.76l4,.93L451.8,34Z"/><path class="cls-1" d="M462.13,32.22c.37-1.51.75-3,1.12-4.52l4,1-1.15,4.51Zm2.9,5q-2.85,11.22-5.71,22.43l-3.81-1,5.61-22.46Z"/><path class="cls-1" d="M468.82,45.28a10.34,10.34,0,0,1,7.46-4.67,13.05,13.05,0,0,1,5.21.45,12.72,12.72,0,0,1,4.71,2.3,10.53,10.53,0,0,1,2.88,3.5,10.68,10.68,0,0,1,1.12,4.33,15.37,15.37,0,0,1-2.66,9.13,10.85,10.85,0,0,1-3.21,3.06,10.41,10.41,0,0,1-4.2,1.45,14.25,14.25,0,0,1-9.66-2.67,10.28,10.28,0,0,1-2.88-3.41,11,11,0,0,1-1.18-4.27,15.51,15.51,0,0,1,2.41-9.2Zm1.75,9.26a7.78,7.78,0,0,0,.84,3.06,7,7,0,0,0,1.87,2.24,7.28,7.28,0,0,0,2.65,1.33,7.37,7.37,0,0,0,2.95.22,7.07,7.07,0,0,0,2.76-1,7.75,7.75,0,0,0,2.3-2.18,11.4,11.4,0,0,0,1.59-3.44,11.06,11.06,0,0,0,.46-3.75,7.85,7.85,0,0,0-.82-3.1,6.88,6.88,0,0,0-1.88-2.3,7.46,7.46,0,0,0-2.7-1.35,7.7,7.7,0,0,0-3-.23,7,7,0,0,0-2.8,1,7.94,7.94,0,0,0-2.28,2.24,12.24,12.24,0,0,0-1.93,7.22Z"/><path class="cls-1" d="M501.05,47.29c-.35,1.17-.71,2.34-1.06,3.51l.09,0c2.41-2.2,5.39-2.76,8.88-1.67A11.48,11.48,0,0,1,512.64,51a6.69,6.69,0,0,1,2,2.47,6.24,6.24,0,0,1,.51,3,13.37,13.37,0,0,1-.67,3.39l-4.71,14.47L506,73.06l4.77-14.92a4.45,4.45,0,0,0-.23-3.65,5.09,5.09,0,0,0-3.11-2.29,8.48,8.48,0,0,0-3.22-.44,5.87,5.87,0,0,0-2.6.79,6.52,6.52,0,0,0-2,1.81A9,9,0,0,0,498.36,57q-1.91,6.26-3.8,12.51l-3.77-1.14,6.61-22.18Z"/></svg>