<?xml version="1.0" encoding="UTF-8"?>
<svg id="Layer_1" data-name="Layer 1" xmlns="http://www.w3.org/2000/svg" xmlns:xlink="http://www.w3.org/1999/xlink" version="1.1" viewBox="0 0 154.8 147.7">
  <defs>
    <style>
      .cls-1 {
        fill: url(#linear-gradient);
      }

      .cls-1, .cls-2, .cls-3 {
        stroke-width: 0px;
      }

      .cls-2 {
        fill: url(#linear-gradient-2);
      }

      .cls-3 {
        fill: #fff;
      }
    </style>
    <linearGradient id="linear-gradient" x1="58.4" y1="157.9" x2="58.4" y2="5.5" gradientTransform="translate(0 150) scale(1 -1)" gradientUnits="userSpaceOnUse">
      <stop offset="0" stop-color="#6d0ff2"/>
      <stop offset="1" stop-color="#8130f2"/>
    </linearGradient>
    <linearGradient id="linear-gradient-2" x1="97.9" x2="97.9" y2="5.5" xlink:href="#linear-gradient"/>
  </defs>
  <path class="cls-3" d="M7.5,56.7h.2c0,0-.2,0-.2,0,0,0,0,0,0,0Z"/>
  <path class="cls-1" d="M103.5,61.5s0,0,0,0l-61.5,41.5h0v-51.2s0,0,0,0l30.2-20.3s0,0,0,0V11.6s0,0,0,0L58.3.3h0L13.3,37s0,0,0,0v73.4s0,0,0,0l45,36.7h0l14.5-11.8s0,0,0,0v-28.6s0,0,0,0l30.7-20.7s0,0,0,0v-24.4h0Z"/>
  <path class="cls-2" d="M97.5.3h0l-13.9,11.3s0,0,0,0v25.8s0,0,0,0l-30.2,20.3s0,0,0,0v23.6s0,0,0,0l61.5-41.5h0v52s0,0,0,0l-30.7,20.7s0,0,0,0v23.5s0,0,0,0l13.3,10.8h0l45-36.7s0,0,0,0V37s0,0,0,0L97.5.3Z"/>
</svg>