<?xml version="1.0" encoding="utf-8"?>
<!-- Generator: Adobe Illustrator 27.0.0, SVG Export Plug-In . SVG Version: 6.00 Build 0)  -->
<svg version="1.1" id="Layer_1" xmlns="http://www.w3.org/2000/svg" xmlns:xlink="http://www.w3.org/1999/xlink" x="0px" y="0px"
	 viewBox="0 0 798.7 75.4" style="enable-background:new 0 0 798.7 75.4;" xml:space="preserve">
<style type="text/css">
	.st0{fill:#0C0C0C;}
	.st1{fill:#72889D;}
</style>
<g>
	<path class="st0" d="M436.5,11.8c3.7,0,6.5,0,9.6,0c5.8,12.7,11.5,25.4,17.7,39.1c6.2-13.6,12-26.3,17.8-38.9
		c2.5-0.6,4.8-0.5,7.6-0.1c5.7,12.6,11.5,25.4,17.6,39c6.2-13.6,12-26.3,17.8-39c3.1-0.5,6-0.5,9.6,0.1c-8,17.4-15.8,34.4-23.7,51.6
		c-2.5,0-4.8,0-7.4,0c-5.8-12.8-11.6-25.6-17.8-39.3c-6.3,13.7-12.2,26.5-18,39.1c-2.6,0.5-4.7,0.6-7.3-0.1
		C452.4,46.5,444.6,29.4,436.5,11.8z"/>
	<path class="st0" d="M670.7,63.6c-3.9,0-6.9,0-10.5,0c-3.9-7.4-7.9-15-12-22.8c-8.7,0-17.5,0-26.8,0c0,7.5,0,14.9,0,22.4
		c-3.4,1-6.3,0.3-9.6,0.6c0-17.4,0-34.5,0-51.7c0.7-0.9,2-0.4,3.1-0.5c13.7,0,27.3-0.1,41,0c11.6,0.1,16.3,5.6,15.5,17
		c-0.6,7.5-5.2,10.6-12.4,11.9C662.8,48.2,666.6,55.5,670.7,63.6z M660.1,20.1c-12.7-1.1-25.7-0.3-38.8-0.5
		c0.3,4.7-0.5,8.8,0.6,13.1c10.4,0,20.5,0,30.6,0C661.1,32.7,662.9,30.2,660.1,20.1z"/>
	<path class="st0" d="M569.6,11.6c5.8,0,11.6-0.1,17.5,0c11.1,0.2,15.4,4.6,15.4,15.5c0,7.7,0,15.3,0,23c0,7.6-3.1,11.2-10.5,12.9
		c-5.6,1.3-11.3,0.6-16.9,0.7c-7.7,0.1-15.3,0.2-23,0c-11.6-0.3-16-4.8-16-16.2c0-7,0-14,0-21c0-10.1,4.2-14.5,14.5-15
		c3.2-0.2,6.3,0,9.5,0C563.3,11.6,566.4,11.6,569.6,11.6z M546.2,52.8c1.9,2.1,3.4,2.7,5.1,2.8c12,0,23.9,0.1,35.9,0
		c3.5,0,5.4-2,5.4-5.7c-0.1-8.1-0.1-16.3,0-24.4c0-3.7-1.7-5.7-5.3-5.7c-12-0.1-23.9-0.1-35.9,0c-2.5,0-5,0.9-5.1,3.7
		C546.1,33.4,546.2,43.5,546.2,52.8z"/>
	<path class="st0" d="M214.6,40.8c3.9,7.5,7.7,14.7,11.7,22.5c-3.8,0.8-7,0.5-10.5,0.2c-4-7.6-8-15.2-12-22.8c-9,0-17.6,0-26.7,0
		c0,7.5,0,14.9,0,22.5c-3.5,0.9-6.5,0.4-9.9,0.4c0-17.4,0-34.3,0-51.2c0.9-1.1,2.1-0.8,3.2-0.8c13.5,0,27-0.1,40.5,0
		c12.2,0.1,17,5.5,15.9,17.5C226.3,35.5,224,37.7,214.6,40.8z M177.2,32.6c11.7,0,23.2,0,34.6,0c1.9,0,3.6-0.7,4.9-2.9
		c0.3-2.3,0.6-5.1-0.2-7.8c-3.4-2.6-27.7-3.7-39.3-1.8C177.2,24,177.2,27.9,177.2,32.6z"/>
	<path class="st0" d="M308.8,63.4c-0.8-2.5-0.7-4.9-0.1-7.5c16-1,32,0.8,47.9-1c0.7-0.1,1.3-0.9,2.1-1.4c0.8-3.8,0.7-7.6,0.1-11.1
		c-1.9-2.6-4.4-2.5-6.9-2.5c-10.2,0-20.3,0.2-30.5-0.1c-11-0.3-15.4-5.2-14.7-16.1c0.3-5.9,2.9-9.2,8.5-11c1.3-0.4,2.6-0.9,3.9-0.9
		c15.6-0.1,31.2,0,46.9,0c1,2.4,0.5,4.7,0.4,7c-1.5,1.4-3.2,0.8-4.8,0.8c-12.5,0.1-25,0-37.5,0c-2.5,0-5.1-0.2-6.9,2.3
		c-0.9,2.3-0.4,4.8-0.4,7c1.9,3.3,4.9,3.1,7.7,3.1c9.7,0,19.3,0.1,29,0c17.1-0.1,18,12,14.4,24.8c-1.4,4.8-6.5,6.4-11,6.5
		C340.7,63.5,324.8,63.4,308.8,63.4z"/>
	<path class="st0" d="M798.7,39.8c0,5.3,0,10.6,0,15.9c-2.4,6.1-7.9,7.7-13.4,7.8c-15.3,0.4-30.6,0.1-46,0.1c-1.2-2.6-0.6-5-0.5-8
		c7.1,0,14,0,21,0c7.8,0,15.7,0.1,23.5,0c5.5-0.1,6.5-1.7,6.4-8.7c-0.1-5.5-1.3-7-6.6-7c-9.5-0.1-19,0-28.5-0.1
		c-2.5,0-5-0.1-7.4-0.6c-7.1-1.5-10.1-5.3-10.3-12.7c-0.2-8.2,2.5-12.2,9.7-14.1c1.9-0.5,3.9-0.8,5.9-0.8c13.7-0.1,27.3,0,41,0
		c1,0,1.9,0.2,3.1,0.3c0,2.5,0,4.8,0,7.2c-3.3,0.9-6.6,0.4-9.9,0.4c-11.2,0.1-22.3,0-33.5,0c-3.9,0-6.2,1.4-6.3,5.8
		c-0.1,4.5,1.9,6.5,6.2,6.5c10.5,0,21-0.1,31.5,0.1C790.4,32.1,796,33.4,798.7,39.8z"/>
	<path class="st0" d="M288.5,11.7c3.8,0,6.6,0,9.2,0c1.2,1.1,0.9,2.3,0.9,3.4c0,11.8,0.1,23.7,0,35.5c0,8.2-2.5,11.8-10.4,12.5
		c-14.1,1.1-28.3,1.4-42.4-0.1c-8.5-0.9-11.4-5-11.4-13.5c0-12.5,0-25,0-37.4c3.4-0.9,6.3-0.3,9.9-0.4c0,14.1,0,27.8,0,42.9
		c14.8,2,29.1,1.2,44.3,0.5C288.5,39.9,288.5,25.8,288.5,11.7z"/>
	<path class="st0" d="M736,63.5c-4.2,0-7.5,0-11.4,0c-6.2-7.4-12.8-15.1-19.3-22.8c-5.4,0-10.7,0-16.5,0c0,7.6,0,15,0,22.6
		c-3.4,0.7-6.3,0.4-9.7,0.2c0-17.1,0-34.2,0-51.6c3,0,6.1,0,9.5,0c0,6.8,0,13.4,0,20.4c5.6,0,10.8,0,16.6,0
		c6.1-6.6,12.5-13.5,19-20.5c3.5,0,6.9,0,11.8,0c-7.9,8.4-15.1,16-22.7,24C720.7,44.8,728.1,53.8,736,63.5z"/>
	<path class="st0" d="M434.8,11.8c0,2.6,0,4.9,0,7.6c-8.6,0-17,0-25.9,0c0,14.9,0,29.3,0,44c-3.4,0-6.3,0-9.8,0c0-14.6,0-29,0-43.8
		c-9.1,0-17.7,0-26.4,0c-1.3-2.7-0.4-5.2-0.7-7.8C393.1,11.8,413.7,11.8,434.8,11.8z"/>
	<path class="st0" d="M124.9,19.6c-5.2,0-9.7,0-14.1,0c-4.3,0-8.6,0-12.8,0c-0.7-2.8-0.7-5.1-0.1-7.7c20.8,0,41.5,0,62.5,0
		c0.7,2.4,0.5,4.8,0.1,7.7c-8.6,0-17,0-25.7,0c0,14.8,0,29,0,43.4c-3.4,1.2-6.4,0.8-9.8,0.4C124.9,48.9,124.9,34.6,124.9,19.6z"/>
</g>
<path class="st1" d="M29,27.5c2.3-4.8,18-34.3,55.4-23.3c0.3,0.1,0.5,0.4,0.4,0.7c-2.9,9.9-4.7,21.1-24.8,30.2
	c-0.3,0.1-0.6,0-0.8-0.3L57.2,30c-0.1-0.3,0-0.6,0.3-0.7c2.7-1.4,15.8-8.8,18-19.5c0.1-0.3-0.2-0.6-0.5-0.7
	c-4.2-0.7-29.7-4-38.5,20.3c-0.1,0.3-0.4,0.4-0.7,0.4l-6.5-1.5C29,28.2,28.8,27.8,29,27.5z"/>
<path class="st1" d="M49,15.5c3.1,4.3,21.5,32.2-6.1,59.8c-0.2,0.2-0.6,0.2-0.8,0C34.8,68,25.7,61,27.4,39.1c0-0.3,0.3-0.6,0.6-0.5
	l5.2,0.5c0.3,0,0.5,0.3,0.5,0.6c0,3,0.2,18.1,8.5,25.2c0.2,0.2,0.6,0.2,0.8-0.1c2.6-3.3,17.8-24.1,0.7-43.5c-0.2-0.2-0.2-0.5,0-0.8
	l4.4-5C48.3,15.2,48.8,15.2,49,15.5z"/>
<path class="st1" d="M48.6,39C43.3,39.5,9.9,41.3,0,3.6C-0.1,3.3,0.1,3,0.4,2.9C10.4,0.3,21-4,39.1,8.5c0.3,0.2,0.3,0.6,0.1,0.8
	l-3,4.2c-0.2,0.2-0.5,0.3-0.8,0.2c-2.6-1.6-15.8-9-26-5.3C9.1,8.4,9,8.8,9.1,9.1C10.6,13,21,36.6,46.3,31.6c0.3-0.1,0.6,0.1,0.7,0.4
	l2.1,6.3C49.2,38.6,49,38.9,48.6,39z"/>
</svg>
