<?xml version="1.0" encoding="utf-8"?>
<!-- Generator: Adobe Illustrator 27.0.0, SVG Export Plug-In . SVG Version: 6.00 Build 0)  -->
<svg version="1.1" id="Layer_1" xmlns="http://www.w3.org/2000/svg" xmlns:xlink="http://www.w3.org/1999/xlink" x="0px" y="0px"
	 viewBox="0 0 1000 148" style="enable-background:new 0 0 1000 148;" xml:space="preserve">
<style type="text/css">
	.st0{fill:#84C198;}
	.st1{fill:#5AC9E9;}
	.st2{fill:#1D6076;}
</style>
<g>
	<circle class="st0" cx="74" cy="74" r="74"/>
	<polyline class="st1" points="56.2,80.9 73.3,98 92,73.5 79,57.1 55.2,80.9 	"/>
	<g>
		<path class="st2" d="M99.1,34.9c5.1-5.1,13.3-5.1,18.4,0c5.1,5.1,5.1,13.3,0,18.4"/>
		<polygon class="st2" points="45.3,115.3 32.9,118.6 36.2,106.2 		"/>
		<path class="st2" d="M111.2,95.3L93.6,77.7l17.6-17.6c1.4-1.4,1.4-3.7,0-5c-0.1-0.1-0.1-0.1-0.2-0.2l0,0l-6.8-6.8l0,0c0,0,0,0,0,0
			l-7-7h0c-1.4-1.3-3.6-1.3-5,0.1L74.6,58.7l-5.4-5.5c0.8-6.3-1.3-12.8-6.1-17.6c-5.4-5.4-12.9-7.3-19.8-5.7l7.9,7.9l0,0L50.3,53
			l-15.2,1l0,0l-7.9-7.9c-1.5,6.9,0.4,14.4,5.7,19.7c4.8,4.8,11.4,6.8,17.6,6.1l5.4,5.4L40.7,92.6c-1.4,1.4-1.4,3.7,0,5
			c1.1,1.1,2.9,1.3,4.3,0.5l2.2,2.2c-0.8,1.4-0.6,3.1,0.5,4.2c1.1,1.1,2.9,1.3,4.2,0.5l2.2,2.2c-0.8,1.4-0.6,3.1,0.5,4.2
			c1.4,1.4,3.6,1.3,5,0L75,96.4l17.6,17.6c4.8,4.8,12.7,4.8,17.5,0l1.2-1.2C116,108,116,100.1,111.2,95.3z M107.3,110
			c-3.1,3.1-8.1,3.1-11.2,0c-3.1-3.1-3.1-8.1,0-11.2c3.1-3.1,8.1-3.1,11.2,0C110.4,101.9,110.4,106.9,107.3,110z"/>
	</g>
	<g>
		<path class="st2" d="M235.6,49.7h-39v15.6h35.8v12.8h-35.8V97h40.8v13.2h-55.8V36.6h54V49.7z"/>
		<path class="st2" d="M275.1,56.7c2.6,1.4,4.6,3.5,6.2,6v-26h14.4v73.5h-13.8v-7.5c-2,3.2-4.3,5.6-6.9,7c-2.6,1.5-5.8,2.2-9.7,2.2
			c-6.4,0-11.7-2.6-16.1-7.7c-4.3-5.1-6.5-11.7-6.5-19.8c0-9.3,2.1-16.6,6.4-21.9c4.3-5.3,10-8,17.2-8
			C269.6,54.5,272.5,55.2,275.1,56.7z M278.6,95.5c2.1-3,3.1-6.9,3.1-11.6c0-6.7-1.7-11.4-5-14.3c-2.1-1.7-4.5-2.6-7.2-2.6
			c-4.2,0-7.2,1.6-9.2,4.7c-1.9,3.1-2.9,7.1-2.9,11.7c0,5,1,9,3,12.1c2,3,5,4.5,9,4.5C273.4,100,276.5,98.5,278.6,95.5z"/>
		<path class="st2" d="M320.8,55.8v32.8c0,3.1,0.4,5.4,1.1,7c1.3,2.8,3.8,4.1,7.6,4.1c4.8,0,8.1-2,9.9-5.9c0.9-2.1,1.4-4.9,1.4-8.4
			V55.8h14.4v54.4h-13.8v-7.7c-0.1,0.2-0.5,0.7-1,1.5c-0.5,0.8-1.2,1.6-1.9,2.2c-2.2,2-4.4,3.4-6.4,4.1c-2.1,0.7-4.5,1.1-7.3,1.1
			c-8,0-13.4-2.9-16.2-8.7c-1.6-3.2-2.3-7.9-2.3-14.1V55.8H320.8z"/>
		<path class="st2" d="M399.7,75.3c-0.3-2-1-3.9-2.1-5.5c-1.6-2.2-4.1-3.3-7.5-3.3c-4.8,0-8.1,2.4-9.9,7.1
			c-0.9,2.5-1.4,5.9-1.4,10.1c0,4,0.5,7.2,1.4,9.6c1.7,4.5,4.9,6.8,9.6,6.8c3.3,0,5.7-0.9,7.1-2.7c1.4-1.8,2.3-4.1,2.6-7h14.5
			c-0.3,4.3-1.9,8.4-4.7,12.3c-4.5,6.2-11.1,9.3-19.8,9.3c-8.8,0-15.2-2.6-19.3-7.8c-4.1-5.2-6.2-11.9-6.2-20.2
			c0-9.3,2.3-16.6,6.8-21.8c4.6-5.2,10.9-7.8,18.9-7.8c6.8,0,12.4,1.5,16.8,4.6c4.3,3.1,6.9,8.5,7.7,16.2H399.7z"/>
		<path class="st2" d="M443.5,77.1c2.6-0.3,4.5-0.8,5.7-1.2c2-0.9,3.1-2.2,3.1-4c0-2.2-0.8-3.8-2.4-4.6c-1.6-0.8-3.9-1.3-6.9-1.3
			c-3.4,0-5.8,0.8-7.2,2.5c-1,1.2-1.7,2.9-2,5H420c0.3-4.8,1.6-8.7,4-11.7c3.8-4.8,10.3-7.2,19.5-7.2c6,0,11.3,1.2,16,3.5
			c4.6,2.4,7,6.8,7,13.4v25c0,1.7,0,3.8,0.1,6.3c0.1,1.9,0.4,3.1,0.8,3.8c0.5,0.7,1.2,1.2,2.1,1.6v2.1h-15.5
			c-0.4-1.1-0.7-2.1-0.9-3.1c-0.2-1-0.3-2.1-0.4-3.3c-2,2.1-4.3,3.9-6.8,5.4c-3.1,1.8-6.6,2.6-10.4,2.6c-5,0-9-1.4-12.3-4.2
			c-3.2-2.8-4.8-6.8-4.8-12c0-6.7,2.6-11.5,7.8-14.5c2.9-1.6,7-2.8,12.6-3.5L443.5,77.1z M452.2,83.8c-0.9,0.6-1.8,1-2.8,1.4
			c-0.9,0.4-2.2,0.7-3.8,1l-3.2,0.6c-3,0.5-5.2,1.2-6.5,1.9c-2.2,1.3-3.4,3.3-3.4,6c0,2.4,0.7,4.2,2.1,5.3c1.4,1.1,3,1.6,5,1.6
			c3.1,0,6-0.9,8.6-2.7c2.6-1.8,4-5.1,4.1-9.8V83.8z"/>
		<path class="st2" d="M471.2,66.4V56.3h7.6V41.1h14.1v15.2h8.8v10.1h-8.8v28.8c0,2.2,0.3,3.6,0.8,4.2c0.6,0.5,2.3,0.8,5.2,0.8
			c0.4,0,0.9,0,1.4,0c0.5,0,1,0,1.4-0.1v10.6l-6.7,0.2c-6.7,0.2-11.3-0.9-13.8-3.5c-1.6-1.6-2.4-4.1-2.4-7.5V66.4H471.2z"/>
		<path class="st2" d="M544.2,56.9c3.8,1.7,6.9,4.4,9.4,8.1c2.2,3.2,3.7,7,4.3,11.3c0.4,2.5,0.5,6.1,0.5,10.8h-39.6
			c0.2,5.5,2.1,9.3,5.7,11.5c2.2,1.4,4.8,2,7.8,2c3.2,0,5.9-0.8,7.9-2.5c1.1-0.9,2.1-2.1,2.9-3.7h14.5c-0.4,3.2-2.1,6.5-5.3,9.8
			c-4.9,5.3-11.7,7.9-20.5,7.9c-7.2,0-13.6-2.2-19.2-6.7c-5.5-4.5-8.3-11.7-8.3-21.8c0-9.4,2.5-16.7,7.5-21.7c5-5,11.5-7.5,19.5-7.5
			C536.2,54.4,540.4,55.2,544.2,56.9z M523,69.2c-2,2.1-3.3,4.9-3.8,8.4h24.5c-0.3-3.8-1.5-6.6-3.8-8.6c-2.3-2-5.1-2.9-8.4-2.9
			C527.8,66.1,525,67.1,523,69.2z"/>
		<path class="st2" d="M569.6,36.9l13.8,59.6L600,36.9h10.7l16.6,59.7l13.8-59.7h10.9l-19.3,73.4h-10.4l-16.9-60.8l-17,60.8H578
			l-19.2-73.4H569.6z"/>
		<path class="st2" d="M695,62.1c4.7,4.6,7.1,11.3,7.1,20.3c0,8.6-2.1,15.7-6.2,21.4c-4.2,5.6-10.6,8.4-19.4,8.4
			c-7.3,0-13.1-2.5-17.4-7.5c-4.3-5-6.4-11.6-6.4-20c0-9,2.3-16.1,6.8-21.5c4.5-5.3,10.6-8,18.3-8C684.5,55.2,690.3,57.5,695,62.1z
			 M689.4,97.6c2.2-4.5,3.3-9.5,3.3-15c0-5-0.8-9-2.4-12.2c-2.5-4.9-6.8-7.4-12.9-7.4c-5.4,0-9.4,2.1-11.9,6.3
			c-2.5,4.2-3.7,9.2-3.7,15.2c0,5.7,1.2,10.4,3.7,14.2c2.5,3.8,6.4,5.7,11.8,5.7C683.2,104.4,687.2,102.1,689.4,97.6z"/>
		<path class="st2" d="M711.3,56.8h8.5V66c0.7-1.8,2.4-4,5.1-6.6c2.7-2.6,5.9-3.9,9.4-3.9c0.2,0,0.5,0,0.8,0c0.4,0,1.1,0.1,2,0.2
			v9.5c-0.5-0.1-1-0.2-1.5-0.2c-0.5,0-0.9-0.1-1.5-0.1c-4.5,0-8,1.5-10.4,4.4c-2.4,2.9-3.6,6.3-3.6,10.1v30.8h-9V56.8z"/>
		<path class="st2" d="M742.9,36.9h8.6v42.6l23.1-22.7h11.5l-20.6,19.9l21.7,33.6h-11.5L758.9,83l-7.4,7.1v20.1h-8.6V36.9z"/>
		<path class="st2" d="M796.4,40.4c2.1-3.1,6.1-4.6,12.1-4.6c0.6,0,1.1,0,1.7,0c0.6,0,1.3,0.1,2,0.2v8.2c-0.9-0.1-1.6-0.1-2-0.1
			c-0.4,0-0.8,0-1.2,0c-2.8,0-4.4,0.7-4.9,2.1c-0.5,1.4-0.8,5-0.8,10.8h9v7.1h-9v46.1h-8.9V64.1H787V57h7.4v-8.4
			C794.6,44.9,795.2,42.2,796.4,40.4z"/>
		<path class="st2" d="M857.3,62.1c4.7,4.6,7.1,11.3,7.1,20.3c0,8.6-2.1,15.7-6.2,21.4c-4.2,5.6-10.6,8.4-19.4,8.4
			c-7.3,0-13.1-2.5-17.4-7.5c-4.3-5-6.4-11.6-6.4-20c0-9,2.3-16.1,6.8-21.5c4.5-5.3,10.6-8,18.3-8C846.8,55.2,852.6,57.5,857.3,62.1
			z M851.7,97.6c2.2-4.5,3.3-9.5,3.3-15c0-5-0.8-9-2.4-12.2c-2.5-4.9-6.8-7.4-12.9-7.4c-5.4,0-9.4,2.1-11.9,6.3
			c-2.5,4.2-3.7,9.2-3.7,15.2c0,5.7,1.2,10.4,3.7,14.2c2.5,3.8,6.4,5.7,11.8,5.7C845.5,104.4,849.5,102.1,851.7,97.6z"/>
		<path class="st2" d="M873.6,56.8h8.5V66c0.7-1.8,2.4-4,5.1-6.6c2.7-2.6,5.9-3.9,9.4-3.9c0.2,0,0.5,0,0.8,0c0.4,0,1.1,0.1,2,0.2
			v9.5c-0.5-0.1-1-0.2-1.5-0.2c-0.5,0-0.9-0.1-1.5-0.1c-4.5,0-8,1.5-10.4,4.4c-2.4,2.9-3.6,6.3-3.6,10.1v30.8h-9V56.8z"/>
		<path class="st2" d="M940.7,59.6c3.8,2.9,6.1,8,6.8,15.1h-8.7c-0.5-3.3-1.7-6-3.6-8.2c-1.9-2.2-4.9-3.3-9.1-3.3
			c-5.7,0-9.8,2.8-12.3,8.4c-1.6,3.6-2.4,8.1-2.4,13.4c0,5.4,1.1,9.9,3.4,13.5c2.3,3.7,5.8,5.5,10.7,5.5c3.7,0,6.7-1.1,8.9-3.4
			c2.2-2.3,3.7-5.4,4.5-9.3h8.7c-1,7.1-3.5,12.3-7.5,15.6c-4,3.3-9.1,4.9-15.3,4.9c-7,0-12.6-2.6-16.7-7.7
			c-4.2-5.1-6.2-11.5-6.2-19.2c0-9.4,2.3-16.7,6.8-21.9c4.6-5.2,10.4-7.8,17.4-7.8C932.1,55.2,937,56.7,940.7,59.6z"/>
		<path class="st2" d="M987.5,58.2c3.5,1.8,6.2,4.1,8.1,6.9c1.8,2.7,3,5.8,3.6,9.4c0.5,2.5,0.8,6.4,0.8,11.8h-38.9
			c0.2,5.4,1.4,9.8,3.8,13.1c2.4,3.3,6.1,4.9,11,4.9c4.7,0,8.4-1.6,11.1-4.7c1.6-1.8,2.7-3.9,3.3-6.3h8.8c-0.2,2-1,4.2-2.3,6.6
			c-1.3,2.4-2.8,4.4-4.4,5.9c-2.7,2.7-6.1,4.5-10.1,5.4c-2.1,0.5-4.6,0.8-7.3,0.8c-6.6,0-12.2-2.4-16.8-7.3
			c-4.6-4.8-6.9-11.6-6.9-20.3c0-8.6,2.3-15.6,6.9-20.9c4.6-5.4,10.7-8,18.2-8C980.3,55.6,984,56.5,987.5,58.2z M990.8,79.2
			c-0.4-3.9-1.2-7-2.5-9.3c-2.4-4.3-6.5-6.5-12.2-6.5c-4.1,0-7.5,1.5-10.3,4.5c-2.8,3-4.2,6.8-4.4,11.4H990.8z"/>
	</g>
</g>
</svg>
